<svg width="24" height="25" viewBox="0 0 24 25" fill="none" xmlns="http://www.w3.org/2000/svg">
<g fill="#ffffff">
<path d="M19.9776 4.53728L19.1945 4.33621L19.5808 0.5H23.5334V1.40482H20.4115L20.1787 3.50018C20.3198 3.41905 20.4979 3.34321 20.7131 3.27266C20.9318 3.2021 21.1823 3.16683 21.4645 3.16683C21.8208 3.16683 22.14 3.22856 22.4222 3.35203C22.7044 3.47196 22.9443 3.64481 23.1418 3.87058C23.3429 4.09634 23.4964 4.36796 23.6022 4.68544C23.708 5.00292 23.7609 5.35744 23.7609 5.749C23.7609 6.11939 23.7098 6.4598 23.6075 6.77022C23.5087 7.08065 23.3588 7.35227 23.1577 7.58509C22.9566 7.81438 22.7027 7.99252 22.3958 8.11951C22.0924 8.2465 21.7343 8.31 21.3216 8.31C21.0112 8.31 20.7166 8.26767 20.438 8.18301C20.1628 8.09482 19.9159 7.96254 19.6972 7.78616C19.482 7.60625 19.3056 7.38402 19.168 7.11945C19.034 6.85136 18.9493 6.53741 18.9141 6.17759H19.8453C19.8877 6.46685 19.9723 6.71026 20.0993 6.9078C20.2263 7.10534 20.3921 7.25526 20.5967 7.35756C20.8048 7.45633 21.0465 7.50572 21.3216 7.50572C21.5544 7.50572 21.7608 7.46515 21.9407 7.38402C22.1206 7.30288 22.2723 7.18647 22.3958 7.03479C22.5192 6.88311 22.6127 6.69967 22.6762 6.48449C22.7432 6.26931 22.7767 6.02767 22.7767 5.75958C22.7767 5.51618 22.7432 5.29042 22.6762 5.08229C22.6092 4.87416 22.5086 4.6925 22.3746 4.53728C22.2441 4.38207 22.0836 4.26213 21.8931 4.17747C21.7026 4.08928 21.4839 4.04519 21.237 4.04519C20.9089 4.04519 20.6602 4.08928 20.4909 4.17747C20.3251 4.26566 20.154 4.3856 19.9776 4.53728Z"/>
<path fill-rule="evenodd" clip-rule="evenodd" d="M11.0269 4.93901C8.9246 4.58862 6.87038 5.02903 5.44967 6.44975C4.02895 7.87046 3.58854 9.92468 3.93893 12.027C4.28953 14.1306 5.43441 16.334 7.26457 18.1641C9.09474 19.9943 11.2981 21.1392 13.4018 21.4898C15.504 21.8402 17.5583 21.3998 18.979 19.9791C20.3997 18.5583 20.8401 16.5041 20.4897 14.4018C20.1391 12.2982 18.9942 10.0948 17.1641 8.26465C15.3339 6.43449 13.1305 5.28961 11.0269 4.93901Z"/>
</g>
</svg>
