<svg width="22" height="17" viewBox="0 0 22 17" fill="none" xmlns="http://www.w3.org/2000/svg">
<g id="bring-front 1" clip-path="url(#clip0_31_18409)" fill="#fffff">
<path id="Vector" d="M15.9375 12.2188V4.78125C15.9375 4.35856 15.7696 3.95318 15.4707 3.6543C15.1718 3.35541 14.7664 3.1875 14.3438 3.1875H6.90625C6.48356 3.1875 6.07818 3.35541 5.7793 3.6543C5.48041 3.95318 5.3125 4.35856 5.3125 4.78125V12.2188C5.3125 12.6414 5.48041 13.0468 5.7793 13.3457C6.07818 13.6446 6.48356 13.8125 6.90625 13.8125H14.3438C14.7664 13.8125 15.1718 13.6446 15.4707 13.3457C15.7696 13.0468 15.9375 12.6414 15.9375 12.2188ZM2.125 2.125H8.5V1.0625C8.5 0.780707 8.38806 0.510456 8.1888 0.311199C7.98954 0.111942 7.71929 0 7.4375 0L1.0625 0C0.780707 0 0.510456 0.111942 0.311199 0.311199C0.111942 0.510456 0 0.780707 0 1.0625L0 7.4375C0 7.71929 0.111942 7.98954 0.311199 8.1888C0.510456 8.38806 0.780707 8.5 1.0625 8.5H4.25V6.375H2.125V2.125ZM20.1875 8.5H17V10.625H19.125V14.875H12.75V15.9375C12.75 16.2193 12.8619 16.4895 13.0612 16.6888C13.2605 16.8881 13.5307 17 13.8125 17H20.1875C20.4693 17 20.7395 16.8881 20.9388 16.6888C21.1381 16.4895 21.25 16.2193 21.25 15.9375V9.5625C21.25 9.28071 21.1381 9.01046 20.9388 8.8112C20.7395 8.61194 20.4693 8.5 20.1875 8.5Z"/>
</g>
<defs>
<clipPath id="clip0_31_18409">
<rect width="21.25" height="17" fill="white"/>
</clipPath>
</defs>
</svg>
