<svg width="19" height="19" viewBox="0 0 19 19" fill="none" xmlns="http://www.w3.org/2000/svg">
<g fill="#ffffff">
<path d="M9.27311 3.11343C8.84069 2.681 8.11295 2.66659 7.69459 3.08038L2.2619 8.0796C1.80451 8.49796 1.09295 8.46983 0.672131 8.0128C0.25131 7.55577 0.281193 6.8421 0.738225 6.42374L6.16881 1.42452C7.50826 0.193981 9.57897 0.237082 10.8622 1.52261C12.1594 2.81987 12.1911 4.91554 10.9325 6.24796L3.94694 13.6413C3.72194 13.8839 3.70436 14.253 3.91178 14.5097C4.16139 14.8226 4.63248 14.812 4.9067 14.5519L12.736 6.31475C13.9665 5.01749 16.0196 4.99288 17.2536 6.25499C18.4137 7.41514 18.5297 9.27139 17.4786 10.5335L14.3567 14.2776C13.9911 14.7171 14.0192 15.3675 14.427 15.7718C14.8172 16.162 15.4325 16.2077 15.8755 15.8737L16.5751 15.3499C17.0708 14.9773 17.7458 15.0792 18.1501 15.5749C18.5227 16.0706 18.4208 16.7456 17.9251 17.1499L17.2255 17.6737C15.8895 18.6792 14.0157 18.5456 12.8344 17.3644C11.6075 16.1339 11.5161 14.1722 12.6305 12.8362L15.7489 9.0921C16.0547 8.69483 16.0301 8.18507 15.6926 7.81593C15.3235 7.47843 14.7258 7.48546 14.3356 7.86163L6.53795 16.1023C5.32155 17.3819 3.22623 17.2941 2.15467 15.9159C1.24764 14.7804 1.31444 13.1526 2.31147 12.098L9.2942 4.7046C9.71959 4.2546 9.70905 3.55007 9.27311 3.11343Z" />
</g>
</svg>
