<svg width="16" height="19" viewBox="0 0 16 19" fill="none" xmlns="http://www.w3.org/2000/svg">
<g fill="#F9C062">
<path d="M12.375 11.75C11.5802 11.75 10.8497 12.0249 10.273 12.4846L6.66998 10.2327C6.77668 9.75005 6.77668 9.24992 6.66998 8.76727L10.273 6.51538C10.8497 6.97511 11.5802 7.25 12.375 7.25C14.2389 7.25 15.75 5.73895 15.75 3.875C15.75 2.01105 14.2389 0.5 12.375 0.5C10.5111 0.5 9 2.01105 9 3.875C9 4.12665 9.02777 4.37176 9.08002 4.60769L5.47699 6.85959C4.90032 6.39989 4.16981 6.125 3.375 6.125C1.51105 6.125 0 7.63605 0 9.5C0 11.3639 1.51105 12.875 3.375 12.875C4.16981 12.875 4.90032 12.6001 5.47699 12.1404L9.08002 14.3923C9.02676 14.6329 8.99993 14.8786 9 15.125C9 16.9889 10.5111 18.5 12.375 18.5C14.2389 18.5 15.75 16.9889 15.75 15.125C15.75 13.2611 14.2389 11.75 12.375 11.75Z" />
</g>
</svg>
