<svg width="14" height="15" viewBox="0 0 14 15" fill="none" xmlns="http://www.w3.org/2000/svg">
<g fill="#f9c062">
<path fill-rule="evenodd" clip-rule="evenodd" d="M14 2.5C14 3.88071 12.8807 5 11.5 5C10.1193 5 9 3.88071 9 2.5C9 1.11929 10.1193 0 11.5 0C12.8807 0 14 1.11929 14 2.5ZM4.50018 14C4.04408 14.6072 3.31791 15 2.5 15C1.11929 15 0 13.8807 0 12.5C0 11.4748 0.617048 10.5938 1.5 10.208V4.79198C0.617048 4.4062 0 3.52516 0 2.5C0 1.11929 1.11929 0 2.5 0C3.88071 0 5 1.11929 5 2.5C5 3.52516 4.38295 4.4062 3.5 4.79198V10.208C4.23547 10.5294 4.78645 11.1943 4.94999 12H9.05001C9.28164 10.8589 10.2905 10 11.5 10C12.8807 10 14 11.1193 14 12.5C14 13.8807 12.8807 15 11.5 15C10.6821 15 9.95592 14.6072 9.49982 14H4.50018Z"/>
</g>
</svg>
