<svg width="17" height="17" viewBox="0 0 17 17" fill="none" xmlns="http://www.w3.org/2000/svg">
<g id="object-intersect 2" fill="#ffffff">
<path id="Vector" d="M0 9.5625V2.125C0 0.95127 0.95127 0 2.125 0H9.5625C10.7346 0 11.6875 0.95127 11.6875 2.125V5.3125H14.875C16.0471 5.3125 17 6.26543 17 7.4375V14.875C17 16.0471 16.0471 17 14.875 17H7.4375C6.26543 17 5.3125 16.0471 5.3125 14.875V11.6875H2.125C0.95127 11.6875 0 10.7346 0 9.5625ZM9.5625 2.125H2.125V9.5625H5.3125V7.4375C5.3125 6.26543 6.26543 5.3125 7.4375 5.3125H9.5625V2.125ZM14.875 7.4375H11.6875V9.5625C11.6875 10.7346 10.7346 11.6875 9.5625 11.6875H7.4375V14.875H14.875V7.4375Z"/>
</g>
</svg>
