<svg width="17" height="17" viewBox="0 0 17 17" fill="none" xmlns="http://www.w3.org/2000/svg">
<g id="send-backward 1"  fill="#ffffff">
<path id="Vector" d="M9.5625 0C10.7346 0 11.6875 0.95127 11.6875 2.125V4.25H7.4375C5.64785 4.25 4.25 5.64785 4.25 7.4375V11.6875H2.125C0.95127 11.6875 0 10.7346 0 9.5625V2.125C0 0.95127 0.95127 0 2.125 0H9.5625ZM5.3125 7.4375C5.3125 6.26543 6.26543 5.3125 7.4375 5.3125H14.875C16.0471 5.3125 17 6.26543 17 7.4375V14.875C17 16.0471 16.0471 17 14.875 17H7.4375C6.26543 17 5.3125 16.0471 5.3125 14.875V7.4375ZM6.90625 7.4375V14.875C6.90625 15.1672 7.14531 15.4062 7.4375 15.4062H14.875C15.1672 15.4062 15.4062 15.1672 15.4062 14.875V7.4375C15.4062 7.14531 15.1672 6.90625 14.875 6.90625H7.4375C7.14531 6.90625 6.90625 7.14531 6.90625 7.4375Z"/>
</g>
</svg>
