<svg width="22" height="17" viewBox="0 0 22 17" fill="none" xmlns="http://www.w3.org/2000/svg">
<g id="send-back 1" clip-path="url(#clip0_31_18411)" fill="#ffffff">
<path id="Vector" d="M6.625 0C7.79707 0 8.75 0.95127 8.75 2.125V6.375C8.75 7.54707 7.79707 8.5 6.625 8.5H2.375C1.20127 8.5 0.25 7.54707 0.25 6.375V2.125C0.25 0.95127 1.20127 0 2.375 0H6.625ZM6.625 2.125H2.375V6.375H6.625V2.125ZM19.375 8.5C20.5471 8.5 21.5 9.45293 21.5 10.625V14.875C21.5 16.0471 20.5471 17 19.375 17H15.125C13.9529 17 13 16.0471 13 14.875V10.625C13 9.45293 13.9529 8.5 15.125 8.5H19.375ZM19.375 10.625H15.125V14.875H19.375V10.625ZM6.625 9.5625C8.38477 9.5625 9.8125 8.13477 9.8125 6.375V3.1875H14.0625C15.2346 3.1875 16.1875 4.14043 16.1875 5.3125V7.4375H15.125C13.3354 7.4375 11.9375 8.83535 11.9375 10.625V13.8125H7.6875C6.51543 13.8125 5.5625 12.8596 5.5625 11.6875V9.5625H6.625Z"/>
</g>
<defs>
<clipPath id="clip0_31_18411">
<rect width="21.25" height="17" fill="white" transform="translate(0.25)"/>
</clipPath>
</defs>
</svg>
