<svg width="17" height="19" viewBox="0 0 17 19" fill="none" xmlns="http://www.w3.org/2000/svg">
<g id="draw-square 1" clip-path="url(#clip0_41_18873)" fill="#f2f2f2">
<path id="Vector" d="M14.8438 13.1464V5.85363C15.8665 5.58867 16.625 4.66799 16.625 3.5625C16.625 2.25068 15.5618 1.1875 14.25 1.1875C13.1445 1.1875 12.2238 1.94639 11.9589 2.96875H4.66614C4.40118 1.94639 3.48049 1.1875 2.375 1.1875C1.06319 1.1875 0 2.25068 0 3.5625C0 4.66799 0.758517 5.58867 1.78125 5.85363V13.1467C0.758517 13.4113 0 14.332 0 15.4375C0 16.7493 1.06319 17.8125 2.375 17.8125C3.48049 17.8125 4.40118 17.054 4.66614 16.0312H11.9593C12.2242 17.054 13.1449 17.8125 14.2504 17.8125C15.5622 17.8125 16.6254 16.7493 16.6254 15.4375C16.625 14.332 15.8665 13.4113 14.8438 13.1464ZM11.9589 14.8438H4.66614C4.45091 14.0121 3.80075 13.362 2.96876 13.1464V5.85363C3.80038 5.6384 4.45053 4.98824 4.66614 4.15625H11.9593C12.1745 4.98787 12.8247 5.63803 13.6566 5.85363V13.1467C12.8247 13.362 12.1745 14.0121 11.9589 14.8438ZM14.25 2.375C14.9046 2.375 15.4375 2.90789 15.4375 3.5625C15.4375 4.21711 14.9046 4.75 14.25 4.75C13.5954 4.75 13.0625 4.21711 13.0625 3.5625C13.0625 2.90789 13.5954 2.375 14.25 2.375ZM1.1875 3.5625C1.1875 2.90789 1.72039 2.375 2.375 2.375C3.02961 2.375 3.56251 2.90789 3.56251 3.5625C3.56251 4.21711 3.02961 4.75 2.375 4.75C1.72039 4.75 1.1875 4.21711 1.1875 3.5625ZM2.375 16.625C1.72039 16.625 1.1875 16.0921 1.1875 15.4375C1.1875 14.7829 1.72039 14.25 2.375 14.25C3.02961 14.25 3.56251 14.7829 3.56251 15.4375C3.56251 16.0921 3.02961 16.625 2.375 16.625ZM14.25 16.625C13.5954 16.625 13.0625 16.0921 13.0625 15.4375C13.0625 14.7829 13.5954 14.25 14.25 14.25C14.9046 14.25 15.4375 14.7829 15.4375 15.4375C15.4375 16.0921 14.9046 16.625 14.25 16.625Z"/>
</g>
<defs>
<clipPath id="clip0_41_18873">
<rect width="16.625" height="19" fill="#f2f2f2"/>
</clipPath>
</defs>
</svg>
