<?xml version="1.0" encoding="UTF-8"?>
<svg width="19px" height="19px" viewBox="0 0 19 19" version="1.1" xmlns="http://www.w3.org/2000/svg" xmlns:xlink="http://www.w3.org/1999/xlink">
    <title>3D</title>
    <g id="Symbols" stroke="none" stroke-width="1" fill="none" fill-rule="evenodd">
        <g id="3D" fill="#FFFFFF" fill-rule="nonzero">
            <path d="M8.87285156,0.122460937 L1.15410156,3.01699219 C0.46015625,3.27675781 -2.63677968e-16,3.94472656 -2.63677968e-16,4.68691406 L-2.63677968e-16,13.0402344 C-2.63677968e-16,13.715625 0.382226562,14.3316406 0.983398437,14.6322266 L8.70214844,18.4916016 C9.203125,18.7439453 9.79316406,18.7439453 10.2941406,18.4916016 L18.0128906,14.6322266 C18.6177734,14.3316406 18.9962891,13.7119141 18.9962891,13.0402344 L18.9962891,4.68691406 C18.9962891,3.94472656 18.5361328,3.28046875 17.8421875,3.02070312 L10.1234375,0.126171875 C9.72265625,-0.0296875 9.27734375,-0.0296875 8.87285156,0.122460937 Z M9.5,2.42695312 L16.625,5.09882812 L16.625,5.13964844 L9.5,8.03417969 L2.375,5.13964844 L2.375,5.09882812 L9.5,2.42695312 Z M10.6875,15.6378906 L10.6875,10.1123047 L16.625,7.70019531 L16.625,12.6691406 L10.6875,15.6378906 Z" id="Shape"></path>
        </g>
    </g>
</svg>