<?xml version="1.0" encoding="UTF-8"?>
<svg width="22px" height="22px" viewBox="0 0 22 22" version="1.1" xmlns="http://www.w3.org/2000/svg" xmlns:xlink="http://www.w3.org/1999/xlink">
    <!-- Generator: Sketch 62 (91390) - https://sketch.com -->
    <title>3d_solid</title>
    <desc>Created with Sketch.</desc>
    <g id="Icons" stroke="none" stroke-width="1" fill="none" fill-rule="evenodd">
        <g id="3d_solid">
            <circle id="3D-Toggle-Copy" fill="#CBCBCB" cx="11" cy="11" r="11"></circle>
            <path d="M6.09403411,15.835235 C7.03072316,15.835235 7.79998999,15.5846488 8.40183459,15.0834764 C9.00367919,14.582304 9.30460149,13.8940126 9.30460149,13.0186023 C9.30460149,12.5152413 9.17657273,12.0665936 8.92051521,11.6726589 C8.66445769,11.2787243 8.26505173,10.9854618 7.72229732,10.7928715 C8.18188775,10.5827731 8.53642893,10.2873221 8.78592087,9.90651857 C9.03541282,9.52571508 9.16015879,9.13178044 9.16015879,8.72471464 C9.16015879,7.85368136 8.88221601,7.18180394 8.32633045,6.70908236 C7.77044489,6.23636079 7.02634611,6 6.09403411,6 C5.20986967,6 4.48218484,6.24839768 3.91097959,6.74519304 C3.33977435,7.2419884 3.06730289,7.85586989 3.0935652,8.58683751 L3.0935652,8.58683751 L3.10669635,8.62623097 L4.64304148,8.62623097 C4.64304148,8.22354223 4.77982435,7.89854614 5.05339008,7.65124273 C5.3269558,7.40393931 5.68040273,7.2802876 6.11373084,7.2802876 C6.59082947,7.2802876 6.95193623,7.40612783 7.19705112,7.6578083 C7.44216602,7.90948877 7.56472346,8.26512422 7.56472346,8.72471464 C7.56472346,9.19305916 7.45092012,9.55526018 7.22331343,9.8113177 C6.99570675,10.0673752 6.62365736,10.195404 6.10716526,10.195404 L6.10716526,10.195404 L4.99758267,10.195404 L4.99758267,11.4494293 L6.10716526,11.4494293 C6.65429672,11.4494293 7.05807973,11.577458 7.31851431,11.8335156 C7.57894888,12.0895731 7.70916617,12.4867905 7.70916617,13.0251679 C7.70916617,13.5153976 7.56691199,13.8940126 7.28240363,14.1610128 C6.99789527,14.4280129 6.60833768,14.561513 6.11373084,14.561513 C5.64100926,14.561513 5.26239429,14.4302014 4.97788593,14.1675783 C4.69337758,13.9049552 4.5511234,13.5613567 4.5511234,13.1367827 L4.5511234,13.1367827 L3.01477827,13.1367827 L3.00164711,13.1761761 C2.9753848,14.0078159 3.26317595,14.6589024 3.86502055,15.1294354 C4.46686515,15.5999685 5.20986967,15.835235 6.09403411,15.835235 Z M14.5050829,15.6973579 C15.7175262,15.6973579 16.7034571,15.3209314 17.4628755,14.5680786 C18.222294,13.8152257 18.6020032,12.8413317 18.6020032,11.6463966 L18.6020032,11.6463966 L18.6020032,10.195404 C18.6020032,9.00484594 18.222294,8.03095195 17.4628755,7.27372202 C16.7034571,6.51649209 15.7175262,6.13787713 14.5050829,6.13787713 L14.5050829,6.13787713 L11.4061303,6.13787713 L11.4061303,15.6973579 L14.5050829,15.6973579 Z M14.4591238,14.4236359 L13.0015656,14.4236359 L13.0015656,7.41816473 L14.4591238,7.41816473 C15.2513702,7.41816473 15.8740058,7.67641077 16.3270306,8.19290286 C16.7800555,8.70939496 17.0065679,9.37251828 17.0065679,10.1822728 L17.0065679,10.1822728 L17.0065679,11.6463966 C17.0065679,12.4649052 16.7800555,13.1324056 16.3270306,13.6488977 C15.8740058,14.1653898 15.2513702,14.4236359 14.4591238,14.4236359 L14.4591238,14.4236359 Z" id="3D-Copy-2" fill="#2E3139"></path>
        </g>
    </g>
</svg>