<?xml version="1.0" encoding="UTF-8"?>
<svg width="512px" height="512px" viewBox="0 0 512 512" version="1.1" xmlns="http://www.w3.org/2000/svg" xmlns:xlink="http://www.w3.org/1999/xlink">
    <!-- Generator: Sketch 55.2 (78181) - https://sketchapp.com -->
    <title>arrows-alt</title>
    <desc>Created with Sketch.</desc>
    <g id="Page-1" stroke="none" stroke-width="1" fill="none" fill-rule="evenodd">
        <g id="arrows-alt" fill="#878787" fill-rule="nonzero">
            <path d="M276,236.075 L391.85,236.075 L391.85,159.925 C391.85,149.234 404.776,143.88 412.335,151.44 L508.484,247.589 C513.17,252.275 513.17,259.873 508.484,264.56 L412.335,360.709 C404.775,368.269 391.85,362.915 391.85,352.224 L391.85,276.075 L275.999,276.075 L275.999,391.851 L352.149,391.851 C362.84,391.851 368.194,404.777 360.634,412.336 L264.485,508.486 C259.799,513.172 252.201,513.172 247.514,508.486 L151.365,412.337 C143.805,404.777 149.159,391.852 159.85,391.852 L236,391.852 L236,276.075 L120.149,276.075 L120.149,352.224 C120.149,362.915 107.223,368.269 99.664,360.709 L3.515,264.56 C-1.171,259.874 -1.171,252.276 3.515,247.589 L99.664,151.44 C107.224,143.88 120.149,149.234 120.149,159.925 L120.149,236.075 L236,236.075 L236,120.15 L159.851,120.15 C149.16,120.15 143.806,107.224 151.366,99.665 L247.515,3.516 C252.201,-1.17 259.799,-1.17 264.486,3.516 L360.635,99.665 C368.195,107.225 362.841,120.15 352.15,120.15 L276,120.15 L276,236.075 Z" id="Path"></path>
        </g>
    </g>
</svg>