<?xml version="1.0" encoding="UTF-8"?>
<svg width="18px" height="18px" viewBox="0 0 18 18" version="1.1" xmlns="http://www.w3.org/2000/svg" xmlns:xlink="http://www.w3.org/1999/xlink">
    <!-- Generator: Sketch 62 (91390) - https://sketch.com -->
    <title>backwards_hoverselect copy</title>
    <desc>Created with Sketch.</desc>
    <g id="Icons" stroke="none" stroke-width="1" fill="none" fill-rule="evenodd">
        <g id="backwards_hoverselect-copy" transform="translate(9.000000, 9.000000) scale(-1, 1) translate(-9.000000, -9.000000) " fill="#FFFFFF" fill-rule="nonzero">
            <path d="M7.63697105,1.1986637 L8.52694878,0.308685969 C8.90378619,-0.0681514477 9.51314031,-0.0681514477 9.88596882,0.308685969 L17.6792873,8.09799555 C18.0561247,8.47483296 18.0561247,9.08418708 17.6792873,9.45701559 L9.88596882,17.2503341 C9.5091314,17.6271715 8.89977728,17.6271715 8.52694878,17.2503341 L7.63697105,16.3603563 C7.25612472,15.97951 7.26414254,15.3581292 7.65300668,14.9853007 L12.4837416,10.3830735 L0.962138085,10.3830735 C0.428953229,10.3830735 0,9.95412027 0,9.42093541 L0,8.13808463 C0,7.60489978 0.428953229,7.17594655 0.962138085,7.17594655 L12.4837416,7.17594655 L7.65300668,2.57371938 C7.26013363,2.20089087 7.25211581,1.57951002 7.63697105,1.1986637 Z" id="Path"></path>
        </g>
    </g>
</svg>