<?xml version="1.0" encoding="UTF-8"?>
<svg width="18px" height="18px" viewBox="0 0 18 18" version="1.1" xmlns="http://www.w3.org/2000/svg" xmlns:xlink="http://www.w3.org/1999/xlink">
    <!-- Generator: Sketch 62 (91390) - https://sketch.com -->
    <title>backwards_unselected copy</title>
    <desc>Created with Sketch.</desc>
    <g id="Icons" stroke="none" stroke-width="1" fill="none" fill-rule="evenodd">
        <g id="backwards_unselected-copy" transform="translate(9.000000, 9.000000) scale(-1, 1) translate(-9.000000, -9.000000) " fill="#FFFFFF" fill-rule="nonzero">
            <path d="M8.69721429,0.179397321 L8.41311161,0.463459821 C8.22483482,0.651736607 8.22483482,0.957013393 8.41311161,1.14533036 L15.5847455,8.31696429 L0.482142857,8.31696429 C0.215879464,8.31696429 0,8.53284375 0,8.79910714 L0,9.20089286 C0,9.46715625 0.215879464,9.68303571 0.482142857,9.68303571 L15.5847455,9.68303571 L8.41311161,16.8546696 C8.22483482,17.0429464 8.22483482,17.3482232 8.41311161,17.5365402 L8.69721429,17.8206027 C8.88549107,18.0088795 9.19076786,18.0088795 9.37904464,17.8206027 L17.8587723,9.34091518 C18.0470491,9.15263839 18.0470491,8.84736161 17.8587723,8.65904464 L9.37904464,0.179397321 C9.19076786,-0.00891964286 8.88549107,-0.00891964286 8.69721429,0.179397321 Z" id="Path"></path>
        </g>
    </g>
</svg>