<?xml version="1.0" encoding="UTF-8"?>
<svg width="448px" height="512px" viewBox="0 0 448 512" version="1.1" xmlns="http://www.w3.org/2000/svg" xmlns:xlink="http://www.w3.org/1999/xlink">
    <!-- Generator: Sketch 55.2 (78181) - https://sketchapp.com -->
    <title>atlas</title>
    <desc>Created with Sketch.</desc>
    <g id="Page-1" stroke="none" stroke-width="1" fill="none" fill-rule="evenodd">
        <g id="atlas" fill="#878787" fill-rule="nonzero">
            <path d="M318.38,208 L279.29,208 C277.8,235.03 272.75,259.35 265.08,278.41 C292.79,265.17 313.1,239.22 318.38,208 L318.38,208 Z M318.38,176 C313.09,144.78 292.79,118.83 265.08,105.59 C272.76,124.65 277.8,148.97 279.29,176 L318.38,176 Z M224,97.31 C216.31,104.76 203.23,131.73 200.57,176 L247.44,176 C244.77,131.74 231.69,104.76 224,97.31 Z M182.92,105.59 C155.21,118.83 134.9,144.78 129.62,176 L168.71,176 C170.2,148.97 175.24,124.65 182.92,105.59 Z M182.92,278.41 C175.24,259.35 170.2,235.03 168.71,208 L129.62,208 C134.9,239.22 155.21,265.17 182.92,278.41 Z M247.43,208 L200.56,208 C203.22,252.26 216.3,279.24 223.99,286.69 C231.69,279.24 244.77,252.26 247.43,208 Z M448,358.4 L448,25.6 C448,9.6 438.4,0 422.4,0 L96,0 C41.6,0 0,41.6 0,96 L0,416 C0,470.4 41.6,512 96,512 L422.4,512 C435.2,512 448,502.4 448,486.4 L448,470.4 C448,464 444.8,457.6 438.4,451.2 C435.2,435.2 435.2,390.4 438.4,377.6 C444.8,374.4 448,368 448,358.4 Z M224,64 C294.69,64 352,121.31 352,192 C352,262.69 294.69,320 224,320 C153.31,320 96,262.69 96,192 C96,121.31 153.31,64 224,64 Z M384,448 L96,448 C76.8,448 64,435.2 64,416 C64,396.8 80,384 96,384 L384,384 L384,448 Z" id="Shape"></path>
        </g>
    </g>
</svg>