<?xml version="1.0" encoding="UTF-8"?>
<svg width="384px" height="512px" viewBox="0 0 384 512" version="1.1" xmlns="http://www.w3.org/2000/svg" xmlns:xlink="http://www.w3.org/1999/xlink">
    <!-- Generator: Sketch 55.2 (78181) - https://sketchapp.com -->
    <title>brush</title>
    <desc>Created with Sketch.</desc>
    <g id="Page-1" stroke="none" stroke-width="1" fill="none" fill-rule="evenodd">
        <g id="brush" fill="#878787" fill-rule="nonzero">
            <path d="M352,0 L32,0 C14.33,0 0,14.33 0,32 L0,256 L384,256 L384,32 C384,14.33 369.67,0 352,0 Z M0,320 C0,355.35 28.66,384 64,384 L128,384 L128,448 C128,483.35 156.66,512 192,512 C227.34,512 256,483.35 256,448 L256,384 L320,384 C355.34,384 384,355.35 384,320 L384,288 L0,288 L0,320 Z M192,424 C205.25,424 216,434.74 216,448 C216,461.25 205.25,472 192,472 C178.75,472 168,461.25 168,448 C168,434.74 178.75,424 192,424 Z" id="Shape"></path>
        </g>
    </g>
</svg>