<?xml version="1.0" encoding="UTF-8"?>
<svg width="14px" height="14px" viewBox="0 0 14 14" version="1.1" xmlns="http://www.w3.org/2000/svg" xmlns:xlink="http://www.w3.org/1999/xlink">
    <title>Center Projection</title>
    <g id="Symbols" stroke="none" stroke-width="1" fill="none" fill-rule="evenodd">
        <g id="UI/Standard-UI-(Chart-Tool)" transform="translate(-350.000000, -900.000000)" fill="#FFFFFF" fill-rule="nonzero">
            <g id="Center-Projection" transform="translate(350.000000, 900.000000)">
                <path d="M13.5,0 L0.5,0 C0.223857625,0 0,0.223857625 0,0.5 L0,13.5 C0,13.7761424 0.223857625,14 0.5,14 L13.5,14 C13.7761424,14 14,13.7761424 14,13.5 L14,0.5 C14,0.223857625 13.7761424,0 13.5,0 Z M1,1 L6.5,1 L6.5,6.5 L1,6.5 L1,1 Z M1,13 L1,7.5 L6.5,7.5 L6.5,13 L1,13 Z M13,13 L7.5,13 L7.5,7.5 L13,7.5 L13,13 Z M13,6.5 L7.5,6.5 L7.5,1 L13,1 L13,6.5 Z" id="Shape"></path>
            </g>
        </g>
    </g>
</svg>