<?xml version="1.0" encoding="UTF-8"?>
<svg width="19px" height="15px" viewBox="0 0 19 15" version="1.1" xmlns="http://www.w3.org/2000/svg" xmlns:xlink="http://www.w3.org/1999/xlink">
    <title>Charts</title>
    <g id="Symbols" stroke="none" stroke-width="1" fill="none" fill-rule="evenodd">
        <g id="Charts" fill="#FFFFFF" fill-rule="nonzero">
            <path d="M18.5546875,11.875 C18.7996094,11.875 19,12.0753906 19,12.3203125 L19,13.8046875 C19,14.0496094 18.7996094,14.25 18.5546875,14.25 L0.4453125,14.25 C0.200390625,14.25 0,14.0496094 0,13.8046875 L0,0.4453125 C0,0.200390625 0.200390625,0 0.4453125,0 L1.9296875,0 C2.17460938,0 2.375,0.200390625 2.375,0.4453125 L2.375,11.875 L18.5546875,11.875 Z M13.8306641,3.54394531 L10.6875,5.640625 L7.52207031,1.42128906 C7.3328125,1.16894531 6.946875,1.1875 6.78359375,1.45839844 L3.5625,6.828125 L3.5625,10.6875 L17.8125,10.6875 L14.4763672,3.71835937 C14.3576172,3.47714844 14.0533203,3.39550781 13.8306641,3.54394531 Z" id="Shape"></path>
        </g>
    </g>
</svg>