<?xml version="1.0" encoding="UTF-8"?>
<svg width="15px" height="16px" viewBox="0 0 15 16" version="1.1" xmlns="http://www.w3.org/2000/svg" xmlns:xlink="http://www.w3.org/1999/xlink">
    <!-- Generator: Sketch 55.2 (78181) - https://sketchapp.com -->
    <title>checked_white</title>
    <desc>Created with Sketch.</desc>
    <g id="Page-1" stroke="none" stroke-width="1" fill="none" fill-rule="evenodd">
        <g id="checked_white" fill="#7A7A7A" fill-rule="nonzero">
            <path d="M13.3928571,15.46875 L1.60714286,15.46875 C0.71953125,15.46875 0,14.7492188 0,13.8616071 L0,2.07589286 C0,1.18828125 0.71953125,0.46875 1.60714286,0.46875 L13.3928571,0.46875 C14.2804688,0.46875 15,1.18828125 15,2.07589286 L15,13.8616071 C15,14.7492188 14.2804688,15.46875 13.3928571,15.46875 Z M6.53953125,12.1855246 L12.7002455,6.02481027 C12.909442,5.81561384 12.909442,5.47640625 12.7002455,5.26720982 L11.9426451,4.50960938 C11.7334487,4.30041295 11.3942411,4.30037946 11.1850112,4.50960938 L6.16071429,9.53387277 L3.81498884,7.18814732 C3.60579241,6.97895089 3.26658482,6.97895089 3.05735491,7.18814732 L2.29975446,7.94574777 C2.09055804,8.1549442 2.09055804,8.49415179 2.29975446,8.70334821 L5.78189732,12.1854911 C5.99112723,12.3947545 6.33030134,12.3947545 6.53953125,12.1855246 L6.53953125,12.1855246 Z" id="Shape"></path>
        </g>
    </g>
</svg>