<?xml version="1.0" encoding="UTF-8"?>
<svg width="11px" height="11px" viewBox="0 0 11 11" version="1.1" xmlns="http://www.w3.org/2000/svg" xmlns:xlink="http://www.w3.org/1999/xlink">
    <!-- Generator: Sketch 61.2 (89653) - https://sketch.com -->
    <title>Path</title>
    <desc>Created with Sketch.</desc>
    <g id="Page-1" stroke="none" stroke-width="1" fill="none" fill-rule="evenodd">
        <g id="times" fill="#94F1DE" fill-rule="nonzero">
            <path d="M6.6666875,5.5 L10.1921875,1.9745 L10.9192188,1.24746875 C11.0264688,1.14021875 11.0264688,0.9659375 10.9192188,0.8586875 L10.1413125,0.08078125 C10.0340625,-0.02646875 9.85978125,-0.02646875 9.75253125,0.08078125 L5.5,4.3333125 L1.24746875,0.0804375 C1.14021875,-0.0268125 0.9659375,-0.0268125 0.8586875,0.0804375 L0.0804375,0.85834375 C-0.0268125,0.96559375 -0.0268125,1.139875 0.0804375,1.247125 L4.3333125,5.5 L0.0804375,9.75253125 C-0.0268125,9.85978125 -0.0268125,10.0340625 0.0804375,10.1413125 L0.85834375,10.9192188 C0.96559375,11.0264688 1.139875,11.0264688 1.247125,10.9192188 L5.5,6.6666875 L9.0255,10.1921875 L9.75253125,10.9192188 C9.85978125,11.0264688 10.0340625,11.0264688 10.1413125,10.9192188 L10.9192188,10.1413125 C11.0264688,10.0340625 11.0264688,9.85978125 10.9192188,9.75253125 L6.6666875,5.5 Z" id="Path"></path>
        </g>
    </g>
</svg>