<?xml version="1.0" encoding="UTF-8"?>
<svg width="16px" height="16px" viewBox="0 0 16 16" version="1.1" xmlns="http://www.w3.org/2000/svg" xmlns:xlink="http://www.w3.org/1999/xlink">
    <!-- Generator: Sketch 60 (88103) - https://sketch.com -->
    <title>times-circle</title>
    <desc>Created with Sketch.</desc>
    <g id="Dock-Me-&amp;-Info" stroke="none" stroke-width="1" fill="none" fill-rule="evenodd">
        <g id="Info-panel-opened" transform="translate(-967.000000, -267.000000)" fill="#F9C062" fill-rule="nonzero">
            <g id="times-circle" transform="translate(967.000000, 267.000000)">
                <path d="M8,0 C3.58064516,0 0,3.58064516 0,8 C0,12.4193548 3.58064516,16 8,16 C12.4193548,16 16,12.4193548 16,8 C16,3.58064516 12.4193548,0 8,0 Z M11.9225806,10.1 C12.0741935,10.2516129 12.0741935,10.4967742 11.9225806,10.6483871 L10.6451613,11.9225806 C10.4935484,12.0741935 10.2483871,12.0741935 10.0967742,11.9225806 L8,9.80645161 L5.9,11.9225806 C5.7483871,12.0741935 5.50322581,12.0741935 5.3516129,11.9225806 L4.07741935,10.6451613 C3.92580645,10.4935484 3.92580645,10.2483871 4.07741935,10.0967742 L6.19354839,8 L4.07741935,5.9 C3.92580645,5.7483871 3.92580645,5.50322581 4.07741935,5.3516129 L5.35483871,4.07419355 C5.50645161,3.92258065 5.7516129,3.92258065 5.90322581,4.07419355 L8,6.19354839 L10.1,4.07741935 C10.2516129,3.92580645 10.4967742,3.92580645 10.6483871,4.07741935 L11.9258065,5.35483871 C12.0774194,5.50645161 12.0774194,5.7516129 11.9258065,5.90322581 L9.80645161,8 L11.9225806,10.1 Z" id="Shape"></path>
            </g>
        </g>
    </g>
</svg>