<?xml version="1.0" encoding="UTF-8"?>
<svg width="16px" height="16px" viewBox="0 0 16 16" version="1.1" xmlns="http://www.w3.org/2000/svg" xmlns:xlink="http://www.w3.org/1999/xlink">
    <!-- Generator: Sketch 64 (93537) - https://sketch.com -->
    <title>Shape</title>
    <desc>Created with Sketch.</desc>
    <g id="Icons" stroke="none" stroke-width="1" fill="none" fill-rule="evenodd">
        <g id="palette" fill="#FFFFFF" fill-rule="nonzero">
            <path d="M6.38414573,0.157347683 C3.27782167,0.763607313 0.774636988,3.26052197 0.162122384,6.35744616 C-0.994155185,12.201289 4.27784551,16.5576082 8.24981522,15.9419734 C9.53734591,15.7419702 10.168611,14.2356963 9.57797188,13.0763029 C8.85607967,11.6575303 9.88735426,10.001254 11.4811423,10.001254 L13.9718266,10.001254 C15.0906033,10.001254 15.9968749,9.07623934 16,7.96059662 C15.9843746,3.0355184 11.5030178,-0.83954315 6.38414573,0.157347683 Z M2.99969004,10.001254 C2.44655185,10.001254 1.9996662,9.55437194 1.9996662,9.00123815 C1.9996662,8.44810437 2.44655185,8.00122227 2.99969004,8.00122227 C3.55282823,8.00122227 3.99971388,8.44810437 3.99971388,9.00123815 C3.99971388,9.55437194 3.55282823,10.001254 2.99969004,10.001254 Z M3.99971388,6.0011905 C3.44657569,6.0011905 2.99969004,5.5543084 2.99969004,5.00117462 C2.99969004,4.44804083 3.44657569,4.00115874 3.99971388,4.00115874 C4.55285207,4.00115874 4.99973773,4.44804083 4.99973773,5.00117462 C4.99973773,5.5543084 4.55285207,6.0011905 3.99971388,6.0011905 Z M7.99980925,4.00115874 C7.44667107,4.00115874 6.99978541,3.55427664 6.99978541,3.00114285 C6.99978541,2.44800907 7.44667107,2.00112697 7.99980925,2.00112697 C8.55294744,2.00112697 8.9998331,2.44800907 8.9998331,3.00114285 C8.9998331,3.55427664 8.55294744,4.00115874 7.99980925,4.00115874 Z M11.9999046,6.0011905 C11.4467664,6.0011905 10.9998808,5.5543084 10.9998808,5.00117462 C10.9998808,4.44804083 11.4467664,4.00115874 11.9999046,4.00115874 C12.5530428,4.00115874 12.9999285,4.44804083 12.9999285,5.00117462 C12.9999285,5.5543084 12.5530428,6.0011905 11.9999046,6.0011905 Z" id="Shape"></path>
        </g>
    </g>
</svg>