<?xml version="1.0" encoding="UTF-8"?>
<svg width="17px" height="17px" viewBox="0 0 17 17" version="1.1" xmlns="http://www.w3.org/2000/svg" xmlns:xlink="http://www.w3.org/1999/xlink">
    <title>Group 13</title>
    <g id="Symbols" stroke="none" stroke-width="1" fill="none" fill-rule="evenodd">
        <g id="Group-13" fill="#FFFFFF" fill-rule="nonzero">
            <path d="M5.54500907,0.820279602 L6.48736139,0.88310815 L6.46145447,1.25456393 L6.40525128,1.96015935 L6.34311751,2.61616977 L6.27495941,3.22279903 C6.1325564,4.38681225 5.95344501,5.25576141 5.73425061,5.83698428 C5.533352,6.36969345 5.30168242,6.87000297 5.02965938,7.37652971 L4.77067443,7.83431906 L3.96937358,9.19089738 C3.69466222,9.68847618 3.59436889,10.0068564 3.62593663,10.2811003 C3.6320473,10.3341866 3.64327142,10.3868797 3.6600062,10.4401411 C4.07253333,11.7530829 6.2095289,12.1754037 10.1105652,11.547868 L10.7411837,11.4400356 C11.0638286,11.3817339 11.3974811,11.3168366 11.7421608,11.2452652 C12.9051109,10.9164797 14.1390621,10.8911885 15.4382085,11.1663232 L15.76435,11.241364 L15.5368093,12.1579885 C14.2723378,11.8440991 13.095562,11.8440991 11.9667452,12.1620135 C11.7307581,12.2110726 11.4991727,12.2572425 11.2719966,12.3005036 L10.603703,12.4215406 C10.4945278,12.4402525 10.3864568,12.4582322 10.2794907,12.4754774 L9.65096271,12.5701142 C5.65182093,13.1277022 3.33627631,12.5605578 2.7589902,10.7232409 C2.72436185,10.6130299 2.70065012,10.5017122 2.68768759,10.3891006 C2.63499159,9.93130555 2.74990508,9.49706067 3.02985638,8.94657557 L3.16847534,8.68899856 L4.00745534,7.26757547 L4.19760868,6.92968862 C4.45084593,6.4581424 4.66519519,5.99523755 4.85055899,5.50372097 C4.99497522,5.12078229 5.12392509,4.56677212 5.23598492,3.8447861 L5.30817362,3.33861074 L5.37526413,2.78286859 L5.4371627,2.17776346 C5.44704126,2.07281035 5.45669958,1.96580894 5.46613571,1.85676348 L5.52007062,1.17799607 L5.54500907,0.820279602 Z" id="Path-2-Copy"></path>
            <path d="M8.5,0 C3.80557963,0 0,3.80557963 0,8.5 C0,13.1944204 3.80557963,17 8.5,17 C13.1944204,17 17,13.1944204 17,8.5 C17,3.80557963 13.1944204,0 8.5,0 Z M8.5,0.944444444 C12.6728181,0.944444444 16.0555556,4.32718189 16.0555556,8.5 C16.0555556,12.6728181 12.6728181,16.0555556 8.5,16.0555556 C4.32718189,16.0555556 0.944444444,12.6728181 0.944444444,8.5 C0.944444444,4.32718189 4.32718189,0.944444444 8.5,0.944444444 Z" id="Rectangle"></path>
            <path d="M8.78897023,0.437296022 L9.73082794,0.507148423 L9.67927724,1.15003321 L9.62376644,1.74090215 L9.56415733,2.28010405 L9.50031174,2.76798771 C9.48931009,2.84504451 9.47812617,2.91997759 9.46675708,2.9927942 L9.39629765,3.40435451 L9.32125624,3.76546858 C9.26967061,3.9894734 9.2149382,4.18007993 9.15687477,4.33775324 L8.9565774,4.88911759 L8.77695011,5.3999016 L8.61792473,5.87126597 L8.47943308,6.3043714 L8.36140698,6.7003786 C8.3254683,6.82632693 8.29292919,6.94628567 8.26377827,7.06044827 L8.18647877,7.38574112 C8.06335646,7.95094189 8.04238355,8.34666139 8.12166962,8.60508493 C8.30697932,9.20907994 8.94350686,9.41700052 10.0285288,9.23217589 C10.9858651,9.06910149 12.1694813,8.59275718 13.0448496,8.06460281 C13.3672142,7.87010373 13.6346702,7.66869727 13.9061057,7.42729011 L14.5506044,6.82699671 C15.0760441,6.3613867 15.5688828,6.13844757 16.3171543,6.10452445 L16.5277778,6.09991872 L16.5277778,7.04436317 C15.8985531,7.04436317 15.5836176,7.17350561 15.1769705,7.53384939 L14.5985666,8.07418693 L14.533751,8.1330073 C14.2211641,8.41101331 13.9079086,8.64690887 13.5327533,8.87325926 C12.5623773,9.45873666 11.2704378,9.97867547 10.1871228,10.1632093 C8.69234269,10.4178329 7.57828943,10.0539294 7.21876498,8.88210211 C7.06752205,8.38914374 7.10678745,7.76120034 7.33944509,6.8445191 L7.44282924,6.4620828 L7.56688291,6.04666109 C7.58928325,5.97455387 7.61254654,5.90098115 7.63667363,5.82589736 L7.87716286,5.10811461 L8.06347119,4.58061644 L8.2706131,4.01138602 C8.29492398,3.94536897 8.31883151,3.87046446 8.34231266,3.78673062 L8.41145394,3.50909928 L8.47789875,3.1788408 C8.4887405,3.1194315 8.49946414,3.05784394 8.51006679,2.99408538 L8.57220777,2.58554018 L8.6313068,2.12523984 L8.68722568,1.61353317 L8.73982622,1.05076896 C8.74830877,0.952739512 8.7566473,0.852597196 8.76483893,0.750349284 L8.78897023,0.437296022 Z" id="Path-2-Copy-2"></path>
            <path d="M11.5307284,1.28522178 L12.4729978,1.34928114 L12.4546511,1.60461122 L12.4148568,2.07213685 L12.3706448,2.48293978 C12.3163547,2.92949031 12.2523509,3.26216754 12.1762038,3.48774593 L12.0301236,3.93026729 L11.9076806,4.32287776 C11.8892355,4.38422368 11.8717695,4.44354255 11.8552796,4.50086065 L11.7680315,4.82097025 C11.6546611,5.26575157 11.6198917,5.5527283 11.6616086,5.70106089 C11.7171716,5.8986256 11.905455,5.96571915 12.3395516,5.88505209 C12.7823544,5.80276717 13.3444221,5.55600009 13.7566888,5.28464563 C13.9046239,5.18727459 14.0271931,5.08658348 14.1530501,4.96447398 L14.475598,4.63675204 C14.7680654,4.35402633 15.0591942,4.20691618 15.4741466,4.17771547 L15.6358025,4.17225763 L15.6358025,5.11670208 C15.4253361,5.11670208 15.323754,5.1486937 15.1977002,5.25578476 L15.1087778,5.33901408 L14.8107054,5.64231238 C14.6445512,5.80351916 14.4767647,5.94135643 14.2759398,6.07353963 C13.7653344,6.40962069 13.0896242,6.70628076 12.5121014,6.81360036 C11.6562969,6.97263231 10.9692899,6.72782181 10.7524358,5.95675617 C10.6451043,5.57511885 10.7001201,5.10020879 10.9201649,4.32537769 L11.043952,3.91201202 L11.1953185,3.44291928 C11.2228487,3.35977433 11.2515311,3.27406824 11.2813673,3.18568143 C11.3214374,3.06697783 11.3599505,2.8857787 11.3960213,2.64455287 L11.4380773,2.32642706 C11.4448724,2.26865662 11.4515556,2.20852462 11.4581198,2.1460508 L11.4960214,1.74326407 L11.5307284,1.28522178 Z" id="Path-2-Copy-3"></path>
        </g>
    </g>
</svg>