<?xml version="1.0" encoding="UTF-8"?>
<svg width="12px" height="11px" viewBox="0 0 12 11" version="1.1" xmlns="http://www.w3.org/2000/svg" xmlns:xlink="http://www.w3.org/1999/xlink">
    <title>th-large</title>
    <g id="Page-1" stroke="none" stroke-width="1" fill="none" fill-rule="evenodd">
        <g id="th-large" fill="#FFFFFF" fill-rule="nonzero">
            <path d="M6.9375,0 L11.4375,0 C11.7481641,0 12,0.251835937 12,0.5625 L12,4.3125 C12,4.62316406 11.7481641,4.875 11.4375,4.875 L6.9375,4.875 C6.62683594,4.875 6.375,4.62316406 6.375,4.3125 L6.375,0.5625 C6.375,0.251835937 6.62683594,0 6.9375,0 Z M5.0625,0 L0.5625,0 C0.251835937,0 0,0.251835937 0,0.5625 L0,4.3125 C0,4.62316406 0.251835937,4.875 0.5625,4.875 L5.0625,4.875 C5.37316406,4.875 5.625,4.62316406 5.625,4.3125 L5.625,0.5625 C5.625,0.251835937 5.37316406,0 5.0625,0 Z M0,6.1875 L0,9.9375 C0,10.2481641 0.251835937,10.5 0.5625,10.5 L5.0625,10.5 C5.37316406,10.5 5.625,10.2481641 5.625,9.9375 L5.625,6.1875 C5.625,5.87683594 5.37316406,5.625 5.0625,5.625 L0.5625,5.625 C0.251835937,5.625 0,5.87683594 0,6.1875 Z M6.9375,10.5 L11.4375,10.5 C11.7481641,10.5 12,10.2481641 12,9.9375 L12,6.1875 C12,5.87683594 11.7481641,5.625 11.4375,5.625 L6.9375,5.625 C6.62683594,5.625 6.375,5.87683594 6.375,6.1875 L6.375,9.9375 C6.375,10.2481641 6.62683594,10.5 6.9375,10.5 Z" id="Shape"></path>
        </g>
    </g>
</svg>