<?xml version="1.0" encoding="UTF-8"?>
<svg width="14px" height="16px" viewBox="0 0 14 16" version="1.1" xmlns="http://www.w3.org/2000/svg" xmlns:xlink="http://www.w3.org/1999/xlink">
    <title>paste</title>
    <g id="Page-1" stroke="none" stroke-width="1" fill="none" fill-rule="evenodd">
        <g id="paste" fill="#FFFFFF" fill-rule="nonzero">
            <path d="M4,5.75 C4,4.78503125 4.7850625,4 5.75,4 L10,4 L10,1.75 C10,1.33578125 9.66421875,1 9.25,1 L6.7309375,1 C6.3845625,0.4028125 5.73865625,0 5,0 C4.26134375,0 3.6154375,0.4028125 3.2690625,1 L0.75,1 C0.33578125,1 0,1.33578125 0,1.75 L0,12.25 C0,12.6642187 0.33578125,13 0.75,13 L4,13 L4,5.75 Z M5,1.25 C5.41421875,1.25 5.75,1.58578125 5.75,2 C5.75,2.41421875 5.41421875,2.75 5,2.75 C4.58578125,2.75 4.25,2.41421875 4.25,2 C4.25,1.58578125 4.58578125,1.25 5,1.25 Z M10.75,9 L14,9 L14,15.25 C14,15.6642187 13.6642187,16 13.25,16 L5.75,16 C5.33578125,16 5,15.6642187 5,15.25 L5,5.75 C5,5.33578125 5.33578125,5 5.75,5 L10,5 L10,8.25 C10,8.6625 10.3375,9 10.75,9 Z M14,7.81065625 L14,8 L11,8 L11,5 L11.1893438,5 C11.3882481,5 11.579006,5.07901329 11.7196562,5.21965625 L13.7803125,7.2803125 C13.9209688,7.42096914 14,7.61173799 14,7.81065625 L14,7.81065625 Z" id="Shape"></path>
        </g>
    </g>
</svg>