<?xml version="1.0" encoding="UTF-8"?>
<svg width="12px" height="12px" viewBox="0 0 12 12" version="1.1" xmlns="http://www.w3.org/2000/svg" xmlns:xlink="http://www.w3.org/1999/xlink">
    <title>crosshairs</title>
    <g id="Page-1" stroke="none" stroke-width="1" fill="none" fill-rule="evenodd">
        <g id="crosshairs" fill="#A9ACB7" fill-rule="nonzero">
            <path d="M11.71875,5.4375 L11.0312344,5.4375 C10.7718047,3.09105469 8.90894531,1.22819531 6.5625,0.968765625 L6.5625,0.28125 C6.5625,0.125929687 6.43657031,0 6.28125,0 L5.71875,0 C5.56342969,0 5.4375,0.125929687 5.4375,0.28125 L5.4375,0.968765625 C3.09105469,1.22819531 1.22819531,3.09105469 0.968765625,5.4375 L0.28125,5.4375 C0.125929687,5.4375 0,5.56342969 0,5.71875 L0,6.28125 C0,6.43657031 0.125929687,6.5625 0.28125,6.5625 L0.968765625,6.5625 C1.22819531,8.90894531 3.09105469,10.7718047 5.4375,11.0312344 L5.4375,11.71875 C5.4375,11.8740703 5.56342969,12 5.71875,12 L6.28125,12 C6.43657031,12 6.5625,11.8740703 6.5625,11.71875 L6.5625,11.0312344 C8.90894531,10.7718047 10.7718047,8.90894531 11.0312344,6.5625 L11.71875,6.5625 C11.8740703,6.5625 12,6.43657031 12,6.28125 L12,5.71875 C12,5.56342969 11.8740703,5.4375 11.71875,5.4375 Z M6.5625,9.89767969 L6.5625,8.90625 C6.5625,8.75092969 6.43657031,8.625 6.28125,8.625 L5.71875,8.625 C5.56342969,8.625 5.4375,8.75092969 5.4375,8.90625 L5.4375,9.89767969 C3.71313281,9.6525 2.34735937,8.28590625 2.10232031,6.5625 L3.09375,6.5625 C3.24907031,6.5625 3.375,6.43657031 3.375,6.28125 L3.375,5.71875 C3.375,5.56342969 3.24907031,5.4375 3.09375,5.4375 L2.10232031,5.4375 C2.3475,3.71313281 3.71409375,2.34735937 5.4375,2.10232031 L5.4375,3.09375 C5.4375,3.24907031 5.56342969,3.375 5.71875,3.375 L6.28125,3.375 C6.43657031,3.375 6.5625,3.24907031 6.5625,3.09375 L6.5625,2.10232031 C8.28686719,2.3475 9.65264063,3.71409375 9.89767969,5.4375 L8.90625,5.4375 C8.75092969,5.4375 8.625,5.56342969 8.625,5.71875 L8.625,6.28125 C8.625,6.43657031 8.75092969,6.5625 8.90625,6.5625 L9.89767969,6.5625 C9.6525,8.28686719 8.28590625,9.65264063 6.5625,9.89767969 Z M6.75,6 C6.75,6.41421094 6.41421094,6.75 6,6.75 C5.58578906,6.75 5.25,6.41421094 5.25,6 C5.25,5.58578906 5.58578906,5.25 6,5.25 C6.41421094,5.25 6.75,5.58578906 6.75,6 Z" id="Shape"></path>
        </g>
    </g>
</svg>