<?xml version="1.0" encoding="UTF-8"?>
<svg width="12px" height="12px" viewBox="0 0 12 12" version="1.1" xmlns="http://www.w3.org/2000/svg" xmlns:xlink="http://www.w3.org/1999/xlink">
    <!-- Generator: Sketch 62 (91390) - https://sketch.com -->
    <title>3d</title>
    <desc>Created with Sketch.</desc>
    <g id="Icons" stroke="none" stroke-width="1" fill="none" fill-rule="evenodd">
        <g id="Layer-Icons" transform="translate(-188.000000, -658.000000)" fill="#FFFFFF" fill-rule="nonzero">
            <g id="3d" transform="translate(188.000000, 658.000000)">
                <path d="M5.60390625,0.07734375 L0.72890625,1.90546875 C0.290625,2.06953125 -1.66533454e-16,2.49140625 -1.66533454e-16,2.96015625 L-1.66533454e-16,8.2359375 C-1.66533454e-16,8.6625 0.24140625,9.0515625 0.62109375,9.24140625 L5.49609375,11.6789062 C5.8125,11.8382812 6.18515625,11.8382812 6.5015625,11.6789062 L11.3765625,9.24140625 C11.7585937,9.0515625 11.9976562,8.66015625 11.9976562,8.2359375 L11.9976562,2.96015625 C11.9976562,2.49140625 11.7070312,2.071875 11.26875,1.9078125 L6.39375,0.0796875 C6.140625,-0.01875 5.859375,-0.01875 5.60390625,0.07734375 Z M6,1.5328125 L10.5,3.2203125 L10.5,3.24609375 L6,5.07421875 L1.5,3.24609375 L1.5,3.2203125 L6,1.5328125 Z M6.75,9.8765625 L6.75,6.38671875 L10.5,4.86328125 L10.5,8.0015625 L6.75,9.8765625 Z" id="Shape"></path>
            </g>
        </g>
    </g>
</svg>