<?xml version="1.0" encoding="UTF-8"?>
<svg width="17px" height="20px" viewBox="0 0 17 20" version="1.1" xmlns="http://www.w3.org/2000/svg" xmlns:xlink="http://www.w3.org/1999/xlink">
    <title>Custom Map</title>
    <g id="Symbols" stroke="none" stroke-width="1" fill="none" fill-rule="evenodd">
        <g id="Custom-Map" fill="#FFFFFF" fill-rule="nonzero">
            <path d="M12.0813839,7.89285714 L10.598058,7.89285714 C10.5415179,8.91854911 10.3498884,9.84140625 10.0588393,10.5646652 C11.1103348,10.0622545 11.8810268,9.07754464 12.0813839,7.89285714 L12.0813839,7.89285714 Z M12.0813839,6.67857143 C11.8806473,5.49388393 11.1103348,4.50917411 10.0588393,4.00676339 C10.3502679,4.73002232 10.5415179,5.65287946 10.598058,6.67857143 L12.0813839,6.67857143 Z M8.5,3.69256696 C8.20819196,3.97526786 7.71185268,4.99868304 7.61091518,6.67857143 L9.38946429,6.67857143 C9.28814732,4.9990625 8.79180804,3.97526786 8.5,3.69256696 Z M6.94116071,4.00676339 C5.88966518,4.50917411 5.11897321,5.49388393 4.91861607,6.67857143 L6.40194196,6.67857143 C6.45848214,5.65287946 6.64973214,4.73002232 6.94116071,4.00676339 Z M6.94116071,10.5646652 C6.64973214,9.84140625 6.45848214,8.91854911 6.40194196,7.89285714 L4.91861607,7.89285714 C5.11897321,9.07754464 5.88966518,10.0622545 6.94116071,10.5646652 Z M9.38908482,7.89285714 L7.61053571,7.89285714 C7.71147321,9.57236607 8.2078125,10.5961607 8.49962054,10.8788616 C8.79180804,10.5961607 9.28814732,9.57236607 9.38908482,7.89285714 Z M17,13.6 L17,0.971428571 C17,0.364285714 16.6357143,0 16.0285714,0 L3.64285714,0 C1.57857143,0 0,1.57857143 0,3.64285714 L0,15.7857143 C0,17.85 1.57857143,19.4285714 3.64285714,19.4285714 L16.0285714,19.4285714 C16.5142857,19.4285714 17,19.0642857 17,18.4571429 L17,17.85 C17,17.6071429 16.8785714,17.3642857 16.6357143,17.1214286 C16.5142857,16.5142857 16.5142857,14.8142857 16.6357143,14.3285714 C16.8785714,14.2071429 17,13.9642857 17,13.6 Z M8.5,2.42857143 C11.182433,2.42857143 13.3571429,4.60328125 13.3571429,7.28571429 C13.3571429,9.96814732 11.182433,12.1428571 8.5,12.1428571 C5.81756696,12.1428571 3.64285714,9.96814732 3.64285714,7.28571429 C3.64285714,4.60328125 5.81756696,2.42857143 8.5,2.42857143 Z M14.5714286,17 L3.64285714,17 C2.91428571,17 2.42857143,16.5142857 2.42857143,15.7857143 C2.42857143,15.0571429 3.03571429,14.5714286 3.64285714,14.5714286 L14.5714286,14.5714286 L14.5714286,17 Z" id="Shape"></path>
        </g>
    </g>
</svg>