<?xml version="1.0" encoding="UTF-8"?>
<svg width="16px" height="16px" viewBox="0 0 16 16" version="1.1" xmlns="http://www.w3.org/2000/svg" xmlns:xlink="http://www.w3.org/1999/xlink">
    <!-- Generator: Sketch 60 (88103) - https://sketch.com -->
    <title>Shape</title>
    <desc>Created with Sketch.</desc>
    <g id="Symbols" stroke="none" stroke-width="1" fill="none" fill-rule="evenodd">
        <g id="Undocked-Layer" transform="translate(-515.000000, -58.000000)" fill="#FFFFFF" fill-rule="nonzero">
            <g id="window-restore" transform="translate(515.000000, 58.000000)">
                <path d="M16,1.5 L16,10.5 C16,11.328125 15.328125,12 14.5,12 L13,12 L13,5.5 C13,4.121875 11.878125,3 10.5,3 L4,3 L4,1.5 C4,0.671875 4.671875,0 5.5,0 L14.5,0 C15.328125,0 16,0.671875 16,1.5 Z M12,5.5 L12,14.5 C12,15.328125 11.328125,16 10.5,16 L1.5,16 C0.671875,16 0,15.328125 0,14.5 L0,5.5 C0,4.671875 0.671875,4 1.5,4 L10.5,4 C11.328125,4 12,4.671875 12,5.5 Z M9.875,6.375 C9.875,6.16875 9.70625,6 9.5,6 L2.375,6 C2.16875,6 2,6.16875 2,6.375 L2,8 L9.875,8 L9.875,6.375 Z" id="Shape"></path>
            </g>
        </g>
    </g>
</svg>