<?xml version="1.0" encoding="UTF-8"?>
<svg width="16px" height="12px" viewBox="0 0 16 12" version="1.1" xmlns="http://www.w3.org/2000/svg" xmlns:xlink="http://www.w3.org/1999/xlink">
    <!-- Generator: Sketch 60 (88103) - https://sketch.com -->
    <title>s</title>
    <desc>Created with Sketch.</desc>
    <g id="Symbols" stroke="none" stroke-width="1" fill="none" fill-rule="evenodd">
        <g id="dock-me-icon" transform="translate(0.000000, -2.000000)" fill="#FFFFFF" fill-rule="nonzero">
            <path d="M3,14 C2.16666651,14 1.45833349,13.7083335 0.875,13.125 C0.291666508,12.5416665 0,11.8333335 0,11 L0,5 C0,4.16666651 0.291666508,3.45833349 0.875,2.875 C1.45833349,2.29166651 2.16666651,2 3,2 L5.625,2 C5.72916651,2 5.81770849,2.03645849 5.890625,2.109375 C5.96354151,2.18229151 6,2.27083349 6,2.375 L6,3.625 C6,3.72916651 5.96354151,3.81770849 5.890625,3.890625 C5.81770849,3.96354151 5.72916651,4 5.625,4 L3,4 C2.72916651,4 2.49479151,4.09895849 2.296875,4.296875 C2.09895849,4.49479151 2,4.72916651 2,5 L2,11 C2,11.2708335 2.09895849,11.5052085 2.296875,11.703125 C2.49479151,11.9010415 2.72916651,12 3,12 L5.625,12 C5.72916651,12 5.81770849,12.0364585 5.890625,12.109375 C5.96354151,12.1822915 6,12.2708335 6,12.375 L6,13.625 C6,13.7291665 5.96354151,13.8177085 5.890625,13.890625 C5.81770849,13.9635415 5.72916651,14 5.625,14 L3,14 Z M11.6875,4.53125 C11.8541665,4.38541651 11.9375,4.203125 11.9375,3.984375 C11.9375,3.765625 11.8645835,3.58333349 11.71875,3.4375 L11.03125,2.75 C10.8854165,2.60416651 10.7083335,2.53125 10.5,2.53125 C10.2916665,2.53125 10.1145835,2.60416651 9.96875,2.75 L5.21875,7.46875 C5.07291651,7.61458349 5,7.79166651 5,8 C5,8.20833349 5.07291651,8.38541651 5.21875,8.53125 L9.96875,13.25 C10.1145835,13.3958335 10.2916665,13.46875 10.5,13.46875 C10.7083335,13.46875 10.8854165,13.3958335 11.03125,13.25 L11.71875,12.5625 C11.8645835,12.4166665 11.9375,12.234375 11.9375,12.015625 C11.9375,11.796875 11.8541665,11.6145835 11.6875,11.46875 L9.25,9.25 L15.25,9.25 C15.4583335,9.25 15.6354165,9.17708349 15.78125,9.03125 C15.9270835,8.88541651 16,8.70833349 16,8.5 L16,7.5 C16,7.29166651 15.9270835,7.11458349 15.78125,6.96875 C15.6354165,6.82291651 15.4583335,6.75 15.25,6.75 L9.25,6.75 L11.6875,4.53125 Z" id="s"></path>
        </g>
    </g>
</svg>