<svg width="10" height="6" viewBox="0 0 10 6" fill="none" xmlns="http://www.w3.org/2000/svg">
<g fill="#979797">
<path d="M8.84615 0C9.48317 0 10 0.503906 10 1.125C10 1.74609 9.48317 2.25 8.84615 2.25C8.20913 2.25 7.69231 1.74609 7.69231 1.125C7.69231 0.503906 8.20913 0 8.84615 0ZM5 0C5.63702 0 6.15385 0.503906 6.15385 1.125C6.15385 1.74609 5.63702 2.25 5 2.25C4.36298 2.25 3.84615 1.74609 3.84615 1.125C3.84615 0.503906 4.36298 0 5 0ZM1.15385 2.25C0.516587 2.25 0 1.74609 0 1.125C0 0.503906 0.516587 0 1.15385 0C1.79111 0 2.30769 0.503906 2.30769 1.125C2.30769 1.74609 1.79111 2.25 1.15385 2.25ZM8.84615 3.75C9.48317 3.75 10 4.25391 10 4.875C10 5.49609 9.48317 6 8.84615 6C8.20913 6 7.69231 5.49609 7.69231 4.875C7.69231 4.25391 8.20913 3.75 8.84615 3.75ZM5 6C4.36298 6 3.84615 5.49609 3.84615 4.875C3.84615 4.25391 4.36298 3.75 5 3.75C5.63702 3.75 6.15385 4.25391 6.15385 4.875C6.15385 5.49609 5.63702 6 5 6ZM1.15385 3.75C1.79111 3.75 2.30769 4.25391 2.30769 4.875C2.30769 5.49609 1.79111 6 1.15385 6C0.516587 6 0 5.49609 0 4.875C0 4.25391 0.516587 3.75 1.15385 3.75Z"/>
</g>
</svg>
