<svg width="2" height="22" viewBox="0 0 2 22" fill="none" xmlns="http://www.w3.org/2000/svg">
  <g fill="#c4c4c4">
    <path d="M2 1C2 0.666667 1.8 0 1 0C0.2 0 0 0.666667 0 1C0 1.33333 0.2 2 1 2C1.8 2 2 1.33333 2 1Z"/>
    <path d="M2 6C2 5.66667 1.8 5 1 5C0.2 5 0 5.66667 0 6C0 6.33333 0.2 7 1 7C1.8 7 2 6.33333 2 6Z"/>
    <path d="M2 11C2 10.6667 1.8 10 1 10C0.2 10 0 10.6667 0 11C0 11.3333 0.2 12 1 12C1.8 12 2 11.3333 2 11Z"/>
    <path d="M2 16C2 15.6667 1.8 15 1 15C0.2 15 0 15.6667 0 16C0 16.3333 0.2 17 1 17C1.8 17 2 16.3333 2 16Z"/>
    <path d="M2 21C2 20.6667 1.8 20 1 20C0.2 20 0 20.6667 0 21C0 21.3333 0.2 22 1 22C1.8 22 2 21.3333 2 21Z"/>
  </g>
</svg>
