<?xml version="1.0" encoding="UTF-8"?>
<svg width="14px" height="14px" viewBox="0 0 14 14" version="1.1" xmlns="http://www.w3.org/2000/svg" xmlns:xlink="http://www.w3.org/1999/xlink">
    <title>pencil-alt</title>
    <g id="Page-1" stroke="none" stroke-width="1" fill="none" fill-rule="evenodd">
        <g id="pencil-alt" transform="translate(0.000000, -0.000000)" fill="#FFFFFF" fill-rule="nonzero">
            <path d="M13.6144353,3.88367583 L12.3538301,5.14428104 C12.2253085,5.27280262 12.0174864,5.27280262 11.8889648,5.14428104 L8.85366808,2.10898432 C8.72514651,1.98046275 8.72514651,1.77264063 8.85366808,1.64411906 L10.1142733,0.383513843 C10.6256251,-0.127837948 11.4569136,-0.127837948 11.9709998,0.383513843 L13.6144353,2.02694928 C14.1285216,2.53830107 14.1285216,3.36958954 13.6144353,3.88367583 Z M7.77080546,2.72698167 L0.59000439,9.90778275 L0.0102900608,13.2302021 C-0.0690104842,13.6786604 0.322023238,14.0669596 0.770481492,13.9903936 L4.09290088,13.4079447 L11.273702,6.22714366 C11.4022235,6.09862209 11.4022235,5.89079997 11.273702,5.7622784 L8.23840523,2.72698167 C8.10714916,2.5984601 7.89932704,2.5984601 7.77080546,2.72698167 Z M3.39286848,9.2925199 C3.2424709,9.14212231 3.2424709,8.90148618 3.39286848,8.75108859 L7.60400087,4.5399562 C7.75439846,4.38955862 7.99503459,4.38955862 8.14543218,4.5399562 C8.29582976,4.69035379 8.29582976,4.93098992 8.14543218,5.08138751 L3.93429979,9.2925199 C3.7839022,9.44291748 3.54326607,9.44291748 3.39286848,9.2925199 L3.39286848,9.2925199 Z M2.40571342,11.5922357 L3.71827417,11.5922357 L3.71827417,12.5848598 L1.95452066,12.8938584 L1.10409068,12.0434285 L1.41308936,10.279675 L2.40571342,10.279675 L2.40571342,11.5922357 Z" id="Shape"></path>
        </g>
    </g>
</svg>