<?xml version="1.0" encoding="UTF-8"?>
<svg width="4px" height="14px" viewBox="0 0 4 14" version="1.1" xmlns="http://www.w3.org/2000/svg" xmlns:xlink="http://www.w3.org/1999/xlink">
    <!-- Generator: Sketch 58 (84663) - https://sketch.com -->
    <title>Ellipsis menu</title>
    <desc>Created with Sketch.</desc>
    <g id="Symbols" stroke="none" stroke-width="1" fill="none" fill-rule="evenodd">
        <g id="Ellipsis-menu" fill="#FFFFFF" fill-rule="nonzero">
            <path d="M2.03225806,4.96774194 C3.13781362,4.96774194 4.03225806,5.8766129 4.03225806,7 C4.03225806,8.1233871 3.13781362,9.03225806 2.03225806,9.03225806 C0.926702509,9.03225806 0.0322580645,8.1233871 0.0322580645,7 C0.0322580645,5.8766129 0.926702509,4.96774194 2.03225806,4.96774194 Z M0.0322580645,2.03225806 C0.0322580645,3.15564516 0.926702509,4.06451613 2.03225806,4.06451613 C3.13781362,4.06451613 4.03225806,3.15564516 4.03225806,2.03225806 C4.03225806,0.908870968 3.13781362,0 2.03225806,0 C0.926702509,0 0.0322580645,0.908870968 0.0322580645,2.03225806 Z M0.0322580645,11.9677419 C0.0322580645,13.091129 0.926702509,14 2.03225806,14 C3.13781362,14 4.03225806,13.091129 4.03225806,11.9677419 C4.03225806,10.8443548 3.13781362,9.93548387 2.03225806,9.93548387 C0.926702509,9.93548387 0.0322580645,10.8443548 0.0322580645,11.9677419 Z" id="Shape"></path>
        </g>
    </g>
</svg>