<?xml version="1.0" encoding="UTF-8"?>
<svg width="24px" height="21px" viewBox="0 0 24 21" version="1.1" xmlns="http://www.w3.org/2000/svg" xmlns:xlink="http://www.w3.org/1999/xlink">
    <!-- Generator: Sketch 62 (91390) - https://sketch.com -->
    <title>Export_hoverselect</title>
    <desc>Created with Sketch.</desc>
    <g id="Page-1" stroke="none" stroke-width="1" fill="none" fill-rule="evenodd">
        <g id="Export_hoverselect" fill="#F9C062" fill-rule="nonzero">
            <path d="M16.001389,4.99980469 C16.001389,4.74140625 15.8972133,4.49121094 15.709697,4.30664062 L11.6301762,0.287109375 C11.44266,0.102539062 11.1884712,0 10.9217814,0 L10.6675927,0 L10.6675927,5.25 L16.001389,5.25 L16.001389,4.99980469 Z M23.7937321,12.6328125 L19.8058859,8.67890625 C19.3850161,8.26464844 18.6641201,8.55585938 18.6641201,9.14238281 L18.6641201,11.8125 L15.997222,11.8125 L15.997222,14.4375 L18.6641201,14.4375 L18.6641201,17.1117188 C18.6641201,17.6982422 19.3850161,17.9894531 19.8058859,17.5751953 L23.7937321,13.6171875 C24.068756,13.3464844 24.068756,12.9035156 23.7937321,12.6328125 Z M8.0006945,13.78125 L8.0006945,12.46875 C8.0006945,12.1078125 8.30072055,11.8125 8.66741905,11.8125 L16.001389,11.8125 L16.001389,6.5625 L10.3342304,6.5625 C9.78418265,6.5625 9.33414359,6.11953125 9.33414359,5.578125 L9.33414359,0 L1.00008681,0 C0.445872038,0 0,0.438867187 0,0.984375 L0,20.015625 C0,20.5611328 0.445872038,21 1.00008681,21 L15.0013022,21 C15.555517,21 16.001389,20.5611328 16.001389,20.015625 L16.001389,14.4375 L8.66741905,14.4375 C8.30072055,14.4375 8.0006945,14.1421875 8.0006945,13.78125 Z" id="Shape"></path>
        </g>
    </g>
</svg>