<?xml version="1.0" encoding="UTF-8"?>
<svg width="23px" height="21px" viewBox="0 0 23 21" version="1.1" xmlns="http://www.w3.org/2000/svg" xmlns:xlink="http://www.w3.org/1999/xlink">
    <!-- Generator: Sketch 62 (91390) - https://sketch.com -->
    <title>export_unselected</title>
    <desc>Created with Sketch.</desc>
    <g id="Page-1" stroke="none" stroke-width="1" fill="none" fill-rule="evenodd">
        <g id="export_unselected" fill="#FFFFFF" fill-rule="nonzero">
            <path d="M22.6526102,11.6439258 L19.7864447,8.84830078 C19.4558254,8.52837891 18.9714762,8.44306641 18.5550077,8.62763672 C18.1433308,8.80892578 17.8885783,9.20103516 17.8885783,9.65179688 L17.8885783,11.8125 L15.3330671,11.8125 L15.3330671,5.41283203 C15.3330671,4.89193359 15.1294248,4.38744141 14.7700561,4.01871094 L11.4207392,0.578320312 C11.0613705,0.209179687 10.5742261,0 10.0675162,0 L1.91623409,0 C0.85849204,0.0041015625 0,0.8859375 0,1.97244141 L0,19.0316602 C0,20.1181641 0.85849204,21 1.91623409,21 L13.416833,21 C14.4745751,21 15.3330671,20.1181641 15.3330671,19.0316602 L15.3330671,14.4375 L14.0557108,14.4375 L14.0557108,19.0316602 C14.0557108,19.3925977 13.7682158,19.6879102 13.416833,19.6879102 L1.91623409,19.6879102 C1.5648513,19.6879102 1.2773563,19.3925977 1.2773563,19.0316602 L1.2773563,1.97244141 C1.2773563,1.61150391 1.5648513,1.3125 1.91623409,1.3125 L8.94548706,1.3125 L8.94548706,5.58099609 C8.94548706,6.12650391 9.37273658,6.5625 9.90380375,6.5625 L14.0557108,6.5625 L14.0557108,11.8125 L6.70821687,11.8125 C6.53172688,11.8125 6.38877797,11.9593359 6.38877797,12.140625 L6.38877797,12.796875 C6.38877797,12.9781641 6.53172688,13.125 6.70821687,13.125 L17.8885783,13.125 L17.8885783,15.285293 C17.8885783,15.7356445 18.1433308,16.1281641 18.5550077,16.3094531 C19.1511606,16.5740039 19.6283224,16.243418 19.7880419,16.0883789 L22.6518116,13.2943945 C22.8762174,13.0757813 23,12.7825195 23,12.4691602 C23,12.1558008 22.8762174,11.8617187 22.6526102,11.6439258 Z M10.2232427,5.25287109 L10.2232427,1.33669922 C10.3350463,1.36541016 10.4348709,1.42283203 10.5187236,1.50896484 L13.8680405,4.94935547 C13.9518932,5.03548828 14.007795,5.13802734 14.0357459,5.25287109 L10.2232427,5.25287109 L10.2232427,5.25287109 Z M19.1663339,14.88375 L19.1663339,10.05375 L21.6419854,12.46875 L19.1663339,14.88375 Z" id="Shape"></path>
        </g>
    </g>
</svg>