<?xml version="1.0" encoding="UTF-8"?>
<svg width="12px" height="12px" viewBox="0 0 12 12" version="1.1" xmlns="http://www.w3.org/2000/svg" xmlns:xlink="http://www.w3.org/1999/xlink">
    <!-- Generator: Sketch 55.2 (78181) - https://sketchapp.com -->
    <title>	external-link-square-alt - gray</title>
    <desc>Created with Sketch.</desc>
    <g id="Link-Styles" stroke="none" stroke-width="1" fill="none" fill-rule="evenodd">
        <g id="Menu-Links" transform="translate(-571.000000, -100.000000)" fill="#979797" fill-rule="nonzero">
            <g id="Group" transform="translate(414.000000, 86.000000)">
                <path d="M168.374973,15.6562723 L168.374973,24.593751 C168.374973,24.9322917 168.256483,25.2200517 168.019505,25.4570302 C167.782527,25.6940086 167.494767,25.8124981 167.156226,25.8124981 L158.218747,25.8124981 C157.880206,25.8124981 157.592446,25.6940086 157.355468,25.4570302 C157.118489,25.2200517 157,24.9322917 157,24.593751 L157,15.6562723 C157,15.3177315 157.118489,15.0299716 157.355468,14.7929931 C157.592446,14.5560146 157.880206,14.4375252 158.218747,14.4375252 L167.156226,14.4375252 C167.494767,14.4375252 167.782527,14.5560146 168.019505,14.7929931 C168.256483,15.0299716 168.374973,15.3177315 168.374973,15.6562723 Z M166.140603,16.0625213 L163.29686,16.0625213 C163.127589,16.0625213 162.98371,16.1217658 162.86522,16.2402553 C162.746731,16.3587447 162.687486,16.5026243 162.687486,16.6718949 C162.687486,16.8411654 162.746731,16.985045 162.86522,17.1035345 L163.677718,17.9160325 L158.726558,22.8671926 C158.65885,22.9349009 158.624996,23.0110726 158.624996,23.0957077 C158.624996,23.1803428 158.65885,23.2480511 158.726558,23.2988322 L159.513666,24.0859397 C159.564447,24.153648 159.632155,24.1875019 159.71679,24.1875019 C159.801425,24.1875019 159.877597,24.153648 159.945305,24.0859397 L164.896466,19.1347796 L165.708964,19.9472777 C165.827453,20.0657671 165.971333,20.1250116 166.140603,20.1250116 C166.309874,20.1250116 166.453753,20.0657671 166.572243,19.9472777 C166.690732,19.8287882 166.749977,19.6849086 166.749977,19.5156381 L166.749977,16.6718949 C166.749977,16.5026243 166.690732,16.3587447 166.572243,16.2402553 C166.453753,16.1217658 166.309874,16.0625213 166.140603,16.0625213 Z" id="-external-link-square-alt"></path>
            </g>
        </g>
    </g>
</svg>