<svg width="15" height="12" viewBox="0 0 15 12" fill="none" xmlns="http://www.w3.org/2000/svg">
<g fill="#BCBDBF">
<path d="M3.532 2.17427C4.57027 1.36568 5.90151 0.749988 7.49993 0.749988C9.39367 0.749988 10.9101 1.61342 12.014 2.63903C13.1108 3.65621 13.8444 4.85385 14.1913 5.71165C14.2686 5.89681 14.2686 6.10306 14.1913 6.28821C13.8772 7.04523 13.2468 8.11163 12.3186 9.06318L14.7842 10.9944C15.028 11.1866 15.0725 11.5405 14.8803 11.7842C14.6882 12.028 14.3342 12.0725 14.0905 11.8803L0.215525 1.00522C-0.0289727 0.813503 -0.0718395 0.460069 0.119807 0.215525C0.311478 -0.0289726 0.664912 -0.0718394 0.909597 0.119807L3.532 2.17427ZM5.22886 3.50386L7.34525 5.16322C7.44368 4.96401 7.49993 4.73901 7.49993 4.47885C7.49993 4.23042 7.40853 3.9773 7.30306 3.75933C7.36868 3.7523 7.43431 3.72886 7.49993 3.72886C8.74211 3.72886 9.74991 4.73666 9.74991 5.97884C9.74991 6.32102 9.68194 6.62571 9.54132 6.90227L10.4671 7.61007C10.7272 7.13195 10.8749 6.58352 10.8749 5.97884C10.8749 4.13667 9.3632 2.60387 7.49993 2.60387C6.62572 2.60387 5.82651 2.95778 5.22886 3.50386ZM7.49993 11.2499C5.6062 11.2499 4.0898 10.3874 2.98591 9.36083C1.88951 8.32256 1.15639 7.12492 0.807645 6.28821C0.730771 6.10306 0.730771 5.89681 0.807645 5.71165C1.03124 5.17494 1.41303 4.4812 1.9474 3.78511L4.15777 5.5265C4.13668 5.68119 4.12496 5.83822 4.12496 5.97884C4.12496 7.86319 5.63667 9.3749 7.49993 9.3749C7.93821 9.3749 8.35774 9.29052 8.74211 9.13818L10.4577 10.4882C9.60695 10.9475 8.62023 11.2499 7.49993 11.2499Z"/>
</g>
</svg>
