<svg width="14" height="11" viewBox="0 0 14 11" fill="none" xmlns="http://www.w3.org/2000/svg">
<g fill="#ffffff">
<path d="M6.55341 2.9763C6.61904 2.96935 6.68467 2.96703 6.75029 2.96703C7.99254 2.96703 9.00039 3.94291 9.00039 5.19231C9.00039 6.42084 7.99254 7.41758 6.75029 7.41758C5.48696 7.41758 4.5002 6.42084 4.5002 5.19231C4.5002 5.1274 4.50254 5.0625 4.50957 4.9976C4.72755 5.10191 4.98069 5.19231 5.25023 5.19231C6.07761 5.19231 6.75029 4.52704 6.75029 3.70879C6.75029 3.44222 6.65888 3.19188 6.55341 2.9763ZM11.2646 1.8683C12.3615 2.87431 13.0951 4.05881 13.442 4.90719C13.5193 5.09032 13.5193 5.2943 13.442 5.47742C13.0951 6.30494 12.3615 7.48944 11.2646 8.51631C10.1606 9.53159 8.64413 10.3846 6.75029 10.3846C4.85646 10.3846 3.33999 9.53159 2.23651 8.51631C1.13958 7.48944 0.406427 6.30494 0.0576851 5.47742C-0.0192284 5.2943 -0.0192284 5.09032 0.0576851 4.90719C0.406427 4.05881 1.13958 2.87431 2.23651 1.8683C3.33999 0.853949 4.85646 0 6.75029 0C8.64413 0 10.1606 0.853949 11.2646 1.8683ZM6.75029 1.8544C4.88693 1.8544 3.37515 3.3495 3.37515 5.19231C3.37515 7.03511 4.88693 8.53022 6.75029 8.53022C8.61366 8.53022 10.1254 7.03511 10.1254 5.19231C10.1254 3.3495 8.61366 1.8544 6.75029 1.8544Z"/>
</g>
</svg>
