<?xml version="1.0" encoding="UTF-8"?>
<svg width="576px" height="384px" viewBox="0 0 576 384" version="1.1" xmlns="http://www.w3.org/2000/svg" xmlns:xlink="http://www.w3.org/1999/xlink">
    <!-- Generator: Sketch 55.2 (78181) - https://sketchapp.com -->
    <title>eye</title>
    <desc>Created with Sketch.</desc>
    <g id="Page-1" stroke="none" stroke-width="1" fill="none" fill-rule="evenodd">
        <g id="eye" fill="#878787" fill-rule="nonzero">
            <path d="M288,224 C323.346224,224 352,195.346224 352,160 C352,124.653776 323.346224,96 288,96 C287,96 286.12,96.24 285.15,96.29 C291.446239,113.629315 287.134023,133.045924 274.089974,146.089974 C261.045924,159.134023 241.629315,163.446239 224.29,157.15 C224.29,158.15 224,159.03 224,160 C224,195.346224 252.653776,224 288,224 L288,224 Z M572.52,177.4 C518.29,71.59 410.93,0 288,0 C165.07,0 57.68,71.64 3.48,177.41 C-1.15927088,186.586998 -1.15927088,197.423002 3.48,206.6 C57.71,312.41 165.07,384 288,384 C410.93,384 518.32,312.36 572.52,206.59 C577.159271,197.413002 577.159271,186.576998 572.52,177.4 Z M288,32 C358.692448,32 416,89.307552 416,160 C416,230.692448 358.692448,288 288,288 C217.307552,288 160,230.692448 160,160 C160.077158,89.3395367 217.339537,32.0771584 288,32 Z M288,352 C180.64,352 82.54,290.69 32,192 C60.4243023,136.199114 105.880721,90.9003111 161.78,62.67 C140.91,89.69 128,123.17 128,160 C128,248.36556 199.63444,320 288,320 C376.36556,320 448,248.36556 448,160 C448,123.17 435.09,89.69 414.22,62.67 C470.119279,90.9003111 515.575698,136.199114 544,192 C493.47,290.69 395.36,352 288,352 Z" id="Shape"></path>
        </g>
    </g>
</svg>