<?xml version="1.0" encoding="UTF-8"?>
<svg width="13px" height="10px" viewBox="0 0 13 10" version="1.1" xmlns="http://www.w3.org/2000/svg" xmlns:xlink="http://www.w3.org/1999/xlink">
    <!-- Generator: Sketch 55.2 (78181) - https://sketchapp.com -->
    <title>bars</title>
    <desc>Created with Sketch.</desc>
    <g id="Page-1" stroke="none" stroke-width="1" fill="none" fill-rule="evenodd">
        <g id="bars" fill="#7A7A7A" fill-rule="nonzero">
            <path d="M12.8258929,1.01123596 L0.174107143,1.01123596 C0.077950423,1.01123596 0,0.935778329 0,0.842696629 L0,0.168539326 C0,0.0754576264 0.077950423,0 0.174107143,0 L12.8258929,0 C12.9220496,0 13,0.0754576264 13,0.168539326 L13,0.842696629 C13,0.935778329 12.9220496,1.01123596 12.8258929,1.01123596 Z M12.8258929,5.50561798 L0.174107143,5.50561798 C0.077950423,5.50561798 0,5.43016035 0,5.33707865 L0,4.66292135 C0,4.56983965 0.077950423,4.49438202 0.174107143,4.49438202 L12.8258929,4.49438202 C12.9220496,4.49438202 13,4.56983965 13,4.66292135 L13,5.33707865 C13,5.43016035 12.9220496,5.50561798 12.8258929,5.50561798 Z M12.8258929,10 L0.174107143,10 C0.077950423,10 0,9.92454237 0,9.83146067 L0,9.15730337 C0,9.06422167 0.077950423,8.98876404 0.174107143,8.98876404 L12.8258929,8.98876404 C12.9220496,8.98876404 13,9.06422167 13,9.15730337 L13,9.83146067 C13,9.92454237 12.9220496,10 12.8258929,10 Z" id="Shape"></path>
        </g>
    </g>
</svg>