<?xml version="1.0" encoding="UTF-8"?>
<svg width="576px" height="512px" viewBox="0 0 576 512" version="1.1" xmlns="http://www.w3.org/2000/svg" xmlns:xlink="http://www.w3.org/1999/xlink">
    <!-- Generator: Sketch 55.2 (78181) - https://sketchapp.com -->
    <title>file-export</title>
    <desc>Created with Sketch.</desc>
    <g id="Page-1" stroke="none" stroke-width="1" fill="none" fill-rule="evenodd">
        <g id="file-export" fill="#878787" fill-rule="nonzero">
            <path d="M572.29,279.06 L500.52,206.75 C492.97,199.15 480,204.49 480,215.2 L480,264.08 L384,264.08 L384,131.98 C384,119.28 378.83,106.98 369.83,97.99 L285.94,14.1 C276.94,5.1 264.74,0 252.05,0 L47.99,0 C21.5,0.1 0,21.6 0,48.09 L0,464.01 C0,490.5 21.5,512 47.99,512 L335.93,512 C362.43,512 384,490.5 384,464.01 L384,360.07 L336,360.07 L336,464.01 L47.99,464.01 L47.99,48.09 L207.96,48.09 L207.96,152.07 C207.96,165.37 218.66,176.06 231.96,176.06 L336,176.06 L336,264.07 L172,264.07 C165.37,264.07 160,269.44 160,276.07 L160,300.07 C160,306.7 165.37,312.07 172,312.07 L480,312.07 L480,360.95 C480,371.66 492.97,377 500.52,369.4 L572.29,297.09 C577.24,292.1 577.24,284.05 572.29,279.06 Z M255.95,128.07 L255.95,51.99 L332.04,128.07 L255.95,128.07 L255.95,128.07 Z" id="Shape"></path>
        </g>
    </g>
</svg>