<?xml version="1.0" encoding="UTF-8"?>
<svg width="13px" height="13px" viewBox="0 0 13 13" version="1.1" xmlns="http://www.w3.org/2000/svg" xmlns:xlink="http://www.w3.org/1999/xlink">
    <!-- Generator: Sketch 62 (91390) - https://sketch.com -->
    <title>generic</title>
    <desc>Created with Sketch.</desc>
    <g id="Icons" stroke="none" stroke-width="1" fill="none" fill-rule="evenodd">
        <g id="Layer-Icons" transform="translate(-189.000000, -725.000000)" fill="#FFFFFF" fill-rule="nonzero">
            <g id="generic" transform="translate(189.000000, 725.000000)">
                <path d="M0.314483431,3.77633528 L6.21744639,6.45413255 C6.38976608,6.53243665 6.58463938,6.53243665 6.75695906,6.45413255 L12.659922,3.77633528 C13.0793177,3.58602339 13.0793177,2.95224172 12.659922,2.76192982 L6.75721248,0.0838791423 C6.58589837,0.00557621934 6.38901391,0.00557621934 6.21769981,0.0838791423 L0.314483431,2.76167641 C-0.104912281,2.9519883 -0.104912281,3.58602339 0.314483431,3.77633528 Z M12.6601754,6.01345029 L11.1881092,5.34621832 L7.09196881,7.20296296 C6.90038986,7.28988304 6.69690058,7.33397661 6.48732943,7.33397661 C6.27775828,7.33397661 6.07452242,7.28988304 5.88269006,7.20296296 L1.78680312,5.34621832 L0.314483431,6.01345029 C-0.104912281,6.20350877 -0.104912281,6.83703704 0.314483431,7.02709552 L6.21744639,9.7028655 C6.38976608,9.78091618 6.58463938,9.78091618 6.75695906,9.7028655 L12.6601754,7.02709552 C13.0795712,6.83703704 13.0795712,6.20350877 12.6601754,6.01345029 Z M12.6601754,9.25204678 L11.1936842,8.58734893 L7.09196881,10.4466277 C6.90038986,10.5335478 6.69690058,10.5776413 6.48732943,10.5776413 C6.27775828,10.5776413 6.07452242,10.5335478 5.88269006,10.4466277 L1.78122807,8.58734893 L0.314483431,9.25204678 C-0.104912281,9.44210526 -0.104912281,10.0756335 0.314483431,10.265692 L6.21744639,12.941462 C6.38976608,13.0195127 6.58463938,13.0195127 6.75695906,12.941462 L12.6601754,10.265692 C13.0795712,10.0756335 13.0795712,9.44210526 12.6601754,9.25204678 Z" id="Shape"></path>
            </g>
        </g>
    </g>
</svg>