<?xml version="1.0" encoding="UTF-8"?>
<svg width="19px" height="19px" viewBox="0 0 19 19" version="1.1" xmlns="http://www.w3.org/2000/svg" xmlns:xlink="http://www.w3.org/1999/xlink">
    <title>globe</title>
    <g id="Symbols" stroke="none" stroke-width="1" fill="none" fill-rule="evenodd">
        <g id="globe" fill="#FFFFFF" fill-rule="nonzero">
            <path d="M12.890121,5.82258065 C12.3346774,2.40181452 11.0245968,0 9.5,0 C7.97540323,0 6.66532258,2.40181452 6.10987903,5.82258065 L12.890121,5.82258065 Z M5.82258065,9.5 C5.82258065,10.3504032 5.86854839,11.1663306 5.94899194,11.9516129 L13.0471774,11.9516129 C13.127621,11.1663306 13.1735887,10.3504032 13.1735887,9.5 C13.1735887,8.64959677 13.127621,7.83366935 13.0471774,7.0483871 L5.94899194,7.0483871 C5.86854839,7.83366935 5.82258065,8.64959677 5.82258065,9.5 Z M18.2606855,5.82258065 C17.165121,3.22157258 14.9471774,1.21048387 12.2082661,0.398387097 C13.1429435,1.69314516 13.7864919,3.64294355 14.1235887,5.82258065 L18.2606855,5.82258065 Z M6.78790323,0.398387097 C4.05282258,1.21048387 1.83104839,3.22157258 0.739314516,5.82258065 L4.87641129,5.82258065 C5.20967742,3.64294355 5.85322581,1.69314516 6.78790323,0.398387097 Z M18.6705645,7.0483871 L14.2768145,7.0483871 C14.3572581,7.85282258 14.4032258,8.67641129 14.4032258,9.5 C14.4032258,10.3235887 14.3572581,11.1471774 14.2768145,11.9516129 L18.6667339,11.9516129 C18.8774194,11.1663306 18.9961694,10.3504032 18.9961694,9.5 C18.9961694,8.64959677 18.8774194,7.83366935 18.6705645,7.0483871 Z M4.59677419,9.5 C4.59677419,8.67641129 4.64274194,7.85282258 4.72318548,7.0483871 L0.329435484,7.0483871 C0.122580645,7.83366935 0,8.64959677 0,9.5 C0,10.3504032 0.122580645,11.1663306 0.329435484,11.9516129 L4.71935484,11.9516129 C4.64274194,11.1471774 4.59677419,10.3235887 4.59677419,9.5 Z M6.10987903,13.1774194 C6.66532258,16.5981855 7.97540323,19 9.5,19 C11.0245968,19 12.3346774,16.5981855 12.890121,13.1774194 L6.10987903,13.1774194 Z M12.2120968,18.6016129 C14.9471774,17.7895161 17.1689516,15.7784274 18.2645161,13.1774194 L14.1274194,13.1774194 C13.7903226,15.3570565 13.1467742,17.3068548 12.2120968,18.6016129 Z M0.739314516,13.1774194 C1.83487903,15.7784274 4.05282258,17.7895161 6.79173387,18.6016129 C5.85705645,17.3068548 5.21350806,15.3570565 4.87641129,13.1774194 L0.739314516,13.1774194 Z" id="Shape"></path>
        </g>
    </g>
</svg>