<?xml version="1.0" encoding="UTF-8"?>
<svg width="496px" height="496px" viewBox="0 0 496 496" version="1.1" xmlns="http://www.w3.org/2000/svg" xmlns:xlink="http://www.w3.org/1999/xlink">
    <!-- Generator: Sketch 55.2 (78181) - https://sketchapp.com -->
    <title>globe</title>
    <desc>Created with Sketch.</desc>
    <g id="Page-1" stroke="none" stroke-width="1" fill="none" fill-rule="evenodd">
        <g id="globe" fill="#878787" fill-rule="nonzero">
            <path d="M336.5,152 C322,62.7 287.8,0 248,0 C208.2,0 174,62.7 159.5,152 L336.5,152 Z M152,248 C152,270.2 153.2,291.5 155.3,312 L340.6,312 C342.7,291.5 343.9,270.2 343.9,248 C343.9,225.8 342.7,204.5 340.6,184 L155.3,184 C153.2,204.5 152,225.8 152,248 Z M476.7,152 C448.1,84.1 390.2,31.6 318.7,10.4 C343.1,44.2 359.9,95.1 368.7,152 L476.7,152 Z M177.2,10.4 C105.8,31.6 47.8,84.1 19.3,152 L127.3,152 C136,95.1 152.8,44.2 177.2,10.4 Z M487.4,184 L372.7,184 C374.8,205 376,226.5 376,248 C376,269.5 374.8,291 372.7,312 L487.3,312 C492.8,291.5 495.9,270.2 495.9,248 C495.9,225.8 492.8,204.5 487.4,184 Z M120,248 C120,226.5 121.2,205 123.3,184 L8.6,184 C3.2,204.5 0,225.8 0,248 C0,270.2 3.2,291.5 8.6,312 L123.2,312 C121.2,291 120,269.5 120,248 Z M159.5,344 C174,433.3 208.2,496 248,496 C287.8,496 322,433.3 336.5,344 L159.5,344 Z M318.8,485.6 C390.2,464.4 448.2,411.9 476.8,344 L368.8,344 C360,400.9 343.2,451.8 318.8,485.6 Z M19.3,344 C47.9,411.9 105.8,464.4 177.3,485.6 C152.9,451.8 136.1,400.9 127.3,344 L19.3,344 Z" id="Shape"></path>
        </g>
    </g>
</svg>