<?xml version="1.0" encoding="UTF-8"?>
<svg width="48px" height="17px" viewBox="0 0 48 17" version="1.1" xmlns="http://www.w3.org/2000/svg" xmlns:xlink="http://www.w3.org/1999/xlink">
    <title>go_icon_1</title>
    <g id="Page-1" stroke="none" stroke-width="1" fill="none" fill-rule="evenodd">
        <g id="go_icon_132346" fill="#000000" fill-rule="nonzero">
            <path d="M3.50956543,5.11726036 L4.19069275,4.28764658 L12.8442595,4.28373037 L12.2871025,5.11334414 L3.50956543,5.11726036 Z M11.3580482,7.15813191 L11.6450961,6.32851813 L0.681127326,6.33574156 L0,7.1653567 L11.3580482,7.15813191 Z M11.042988,9.20622688 L11.1258483,8.37661311 L6.13865317,8.38052932 L5.65460598,9.2101431 L11.042988,9.20622688 Z M42.852477,15.7030627 C38.0543926,18.226018 31.4990079,17.1575629 29.7463766,11.6872126 C28.7106434,13.6328127 27.0195184,15.22742 25.0041909,16.1367168 C20.2291936,18.2911545 13.746217,16.4123867 12.912379,10.508183 C12.3017752,4.84915933 17.1000613,1.35224739 19.9365853,0.469380994 C24.4445233,-0.871043629 28.8904844,0.704016682 30.4278723,4.62406293 L25.5856138,5.8355501 C25.0712219,4.46895455 22.2751198,3.48485097 20.1257791,4.96818062 C16.7453917,6.95903029 16.8078707,11.9690108 20.8920068,12.7129854 C23.0124025,12.9724715 24.4367442,11.9723508 25.504458,10.4340234 L20.2463197,10.4447644 L21.9358496,6.96719453 L29.8161312,6.96719453 C33.2292144,-2.22384095 46.5403499,-1.82139239 47.8931503,6.43748261 C48.3739653,9.37286543 47.3241873,13.35173 42.852477,15.7030627 Z M38.4794004,4.3316453 C34.8361594,5.07994297 33.9281594,8.15188676 34.490505,10.1200926 C35.0889566,12.2146755 37.4070518,13.5880985 40.3481978,12.2746696 C45.0619936,10.169627 43.8263864,3.23340886 38.4794004,4.3316453 Z" id="Shape"></path>
        </g>
    </g>
</svg>