<?xml version="1.0" encoding="UTF-8"?>
<svg width="91px" height="36px" viewBox="0 0 91 36" version="1.1" xmlns="http://www.w3.org/2000/svg" xmlns:xlink="http://www.w3.org/1999/xlink">
    <title>Button</title>
    <g id="Symbols" stroke="none" stroke-width="1" fill="none" fill-rule="evenodd">
        <g id="Button" fill-rule="nonzero">
            <rect id="Rectangle" fill="#008B9B" x="0" y="0" width="91" height="36"></rect>
            <g id="Group" transform="translate(18.000000, 13.000000)" fill="#FFFFFF">
                <path d="M4.12207031,10.2402344 C5.06998698,10.2402344 5.84586589,10.0864258 6.44970703,9.77880859 C7.05354818,9.47119141 7.48763021,9.12825521 7.75195312,8.75 L7.75195312,8.75 L7.75195312,5.03808594 L4.11523438,5.03808594 L4.11523438,6.28222656 L6.09082031,6.28222656 L6.09082031,8.30566406 C5.94498698,8.46972656 5.71028646,8.61214193 5.38671875,8.73291016 C5.06315104,8.85367839 4.64160156,8.9140625 4.12207031,8.9140625 C3.39290365,8.9140625 2.79931641,8.6554362 2.34130859,8.13818359 C1.88330078,7.62093099 1.65429688,6.96126302 1.65429688,6.15917969 L1.65429688,6.15917969 L1.65429688,4.06738281 C1.65429688,3.27441406 1.86507161,2.62044271 2.28662109,2.10546875 C2.70817057,1.59049479 3.26302083,1.33300781 3.95117188,1.33300781 C4.62109375,1.33300781 5.13264974,1.50048828 5.48583984,1.83544922 C5.83902995,2.17041016 6.03385417,2.61132812 6.0703125,3.15820312 L6.0703125,3.15820312 L7.64257812,3.15820312 L7.65625,3.1171875 C7.64257812,2.19205729 7.31103516,1.44124349 6.66162109,0.864746094 C6.01220703,0.288248698 5.10188802,0 3.93066406,0 C2.77311198,0 1.82861328,0.379394531 1.09716797,1.13818359 C0.365722656,1.89697266 0,2.87792969 0,4.08105469 L0,4.08105469 L0,6.15917969 C0,7.36230469 0.387369792,8.34326172 1.16210938,9.10205078 C1.93684896,9.86083984 2.9235026,10.2402344 4.12207031,10.2402344 Z M14.5326172,10.2402344 C15.7494141,10.2402344 16.7394857,9.84033203 17.502832,9.04052734 C18.2661784,8.24072266 18.6478516,7.23242188 18.6478516,6.015625 L18.6478516,6.015625 L18.6478516,4.22460938 C18.6478516,3.01236979 18.2650391,2.00520833 17.4994141,1.203125 C16.7337891,0.401041667 15.7425781,0 14.5257813,0 C13.3363281,0 12.369043,0.401041667 11.6239258,1.203125 C10.8788086,2.00520833 10.50625,3.01236979 10.50625,4.22460938 L10.50625,4.22460938 L10.50625,6.015625 C10.50625,7.23242188 10.8788086,8.24072266 11.6239258,9.04052734 C12.369043,9.84033203 13.3386068,10.2402344 14.5326172,10.2402344 Z M14.5326172,8.87988281 C13.7988932,8.87988281 13.2201172,8.61214193 12.7962891,8.07666016 C12.3724609,7.54117839 12.1605469,6.85416667 12.1605469,6.015625 L12.1605469,6.015625 L12.1605469,4.2109375 C12.1605469,3.38151042 12.3724609,2.70019531 12.7962891,2.16699219 C13.2201172,1.63378906 13.7966146,1.3671875 14.5257813,1.3671875 C15.2822917,1.3671875 15.8827148,1.63378906 16.3270508,2.16699219 C16.7713867,2.70019531 16.9935547,3.38151042 16.9935547,4.2109375 L16.9935547,4.2109375 L16.9935547,6.015625 C16.9935547,6.85872396 16.7736654,7.546875 16.3338867,8.08007812 C15.8941081,8.61328125 15.2936849,8.87988281 14.5326172,8.87988281 Z M29.9259766,10.0966797 L29.9259766,1.4765625 L32.9337891,1.4765625 L32.9337891,0.143554688 L25.2570312,0.143554688 L25.2570312,1.4765625 L28.2648437,1.4765625 L28.2648437,10.0966797 L29.9259766,10.0966797 Z M38.7710937,10.2402344 C39.9878906,10.2402344 40.9779622,9.84033203 41.7413086,9.04052734 C42.5046549,8.24072266 42.8863281,7.23242188 42.8863281,6.015625 L42.8863281,6.015625 L42.8863281,4.22460938 C42.8863281,3.01236979 42.5035156,2.00520833 41.7378906,1.203125 C40.9722656,0.401041667 39.9810547,0 38.7642578,0 C37.5748047,0 36.6075195,0.401041667 35.8624023,1.203125 C35.1172852,2.00520833 34.7447266,3.01236979 34.7447266,4.22460938 L34.7447266,4.22460938 L34.7447266,6.015625 C34.7447266,7.23242188 35.1172852,8.24072266 35.8624023,9.04052734 C36.6075195,9.84033203 37.5770833,10.2402344 38.7710937,10.2402344 Z M38.7710937,8.87988281 C38.0373698,8.87988281 37.4585937,8.61214193 37.0347656,8.07666016 C36.6109375,7.54117839 36.3990234,6.85416667 36.3990234,6.015625 L36.3990234,6.015625 L36.3990234,4.2109375 C36.3990234,3.38151042 36.6109375,2.70019531 37.0347656,2.16699219 C37.4585937,1.63378906 38.0350911,1.3671875 38.7642578,1.3671875 C39.5207682,1.3671875 40.1211914,1.63378906 40.5655273,2.16699219 C41.0098633,2.70019531 41.2320312,3.38151042 41.2320312,4.2109375 L41.2320312,4.2109375 L41.2320312,6.015625 C41.2320312,6.85872396 41.0121419,7.546875 40.5723633,8.08007812 C40.1325846,8.61328125 39.5321615,8.87988281 38.7710937,8.87988281 Z" id="GOTO"></path>
                <path d="M51.1816041,8.75147187 L54.6997002,5.2333757 C54.9132694,5.01983327 54.9132694,4.67355114 54.6997002,4.46000871 L51.1816041,0.941912543 C50.837111,0.597392796 50.2480469,0.841376437 50.2480469,1.32859604 L50.2480469,8.36478837 C50.2480469,8.85200797 50.837111,9.09601832 51.1816041,8.75147187 Z" id="CARET-RIGHT"></path>
            </g>
        </g>
    </g>
</svg>