<?xml version="1.0" encoding="UTF-8"?>
<svg width="20px" height="18px" viewBox="0 0 20 18" version="1.1" xmlns="http://www.w3.org/2000/svg" xmlns:xlink="http://www.w3.org/1999/xlink">
    <!-- Generator: Sketch 60 (88103) - https://sketch.com -->
    <title>Shape</title>
    <desc>Created with Sketch.</desc>
    <g id="Symbols" stroke="none" stroke-width="1" fill="none" fill-rule="evenodd">
        <g id="Add-Layer/Full-List" transform="translate(-519.000000, -125.000000)" fill="#F9C062" fill-rule="nonzero">
            <g id="sliders-h" transform="translate(519.000000, 125.000000)">
                <path d="M19.375,1.78474078 L11.25,1.78474078 L11.25,0.874026495 C11.25,0.540097924 10.96875,0.266883638 10.625,0.266883638 L9.375,0.266883638 C9.03125,0.266883638 8.75,0.540097924 8.75,0.874026495 L8.75,1.78474078 L0.625,1.78474078 C0.28125,1.78474078 0,2.05795507 0,2.39188364 L0,2.9990265 C0,3.33295507 0.28125,3.60616935 0.625,3.60616935 L8.75,3.60616935 L8.75,4.51688364 C8.75,4.85081221 9.03125,5.1240265 9.375,5.1240265 L10.625,5.1240265 C10.96875,5.1240265 11.25,4.85081221 11.25,4.51688364 L11.25,3.60616935 L19.375,3.60616935 C19.71875,3.60616935 20,3.33295507 20,2.9990265 L20,2.39188364 C20,2.05795507 19.71875,1.78474078 19.375,1.78474078 Z M19.375,13.9275979 L6.25,13.9275979 L6.25,13.0168836 C6.25,12.6829551 5.96875,12.4097408 5.625,12.4097408 L4.375,12.4097408 C4.03125,12.4097408 3.75,12.6829551 3.75,13.0168836 L3.75,13.9275979 L0.625,13.9275979 C0.28125,13.9275979 0,14.2008122 0,14.5347408 L0,15.1418836 C0,15.4758122 0.28125,15.7490265 0.625,15.7490265 L3.75,15.7490265 L3.75,16.6597408 C3.75,16.9936694 4.03125,17.2668836 4.375,17.2668836 L5.625,17.2668836 C5.96875,17.2668836 6.25,16.9936694 6.25,16.6597408 L6.25,15.7490265 L19.375,15.7490265 C19.71875,15.7490265 20,15.4758122 20,15.1418836 L20,14.5347408 C20,14.2008122 19.71875,13.9275979 19.375,13.9275979 Z M19.375,7.85616935 L16.25,7.85616935 L16.25,6.94545507 C16.25,6.6115265 15.96875,6.33831221 15.625,6.33831221 L14.375,6.33831221 C14.03125,6.33831221 13.75,6.6115265 13.75,6.94545507 L13.75,7.85616935 L0.625,7.85616935 C0.28125,7.85616935 0,8.12938364 0,8.46331221 L0,9.07045507 C0,9.40438364 0.28125,9.67759792 0.625,9.67759792 L13.75,9.67759792 L13.75,10.5883122 C13.75,10.9222408 14.03125,11.1954551 14.375,11.1954551 L15.625,11.1954551 C15.96875,11.1954551 16.25,10.9222408 16.25,10.5883122 L16.25,9.67759792 L19.375,9.67759792 C19.71875,9.67759792 20,9.40438364 20,9.07045507 L20,8.46331221 C20,8.12938364 19.71875,7.85616935 19.375,7.85616935 Z" id="Shape"></path>
            </g>
        </g>
    </g>
</svg>