<?xml version="1.0" encoding="UTF-8"?>
<svg width="18px" height="17px" viewBox="0 0 18 17" version="1.1" xmlns="http://www.w3.org/2000/svg" xmlns:xlink="http://www.w3.org/1999/xlink">
    <!-- Generator: Sketch 60 (88103) - https://sketch.com -->
    <title>sliders-h</title>
    <desc>Created with Sketch.</desc>
    <g id="Symbols" stroke="none" stroke-width="1" fill="none" fill-rule="evenodd">
        <g id="Add-Layer/Base" transform="translate(-512.000000, -154.000000)" fill="#FFFFFF" fill-rule="nonzero">
            <g id="sliders-h" transform="translate(512.000000, 154.000000)">
                <path d="M17.71875,13.1428571 L6.75,13.1428571 L6.75,11.8035714 C6.75,11.3582589 6.37382813,11 5.90625,11 L4.21875,11 C3.75117188,11 3.375,11.3582589 3.375,11.8035714 L3.375,13.1428571 L0.28125,13.1428571 C0.1265625,13.1428571 0,13.2633929 0,13.4107143 L0,13.9464286 C0,14.09375 0.1265625,14.2142857 0.28125,14.2142857 L3.375,14.2142857 L3.375,15.5535714 C3.375,15.9988839 3.75117188,16.3571429 4.21875,16.3571429 L5.90625,16.3571429 C6.37382813,16.3571429 6.75,15.9988839 6.75,15.5535714 L6.75,14.2142857 L17.71875,14.2142857 C17.8734375,14.2142857 18,14.09375 18,13.9464286 L18,13.4107143 C18,13.2633929 17.8734375,13.1428571 17.71875,13.1428571 Z M5.625,15.2142857 L4.5,15.2142857 L4.5,12 L5.625,12 L5.625,15.2142857 Z M17.71875,2.14285714 L9,2.14285714 L9,0.803571429 C9,0.358258929 8.62382813,-2.22044605e-15 8.15625,-2.22044605e-15 L6.46875,-2.22044605e-15 C6.00117187,-2.22044605e-15 5.625,0.358258929 5.625,0.803571429 L5.625,2.14285714 L0.28125,2.14285714 C0.1265625,2.14285714 0,2.26339286 0,2.41071429 L0,2.94642857 C0,3.09375 0.1265625,3.21428571 0.28125,3.21428571 L5.625,3.21428571 L5.625,4.55357143 C5.625,4.99888393 6.00117187,5.35714286 6.46875,5.35714286 L8.15625,5.35714286 C8.62382813,5.35714286 9,4.99888393 9,4.55357143 L9,3.21428571 L17.71875,3.21428571 C17.8734375,3.21428571 18,3.09375 18,2.94642857 L18,2.41071429 C18,2.26339286 17.8734375,2.14285714 17.71875,2.14285714 Z M7.875,4.21428571 L6.75,4.21428571 L6.75,1 L7.875,1 L7.875,4.21428571 Z M17.71875,7.67857143 L14.625,7.67857143 L14.625,6.33928571 C14.625,5.89397321 14.2488281,5.53571429 13.78125,5.53571429 L12.09375,5.53571429 C11.6261719,5.53571429 11.25,5.89397321 11.25,6.33928571 L11.25,7.67857143 L0.28125,7.67857143 C0.1265625,7.67857143 0,7.79910714 0,7.94642857 L0,8.48214286 C0,8.62946429 0.1265625,8.75 0.28125,8.75 L11.25,8.75 L11.25,10.0892857 C11.25,10.5345982 11.6261719,10.8928571 12.09375,10.8928571 L13.78125,10.8928571 C14.2488281,10.8928571 14.625,10.5345982 14.625,10.0892857 L14.625,8.75 L17.71875,8.75 C17.8734375,8.75 18,8.62946429 18,8.48214286 L18,7.94642857 C18,7.79910714 17.8734375,7.67857143 17.71875,7.67857143 Z M13.5,9.82142857 L12.375,9.82142857 L12.375,6.60714286 L13.5,6.60714286 L13.5,9.82142857 Z" id="Shape"></path>
            </g>
        </g>
    </g>
</svg>