<?xml version="1.0" encoding="UTF-8"?>
<svg width="19px" height="21px" viewBox="0 0 19 21" version="1.1" xmlns="http://www.w3.org/2000/svg" xmlns:xlink="http://www.w3.org/1999/xlink">
    <!-- Generator: Sketch 62 (91390) - https://sketch.com -->
    <title>pan_hoverselect</title>
    <desc>Created with Sketch.</desc>
    <g id="Page-1" stroke="none" stroke-width="1" fill="none" fill-rule="evenodd">
        <g id="pan_hoverselect" fill="#F9C062" fill-rule="nonzero">
            <path d="M17.336733,5.25029347 C16.3856707,5.23269777 15.607178,6.00305293 15.607178,6.92303303 L15.607178,10.5 L15.2678915,10.5 L15.2678915,3.27264388 C15.2678915,2.35266378 14.4893988,1.58230862 13.5383364,1.59990432 C12.6167072,1.61696681 11.875027,2.3448298 11.875027,3.24024155 L11.875027,10.5 L11.5357406,10.5 L11.5357406,1.67303515 C11.5357406,0.753055053 10.7572479,-0.0173001049 9.80618553,0.000295591156 C8.88455631,0.0173580843 8.14287614,0.745221072 8.14287614,1.64063282 L8.14287614,10.5 L7.8035897,10.5 L7.8035897,3.31365949 C7.8035897,2.39367939 7.02509695,1.62332423 6.07403463,1.64091993 C5.15240541,1.65798242 4.41072524,2.38584541 4.41072524,3.28125716 L4.41072524,12.9606126 L3.06850806,11.1756544 C2.51746446,10.4428695 1.45651574,10.2808168 0.698719468,10.8137736 C-0.0589495768,11.3467305 -0.226472259,12.3727769 0.324571339,13.1056028 L5.65141095,20.1892035 C6.03448258,20.6986059 6.64645826,21 7.29775602,21 L15.6777071,21 C16.6223654,21 17.4429297,20.3714768 17.6593096,19.4821764 L18.7835352,14.8613579 C18.9273551,14.2702197 19,13.6649775 19,13.0576966 L19,6.8906307 C19,5.99521895 18.2583622,5.26735596 17.336733,5.25029347 Z" id="Path"></path>
        </g>
    </g>
</svg>