<?xml version="1.0" encoding="UTF-8"?>
<svg width="449px" height="512px" viewBox="0 0 449 512" version="1.1" xmlns="http://www.w3.org/2000/svg" xmlns:xlink="http://www.w3.org/1999/xlink">
    <!-- Generator: Sketch 55.2 (78181) - https://sketchapp.com -->
    <title>hand-paper</title>
    <desc>Created with Sketch.</desc>
    <g id="Page-1" stroke="none" stroke-width="1" fill="none" fill-rule="evenodd">
        <g id="hand-paper" transform="translate(0.000000, -1.000000)" fill="#878787" fill-rule="nonzero">
            <path d="M370.4,120.1 L370.4,97.3 C370.4,54.5 327.6,24.5 288.1,40.8 C268.3,-13.4 193.7,-11.4 175.6,41.6 C137.2,25.8 93.8,54.4 93.8,97.5 L93.8,243.2 C73.5,229.5 46.2,229.3 25.4,244.7 C-1.2,264.3 -7,301.8 12.3,328.6 L137.3,503 C141.8,509.3 149.1,513 156.8,513 L389,513 C400.2,513 409.9,505.3 412.4,494.4 L443.8,358.8 C447.2,344 449,328.8 449,313.5 L449,177.2 C449,135.7 408.4,107.1 370.4,120.1 Z M417,313.5 C417,326.3 415.5,339.1 412.6,351.5 L382.6,480.9 L160.9,480.9 L38.3,309.9 C29.3,297.3 32,279.5 44.4,270.4 C56.7,261.3 74,264 83,276.6 L111.3,316 C115.8,322.3 125.8,319.1 125.8,311.3 L125.8,97.5 C125.8,59.5 181.2,60.6 181.2,98.2 L181.2,257 C181.2,261.4 184.8,265 189.2,265 L196.3,265 C200.7,265 204.3,261.4 204.3,257 L204.3,61.2 C204.3,23.2 259.7,24.3 259.7,61.9 L259.7,256.9 C259.7,261.3 263.3,264.9 267.7,264.9 L274.8,264.9 C279.2,264.9 282.8,261.3 282.8,256.9 L282.8,96.6 C282.8,58.6 338.2,59.7 338.2,97.3 L338.2,257 C338.2,261.4 341.8,265 346.2,265 L353.3,265 C357.7,265 361.3,261.4 361.3,257 L361.3,178 C361.3,140.4 416.7,139.2 416.7,177.3 L416.7,313.5 L417,313.5 Z" id="Shape"></path>
        </g>
    </g>
</svg>