<?xml version="1.0" encoding="UTF-8"?>
<svg width="18px" height="21px" viewBox="0 0 18 21" version="1.1" xmlns="http://www.w3.org/2000/svg" xmlns:xlink="http://www.w3.org/1999/xlink">
    <!-- Generator: Sketch 62 (91390) - https://sketch.com -->
    <title>pan_unselected</title>
    <desc>Created with Sketch.</desc>
    <g id="Page-1" stroke="none" stroke-width="1" fill="none" fill-rule="evenodd">
        <g id="pan_unselected" fill="#FFFFFF" fill-rule="nonzero">
            <path d="M14.8425808,4.88517669 L14.8425808,3.95003296 C14.8425808,2.19458771 13.1232736,0.964135437 11.5365298,1.63268117 C10.7411494,-0.590335938 7.74441311,-0.508305787 7.01732293,1.66549323 C5.47476697,1.01745504 3.73135736,2.19048621 3.73135736,3.95823598 L3.73135736,9.93413253 C2.91589158,9.37222599 1.81923071,9.36402298 0.98367956,9.99565514 C-0.0848618088,10.7995506 -0.317852032,12.337616 0.457443021,13.43682 L5.47878404,20.5898492 C5.65955232,20.8482442 5.95279863,21 6.26211324,21 L15.5897563,21 C16.0396685,21 16.4293245,20.6841839 16.5297514,20.2371196 L17.7911122,14.6754753 C17.9276927,14.0684522 18,13.445023 18,12.8174924 L18,7.22713752 C18,5.52501187 16.3690684,4.3519807 14.8425808,4.88517669 Z M16.7145367,12.8174924 C16.7145367,13.3424853 16.6542806,13.8674783 16.5377855,14.3760652 L15.3326637,19.6834161 L6.42681322,19.6834161 L1.50188195,12.6698381 C1.1403454,12.1530481 1.24880637,11.4229798 1.74692339,11.0497426 C2.24102335,10.6765054 2.93597695,10.7872461 3.2975135,11.3040361 L4.43434511,12.9200301 C4.61511338,13.178425 5.01682067,13.0471768 5.01682067,12.7272592 L5.01682067,3.95823598 C5.01682067,2.39966309 7.242279,2.44477968 7.242279,3.98694653 L7.242279,10.5001406 C7.242279,10.6806069 7.38689363,10.8282612 7.56364483,10.8282612 L7.848857,10.8282612 C8.0256082,10.8282612 8.17022282,10.6806069 8.17022282,10.5001406 L8.17022282,2.46938872 C8.17022282,0.910815838 10.3956812,0.955932422 10.3956812,2.49809927 L10.3956812,10.4960391 C10.3956812,10.6765054 10.5402958,10.8241597 10.717047,10.8241597 L11.0022592,10.8241597 C11.1790104,10.8241597 11.323625,10.6765054 11.323625,10.4960391 L11.323625,3.92132241 C11.323625,2.36274952 13.5490833,2.40786611 13.5490833,3.95003296 L13.5490833,10.5001406 C13.5490833,10.6806069 13.6936979,10.8282612 13.8704491,10.8282612 L14.1556613,10.8282612 C14.3324125,10.8282612 14.4770271,10.6806069 14.4770271,10.5001406 L14.4770271,7.25994958 C14.4770271,5.71778273 16.7024855,5.66856464 16.7024855,7.23123903 L16.7024855,12.8174924 L16.7145367,12.8174924 Z" id="Shape"></path>
        </g>
    </g>
</svg>