<?xml version="1.0" encoding="UTF-8"?>
<svg width="16px" height="16px" viewBox="0 0 16 16" version="1.1" xmlns="http://www.w3.org/2000/svg" xmlns:xlink="http://www.w3.org/1999/xlink">
    <!-- Generator: Sketch 63.1 (92452) - https://sketch.com -->
    <title>Shape</title>
    <desc>Created with Sketch.</desc>
    <g id="Icons" stroke="none" stroke-width="1" fill="none" fill-rule="evenodd">
        <g id="info-circle" fill="#FFFFFF" fill-rule="nonzero">
            <path d="M8,0 C3.58203226,0 0,3.58332258 0,8 C0,12.4192581 3.58203226,16 8,16 C12.4179677,16 16,12.4192581 16,8 C16,3.58332258 12.4179677,0 8,0 Z M8,3.5483871 C8.74825806,3.5483871 9.35483871,4.15496774 9.35483871,4.90322581 C9.35483871,5.65148387 8.74825806,6.25806452 8,6.25806452 C7.25174194,6.25806452 6.64516129,5.65148387 6.64516129,4.90322581 C6.64516129,4.15496774 7.25174194,3.5483871 8,3.5483871 Z M9.80645161,11.7419355 C9.80645161,11.9557097 9.63312903,12.1290323 9.41935484,12.1290323 L6.58064516,12.1290323 C6.36687097,12.1290323 6.19354839,11.9557097 6.19354839,11.7419355 L6.19354839,10.9677419 C6.19354839,10.7539677 6.36687097,10.5806452 6.58064516,10.5806452 L6.96774194,10.5806452 L6.96774194,8.51612903 L6.58064516,8.51612903 C6.36687097,8.51612903 6.19354839,8.34280645 6.19354839,8.12903226 L6.19354839,7.35483871 C6.19354839,7.14106452 6.36687097,6.96774194 6.58064516,6.96774194 L8.64516129,6.96774194 C8.85893548,6.96774194 9.03225806,7.14106452 9.03225806,7.35483871 L9.03225806,10.5806452 L9.41935484,10.5806452 C9.63312903,10.5806452 9.80645161,10.7539677 9.80645161,10.9677419 L9.80645161,11.7419355 Z" id="Shape"></path>
        </g>
    </g>
</svg>