<?xml version="1.0" encoding="UTF-8"?>
<svg width="24px" height="17px" viewBox="0 0 24 17" version="1.1" xmlns="http://www.w3.org/2000/svg" xmlns:xlink="http://www.w3.org/1999/xlink">
    <!-- Generator: Sketch 62 (91390) - https://sketch.com -->
    <title>investigate_hoverselect</title>
    <desc>Created with Sketch.</desc>
    <g id="Page-1" stroke="none" stroke-width="1" fill="none" fill-rule="evenodd">
        <g id="investigate_hoverselect" fill="#F9C062" fill-rule="nonzero">
            <path d="M23.8550225,7.98805221 C21.5954349,3.57930221 17.1220931,0.596385542 12,0.596385542 C6.87790694,0.596385542 2.40331511,3.58138554 0.14497749,7.98846888 C-0.0483258301,8.3708438 -0.0483258301,8.82234396 0.14497749,9.20471888 C2.40456511,13.6134689 6.87790694,16.5963855 12,16.5963855 C17.1220931,16.5963855 21.5966849,13.6113855 23.8550225,9.20430221 C24.0483258,8.82192729 24.0483258,8.37042713 23.8550225,7.98805221 Z M12,14.5963855 C8.68628521,14.5963855 5.99998861,11.910094 5.99998861,8.59638554 C5.99998861,5.28267704 8.68628521,2.59638554 12,2.59638554 C15.3137148,2.59638554 18.0000128,5.28267704 18.0000128,8.59638554 C18.0007856,10.1879217 17.368892,11.7144951 16.2435037,12.8398812 C15.1181154,13.9652674 13.5915392,14.5971598 12,14.5963855 L12,14.5963855 Z M12,4.5963633 C11.6429708,4.60137516 11.2882453,4.65449279 10.9454147,4.75430221 C11.5293849,5.54789379 11.446083,6.64905113 10.7493724,7.34576036 C10.0526619,8.04246959 8.95150246,8.12577131 8.15790937,7.54180221 C7.70951089,9.19378619 8.3645638,10.9477428 9.78608332,11.9013682 C11.2076028,12.8549936 13.0789593,12.7958771 14.4374538,11.7544304 C15.7959483,10.7129838 16.3389895,8.92117914 15.7872157,7.30079081 C15.2354418,5.68040248 13.7117554,4.59235624 12,4.5963633 L12,4.5963633 Z" id="Shape"></path>
        </g>
    </g>
</svg>