<?xml version="1.0" encoding="UTF-8"?>
<svg width="24px" height="17px" viewBox="0 0 24 17" version="1.1" xmlns="http://www.w3.org/2000/svg" xmlns:xlink="http://www.w3.org/1999/xlink">
    <!-- Generator: Sketch 62 (91390) - https://sketch.com -->
    <title>Investigate_unselected</title>
    <desc>Created with Sketch.</desc>
    <g id="Page-1" stroke="none" stroke-width="1" fill="none" fill-rule="evenodd">
        <g id="Investigate_unselected" fill="#FFFFFF" fill-rule="nonzero">
            <path d="M12,9.92971888 C13.4727621,9.92971888 14.6666717,8.73581154 14.6666717,7.26305221 C14.6666717,5.79029288 13.4727621,4.59638554 12,4.59638554 C11.9583333,4.59638554 11.9216665,4.60638554 11.8812498,4.60846888 C12.1435936,5.33094032 11.9639176,6.13996573 11.4204145,6.68346779 C10.8769114,7.22696985 10.0678844,7.40664549 9.34541163,7.14430221 C9.34541163,7.18596888 9.33332827,7.22263554 9.33332827,7.26305221 C9.33332827,8.73581154 10.5272379,9.92971888 12,9.92971888 L12,9.92971888 Z M23.8550225,7.98805221 C21.5954349,3.57930221 17.1220931,0.596385542 12,0.596385542 C6.87790694,0.596385542 2.40331511,3.58138554 0.14497749,7.98846888 C-0.0483258301,8.3708438 -0.0483258301,8.82234396 0.14497749,9.20471888 C2.40456511,13.6134689 6.87790694,16.5963855 12,16.5963855 C17.1220931,16.5963855 21.5966849,13.6113855 23.8550225,9.20430221 C24.0483258,8.82192729 24.0483258,8.37042713 23.8550225,7.98805221 Z M12,1.92971888 C14.9455243,1.92971888 17.3333435,4.31753354 17.3333435,7.26305221 C17.3333435,10.2085709 14.9455243,12.5963855 12,12.5963855 C9.05447574,12.5963855 6.66665654,10.2085709 6.66665654,7.26305221 C6.66987148,4.31886624 9.05580844,1.93293381 12,1.92971888 Z M12,15.2630522 C7.52665817,15.2630522 3.43915041,12.7084689 1.33331308,8.59638554 C2.51766126,6.27134862 4.4116823,4.3838985 6.74082335,3.20763554 C5.87123836,4.33346888 5.33331308,5.72846888 5.33331308,7.26305221 C5.33331308,10.9449505 8.31809468,13.9297189 12,13.9297189 C15.6819053,13.9297189 18.6666793,10.9449505 18.6666793,7.26305221 C18.6666793,5.72846888 18.1287616,4.33346888 17.2591767,3.20763554 C19.5883177,4.3838985 21.4823387,6.27134862 22.6666869,8.59638554 C20.5612663,12.7084689 16.4733418,15.2630522 12,15.2630522 Z" id="Shape"></path>
        </g>
    </g>
</svg>