<?xml version="1.0" encoding="UTF-8"?>
<svg width="328px" height="227px" viewBox="0 0 328 227" version="1.1" xmlns="http://www.w3.org/2000/svg" xmlns:xlink="http://www.w3.org/1999/xlink">
    <!-- Generator: Sketch 56.3 (81716) - https://sketch.com -->
    <title>J Icon</title>
    <desc>Created with Sketch.</desc>
    <g id="Layer-Panel" stroke="none" stroke-width="1" fill="none" fill-rule="evenodd">
        <g id="J-Icon" transform="translate(-1.000000, 0.000000)" fill="#FEFEFE">
            <path d="M328.391923,43.5190041 C323.826844,32.8354971 295.146244,33.943693 254.308641,44.2661025 C257.236246,48.0638527 259.915748,52.0483775 262.359554,56.2072252 C275.930738,54.9247063 284.887223,56.4438063 286.97128,61.3248492 C290.370279,69.2938987 275.025165,84.2732215 248.478243,101.095387 C247.907608,101.444033 247.423809,101.87984 246.952415,102.353003 L244,116 C298.346761,86.4149036 334.160296,57.0414851 328.391923,43.5190041" id="Fill-1"></path>
            <path d="M78.9557286,169.20375 C59.0700143,172.61625 45.7590143,171.69125 43.1365857,165.54125 C41.0485857,160.62875 46.1070143,153.06625 56.3730143,144.09125 C55.0555857,139.49125 54.1110143,134.72875 53.3777286,129.90375 C17.6953,152.52875 -2.93612857,172.69125 1.62515714,183.41625 C6.59658571,195.09125 40.2158714,192.75375 87.0218714,179.70375 C82.7837286,176.11625 80.3477286,172.35375 78.9557286,169.20375" id="Fill-3"></path>
            <path d="M231.014947,126.207774 C224.030331,157.004708 211.676759,183.824637 145.459622,183.824637 C82.7223652,183.824637 83.8036135,158.73222 88.1161785,139.704736 L90.0425404,131.228743 L142.054312,131.228743 L141.470189,133.813797 C138.139447,148.528716 139.518971,155.451191 151.884971,155.451191 C164.611388,155.451191 174.566329,150.082234 179.077744,130.18478 L195.980016,55.6159321 L247.009964,55.6159321 L231.014947,126.207774 Z M165.506214,0 C102.81867,0 52,50.8186696 52,113.493786 C52,176.18133 102.81867,227 165.506214,227 C228.18133,227 279,176.18133 279,113.493786 C279,50.8186696 228.18133,0 165.506214,0 L165.506214,0 Z" id="Fill-6"></path>
        </g>
    </g>
</svg>