<?xml version="1.0" encoding="UTF-8"?>
<svg width="27px" height="19px" viewBox="0 0 27 19" version="1.1" xmlns="http://www.w3.org/2000/svg" xmlns:xlink="http://www.w3.org/1999/xlink">
    <!-- Generator: Sketch 63.1 (92452) - https://sketch.com -->
    <title>Group 3</title>
    <desc>Created with Sketch.</desc>
    <defs>
        <polygon id="path-1" points="2.86907171e-06 0.000154285714 26.3826661 0.000154285714 26.3826661 18.2096486 2.86907171e-06 18.2096486"></polygon>
    </defs>
    <g id="Main-UI" stroke="none" stroke-width="1" fill="none" fill-rule="evenodd">
        <g id="Main-View" transform="translate(-1536.000000, -208.000000)">
            <g id="Group-3" transform="translate(1536.000000, 208.000000)">
                <mask id="mask-2" fill="white">
                    <use xlink:href="#path-1"></use>
                </mask>
                <g id="Clip-2"></g>
                <path d="M21.9435943,6.61515429 C21.7299086,5.86224 21.4213371,5.15175429 21.0317657,4.49141143 C22.11948,4.38958286 22.83768,4.51146857 23.00508,4.90181143 C23.17248,5.29369714 22.7690229,5.89695429 21.9435943,6.61515429 M11.58408,14.7467829 C6.55282286,14.7467829 6.63845143,12.7333543 6.98482286,11.2074686 L7.13910857,10.5270686 L11.3117657,10.5270686 L11.2647086,10.7353543 C10.9977943,11.9148686 11.1081086,12.4695257 12.1001657,12.4695257 C13.1207657,12.4695257 13.9199657,12.03984 14.2817657,10.4437543 L15.6371657,4.46132571 L19.7303657,4.46132571 L18.44748,10.1243829 C17.8874229,12.5944971 16.8969086,14.7467829 11.58408,14.7467829 M3.37916571,13.3072971 C3.21176571,12.9169543 3.61908,12.3136971 4.44142286,11.5978114 C4.65510857,12.3499543 4.96368,13.0596686 5.35248,13.7184686 C4.26476571,13.8210686 3.54656571,13.6984114 3.37916571,13.3072971 M26.3337943,3.47621143 C25.9673657,2.62146857 23.6631086,2.71018286 20.3837657,3.53561143 C18.7182514,1.38795429 16.12008,0.000154285714 13.1925086,0.000154285714 C8.16356571,0.000154285714 4.08733714,4.07638286 4.08733714,9.10532571 C4.08733714,9.56895429 4.13285143,10.0210114 4.19996571,10.4661257 C1.33873714,12.2704971 -0.315977143,13.8781543 0.0504514286,14.7328971 C0.41688,15.5884114 2.72113714,15.4996971 6.00048,14.6742686 C7.66599429,16.8211543 10.2641657,18.2097257 13.1925086,18.2097257 C18.22068,18.2097257 22.2969086,14.1334971 22.2969086,9.10532571 C22.2969086,8.63938286 22.2506229,8.18578286 22.1835086,7.73912571 C25.0146514,5.94169714 26.6963657,4.32169714 26.3337943,3.47621143" id="Fill-1" fill="#FEFEFE" mask="url(#mask-2)"></path>
            </g>
        </g>
    </g>
</svg>