<?xml version="1.0" encoding="UTF-8"?>
<svg width="12px" height="12px" viewBox="0 0 12 12" version="1.1" xmlns="http://www.w3.org/2000/svg" xmlns:xlink="http://www.w3.org/1999/xlink">
    <!-- Generator: Sketch 62 (91390) - https://sketch.com -->
    <title>Status Icon Copy</title>
    <desc>Created with Sketch.</desc>
    <g id="Icons" stroke="none" stroke-width="1" fill="none" fill-rule="evenodd">
        <path d="M10.7142857,12 C11.0714284,12 11.3750001,11.8749999 11.625,11.625 C11.8749999,11.3750001 12,11.0714284 12,10.7142857 L12,10.7142857 L12,1.28571429 C12,0.928571565 11.8749999,0.624999864 11.625,0.375 C11.3750001,0.125000136 11.0714284,0 10.7142857,0 L10.7142857,0 L1.28571429,0 C0.928571565,0 0.624999864,0.125000136 0.375,0.375 C0.125000136,0.624999864 0,0.928571565 0,1.28571429 L0,1.28571429 L0,10.7142857 C0,11.0714284 0.125000136,11.3750001 0.375,11.625 C0.624999864,11.8749999 0.928571565,12 1.28571429,12 L1.28571429,12 L10.7142857,12 Z" id="Status-Icon-Copy" fill="#F9C062"></path>
    </g>
</svg>