<?xml version="1.0" encoding="UTF-8"?>
<svg width="14px" height="12px" viewBox="0 0 14 12" version="1.1" xmlns="http://www.w3.org/2000/svg" xmlns:xlink="http://www.w3.org/1999/xlink">
    <!-- Generator: Sketch 60 (88103) - https://sketch.com -->
    <title>list</title>
    <desc>Created with Sketch.</desc>
    <g id="Dock-Me-&amp;-Info" stroke="none" stroke-width="1" fill="none" fill-rule="evenodd">
        <g id="Docked-Layer" transform="translate(-545.000000, -189.000000)" fill="#FFFFFF" fill-rule="nonzero">
            <g id="Group" transform="translate(0.000000, 1.000000)">
                <g id="list" transform="translate(545.000000, 188.000000)">
                    <path d="M2.34375,9.23076923 L0.46875,9.23076923 C0.209866524,9.23076923 0,9.43740704 0,9.69230769 L0,11.5384615 C0,11.7933622 0.209866524,12 0.46875,12 L2.34375,12 C2.60263348,12 2.8125,11.7933622 2.8125,11.5384615 L2.8125,9.69230769 C2.8125,9.43740704 2.60263348,9.23076923 2.34375,9.23076923 Z M2.34375,0 L0.46875,0 C0.209866524,0 0,0.206637808 0,0.461538462 L0,2.30769231 C0,2.56259296 0.209866524,2.76923077 0.46875,2.76923077 L2.34375,2.76923077 C2.60263348,2.76923077 2.8125,2.56259296 2.8125,2.30769231 L2.8125,0.461538462 C2.8125,0.206637808 2.60263348,0 2.34375,0 Z M2.34375,4.61538462 L0.46875,4.61538462 C0.209866524,4.61538462 0,4.82202242 0,5.07692308 L0,6.92307692 C0,7.17797758 0.209866524,7.38461538 0.46875,7.38461538 L2.34375,7.38461538 C2.60263348,7.38461538 2.8125,7.17797758 2.8125,6.92307692 L2.8125,5.07692308 C2.8125,4.82202242 2.60263348,4.61538462 2.34375,4.61538462 Z M13.53125,9.69230769 L4.15625,9.69230769 C3.89736652,9.69230769 3.6875,9.8989455 3.6875,10.1538462 L3.6875,11.0769231 C3.6875,11.3318237 3.89736652,11.5384615 4.15625,11.5384615 L13.53125,11.5384615 C13.7901335,11.5384615 14,11.3318237 14,11.0769231 L14,10.1538462 C14,9.8989455 13.7901335,9.69230769 13.53125,9.69230769 Z M13.53125,0.461538462 L4.15625,0.461538462 C3.89736652,0.461538462 3.6875,0.668176269 3.6875,0.923076923 L3.6875,1.84615385 C3.6875,2.1010545 3.89736652,2.30769231 4.15625,2.30769231 L13.53125,2.30769231 C13.7901335,2.30769231 14,2.1010545 14,1.84615385 L14,0.923076923 C14,0.668176269 13.7901335,0.461538462 13.53125,0.461538462 Z M13.53125,5.07692308 L4.15625,5.07692308 C3.89736652,5.07692308 3.6875,5.28356088 3.6875,5.53846154 L3.6875,6.46153846 C3.6875,6.71643912 3.89736652,6.92307692 4.15625,6.92307692 L13.53125,6.92307692 C13.7901335,6.92307692 14,6.71643912 14,6.46153846 L14,5.53846154 C14,5.28356088 13.7901335,5.07692308 13.53125,5.07692308 Z" id="Shape"></path>
                </g>
            </g>
        </g>
    </g>
</svg>