<?xml version="1.0" encoding="UTF-8"?>
<svg width="23px" height="23px" viewBox="0 0 23 23" version="1.1" xmlns="http://www.w3.org/2000/svg" xmlns:xlink="http://www.w3.org/1999/xlink">
    <!-- Generator: Sketch 58 (84663) - https://sketch.com -->
    <title>location-circle</title>
    <desc>Created with Sketch.</desc>
    <g id="Icons" stroke="none" stroke-width="1" fill="none" fill-rule="evenodd">
        <g id="location-circle" fill="#FFFFFF" fill-rule="nonzero">
            <path d="M14.1204234,6.13024194 L5.678125,10.0096371 C4.75766129,10.4376411 4.28653226,11.3840726 4.5040121,12.365746 C4.71870968,13.3251613 5.55524194,13.9956855 6.53923387,13.9956855 L8.99643145,13.9956855 L8.99643145,16.4408266 C8.99643145,17.4211089 9.67066532,18.2539315 10.634254,18.4667742 C10.7937702,18.5020161 10.9532863,18.5196371 11.1095565,18.5196371 C11.9154839,18.5196371 12.6402621,18.0642742 13.0014919,17.293125 L16.8966532,8.89395161 L16.9142742,8.85546371 C17.2360887,8.08709677 17.0506048,7.19770161 16.4403629,6.58931452 C15.826875,5.97953629 14.9337702,5.79405242 14.1204234,6.13024194 Z M11.5,0 C5.14856855,0 0,5.14856855 0,11.5 C0,17.8514315 5.14856855,23 11.5,23 C17.8514315,23 23,17.8514315 23,11.5 C23,5.14856855 17.8514315,0 11.5,0 Z M11.5,20.7741935 C6.38620968,20.7741935 2.22580645,16.6137903 2.22580645,11.5 C2.22580645,6.38620968 6.38620968,2.22580645 11.5,2.22580645 C16.6137903,2.22580645 20.7741935,6.38620968 20.7741935,11.5 C20.7741935,16.6137903 16.6137903,20.7741935 11.5,20.7741935 Z" id="latlon-icon"></path>
        </g>
    </g>
</svg>