<?xml version="1.0" encoding="UTF-8"?>
<svg width="14px" height="13px" viewBox="0 0 14 13" version="1.1" xmlns="http://www.w3.org/2000/svg" xmlns:xlink="http://www.w3.org/1999/xlink">
    <title>map-update</title>
    <g id="Temp-and-Elevation-Layers" stroke="none" stroke-width="1" fill="none" fill-rule="evenodd">
        <g id="Map-Indicator-(1)" transform="translate(-391.000000, -220.000000)" fill="#FFFFFF" fill-rule="nonzero">
            <g id="map-update" transform="translate(391.000000, 220.000000)">
                <path d="M7,4.06785716e-13 C5.30857639,4.06785716e-13 3.9375,1.37107639 3.9375,3.0625 C3.9375,4.42993056 5.9390625,6.92222222 6.70590278,7.826875 C6.86121528,8.01013889 7.13902778,8.01013889 7.29409722,7.826875 C8.0609375,6.92222222 10.0625,4.42993056 10.0625,3.0625 C10.0625,1.37107639 8.69142361,4.06785716e-13 7,4.06785716e-13 Z M7,4.08333333 C6.43611111,4.08333333 5.97916667,3.62638889 5.97916667,3.0625 C5.97916667,2.49861111 6.43611111,2.04166667 7,2.04166667 C7.56388889,2.04166667 8.02083333,2.49861111 8.02083333,3.0625 C8.02083333,3.62638889 7.56388889,4.08333333 7,4.08333333 Z M0.489027778,5.24878472 C0.193731752,5.36689471 7.07235966e-05,5.65286236 0,5.97090278 L0,12.0550694 C0,12.3302083 0.2778125,12.5183333 0.533263889,12.41625 L3.88888889,10.8888889 L3.88888889,5.22375 C3.67402778,4.83534722 3.49829861,4.45715278 3.37239583,4.09548611 L0.489027778,5.24878472 Z M7,8.74197917 C6.65802083,8.74197917 6.33451389,8.59177083 6.11260417,8.32975694 C5.63475694,7.76586806 5.12652778,7.12371528 4.66666667,6.46503472 L4.66666667,10.8886458 L9.33333333,12.4442014 L9.33333333,6.46527778 C8.87347222,7.12371528 8.36548611,7.76611111 7.88739583,8.33 C7.66548611,8.59177083 7.34197917,8.74197917 7,8.74197917 Z M13.4667361,3.91708333 L10.1111111,5.44444444 L10.1111111,12.4444444 L13.5109722,11.0845486 C13.8063124,10.9664934 14,10.6804916 14,10.3624306 L14,4.27826389 C14,4.003125 13.7221875,3.815 13.4667361,3.91708333 L13.4667361,3.91708333 Z" id="Shape"></path>
            </g>
        </g>
    </g>
</svg>