<?xml version="1.0" encoding="UTF-8"?>
<svg width="15px" height="12px" viewBox="0 0 15 12" version="1.1" xmlns="http://www.w3.org/2000/svg" xmlns:xlink="http://www.w3.org/1999/xlink">
    <!-- Generator: Sketch 62 (91390) - https://sketch.com -->
    <title>MCD</title>
    <desc>Created with Sketch.</desc>
    <g id="Icons" stroke="none" stroke-width="1" fill="none" fill-rule="evenodd">
        <g id="Layer-Icons" transform="translate(-186.000000, -270.000000)" fill="#FFFFFF" fill-rule="nonzero">
            <g id="MCD" transform="translate(186.000000, 270.000000)">
                <path d="M14.625,9.75 L8.94234375,9.75 C8.925,10.2142969 8.59757813,10.5 8.175,10.5 L6.75,10.5 C6.31195313,10.5 5.97609375,10.0905469 5.98195312,9.75 L0.375,9.75 C0.16875,9.75 0,9.91875 0,10.125 L0,10.5 C0,11.325 0.675,12 1.5,12 L13.5,12 C14.325,12 15,11.325 15,10.5 L15,10.125 C15,9.91875 14.83125,9.75 14.625,9.75 Z M13.5,1.125 C13.5,0.50625 12.99375,0 12.375,0 L2.625,0 C2.00625,0 1.5,0.50625 1.5,1.125 L1.5,9 L13.5,9 L13.5,1.125 Z M12,7.5 L3,7.5 L3,1.5 L12,1.5 L12,7.5 Z" id="Shape"></path>
            </g>
        </g>
    </g>
</svg>