<?xml version="1.0" encoding="UTF-8"?>
<svg width="14px" height="12px" viewBox="0 0 14 12" version="1.1" xmlns="http://www.w3.org/2000/svg" xmlns:xlink="http://www.w3.org/1999/xlink">
    <!-- Generator: Sketch 62 (91390) - https://sketch.com -->
    <title>mosaics</title>
    <desc>Created with Sketch.</desc>
    <g id="Icons" stroke="none" stroke-width="1" fill="none" fill-rule="evenodd">
        <g id="Layer-Icons" transform="translate(-186.000000, -310.000000)" fill="#FFFFFF" fill-rule="nonzero">
            <g id="mosaics" transform="translate(186.000000, 310.000000)">
                <path d="M12.1744219,6.76525781 C11.2013203,6.76525781 10.7798906,7.50571875 10.2511875,7.50571875 C8.84552344,7.50571875 10.125,3.375 10.125,3.375 C10.125,3.375 5.5245,5.25 5.5245,3.29772656 C5.5245,2.45803125 6.375,2.21374219 6.375,1.28245312 C6.375,0.450375 5.71605469,0 4.93450781,0 C4.12230469,0 3.37905469,0.442757812 3.37905469,1.32060937 C3.37905469,2.29007812 4.12228125,2.70991406 4.12228125,3.236625 C4.12230469,4.86841406 0,3.90839062 0,3.90839062 L0,11.7186328 C0,11.7186328 4.18675781,12.6806719 4.18675781,11.0468672 C4.18675781,10.5201562 3.24925781,10.1068594 3.24925781,9.13739063 C3.24925781,8.25951563 3.93480469,7.81678125 4.73934375,7.81678125 C5.52855469,7.81678125 6.1875,8.26715625 6.1875,9.09921094 C6.1875,10.0305 5.337,10.2747891 5.337,11.1144844 C5.337,12.5395547 8.37625781,11.7175313 9.58457813,11.7175313 C9.58457813,11.7175313 8.77071094,8.90266406 10.1898984,8.90266406 C11.0327578,8.90266406 11.2779375,9.74997656 12.2127422,9.74997656 C13.0479375,9.75 13.5,9.09351563 13.5,8.30725781 C13.5,7.50571875 13.0555781,6.76525781 12.1744219,6.76525781 Z" id="Path"></path>
            </g>
        </g>
    </g>
</svg>