<?xml version="1.0" encoding="UTF-8"?>
<svg width="368px" height="512px" viewBox="0 0 368 512" version="1.1" xmlns="http://www.w3.org/2000/svg" xmlns:xlink="http://www.w3.org/1999/xlink">
    <!-- Generator: Sketch 55.2 (78181) - https://sketchapp.com -->
    <title>mouse-pointer</title>
    <desc>Created with Sketch.</desc>
    <g id="Page-1" stroke="none" stroke-width="1" fill="none" fill-rule="evenodd">
        <g id="mouse-pointer" fill="#878787" fill-rule="nonzero">
            <path d="M348.683,255.576 L107.915,18.636 C69.055,-21.086 0,6.909 0,62.87 L0,411.982 C0,467.223 67.457,495.869 107.414,456.709 L131.341,433.26 L148.876,473.929 L148.997,474.21 L149.122,474.484 C163.025,505.629 199.417,520.378 231.277,507.132 L273.18,489.737 L273.434,489.631 L273.687,489.522 C289.305,482.825 301.349,470.484 307.599,454.773 C313.783,439.228 313.526,422.205 306.875,406.84 L288.165,363.417 L304.692,363.417 C360.54,363.419 389.857,294.932 348.683,255.576 Z M304.811,315.419 L215.217,315.419 L262.824,425.91 C266.14,433.571 262.35,442.159 254.771,445.409 L212.849,462.818 C205.033,466.068 196.269,462.353 192.954,454.926 L147.716,350.006 L73.818,422.429 C64.038,432.012 48,424.734 48,411.982 L48,62.868 C48,49.559 64.978,43.039 73.817,52.423 L315.47,290.117 C325.26,299.208 318.023,315.419 304.811,315.419 L304.811,315.419 Z" id="Shape"></path>
        </g>
    </g>
</svg>