<?xml version="1.0" encoding="UTF-8"?>
<svg width="32px" height="32px" viewBox="0 0 32 32" version="1.1" xmlns="http://www.w3.org/2000/svg" xmlns:xlink="http://www.w3.org/1999/xlink">
    <!-- Generator: Sketch 58 (84663) - https://sketch.com -->
    <title>New Layers</title>
    <desc>Created with Sketch.</desc>
    <g id="Symbols" stroke="none" stroke-width="1" fill="none" fill-rule="evenodd">
        <g id="New-Layers">
            <circle id="Oval-3" fill="#FFFFFF" cx="16" cy="16" r="16"></circle>
            <path d="M21.75,15.25 L16.75,15.25 L16.75,10.25 C16.75,10.111875 16.638125,10 16.5,10 L15.5,10 C15.361875,10 15.25,10.111875 15.25,10.25 L15.25,15.25 L10.25,15.25 C10.111875,15.25 10,15.361875 10,15.5 L10,16.5 C10,16.638125 10.111875,16.75 10.25,16.75 L15.25,16.75 L15.25,21.75 C15.25,21.888125 15.361875,22 15.5,22 L16.5,22 C16.638125,22 16.75,21.888125 16.75,21.75 L16.75,16.75 L21.75,16.75 C21.888125,16.75 22,16.638125 22,16.5 L22,15.5 C22,15.361875 21.888125,15.25 21.75,15.25 Z" id="Path" fill="#43B2AF" fill-rule="nonzero"></path>
        </g>
    </g>
</svg>