<?xml version="1.0" encoding="UTF-8"?>
<svg width="11px" height="15px" viewBox="0 0 11 15" version="1.1" xmlns="http://www.w3.org/2000/svg" xmlns:xlink="http://www.w3.org/1999/xlink">
    <title>map-marker-alt copy</title>
    <g id="Page-1" stroke="none" stroke-width="1" fill="none" fill-rule="evenodd">
        <g id="map-marker-alt-copy" fill="#FFFFFF" fill-rule="nonzero">
            <path d="M4.93476042,14.2548585 C0.772578125,8.26959104 0,7.65531964 0,5.45564383 C0,2.44256562 2.46242448,0 5.5,0 C8.53757552,0 11,2.44256562 11,5.45564383 C11,7.65531964 10.2274219,8.26959104 6.06523958,14.2548585 C5.79210156,14.6462442 5.20786979,14.6462157 4.93476042,14.2548585 Z M5.5,7.72882876 C6.76565885,7.72882876 7.79166667,6.71109545 7.79166667,5.45564383 C7.79166667,4.20019221 6.76565885,3.1824589 5.5,3.1824589 C4.23434115,3.1824589 3.20833333,4.20019221 3.20833333,5.45564383 C3.20833333,6.71109545 4.23434115,7.72882876 5.5,7.72882876 Z" id="Shape"></path>
        </g>
    </g>
</svg>