<?xml version="1.0" encoding="UTF-8"?>
<svg width="512px" height="512px" viewBox="0 0 512 512" version="1.1" xmlns="http://www.w3.org/2000/svg" xmlns:xlink="http://www.w3.org/1999/xlink">
    <!-- Generator: Sketch 55.2 (78181) - https://sketchapp.com -->
    <title>paint-brush-alt</title>
    <desc>Created with Sketch.</desc>
    <g id="Page-1" stroke="none" stroke-width="1" fill="none" fill-rule="evenodd">
        <g id="paint-brush-alt" fill="#878787" fill-rule="nonzero">
            <path d="M489.17,144.05 C547.44,80.02 483.28,0 418.52,0 C395.13,0 371.65,10.44 353.84,35.85 L187.9,284.01 C142.77,286.91 101.8,304.1 78.56,365.35 C75.91,372.34 69.56,376.57 62.15,376.57 C49.66,376.57 11.01,345.44 7.10542736e-15,337.92 C7.10542736e-15,430.58 42.67,512 144,512 C285.21,512 289.89,394.96 286.91,366.51 L286.93,366.49 L489.17,144.05 Z M230.96,449.18 C212.54,469.63 183.28,480 144,480 C81.92,480 53.85,442.53 41.43,403.71 C48.98,407.03 55.58,408.57 62.15,408.57 C82.96,408.57 101.15,396.05 108.48,376.7 C115.34,358.61 126.11,320.04 197.79,315.44 L254.68,366 C257.64,394.21 250.6,427.37 230.96,449.18 Z M270.36,337.15 L220.5,292.83 L380.05,54.22 C390.38,39.47 403.33,32 418.52,32 C441.42,32 466.08,48.71 475.88,70.88 C483.82,88.84 480.33,106.22 465.49,122.52 L270.36,337.15 Z" id="Shape"></path>
        </g>
    </g>
</svg>