<?xml version="1.0" encoding="UTF-8"?>
<svg width="16px" height="11px" viewBox="0 0 16 11" version="1.1" xmlns="http://www.w3.org/2000/svg" xmlns:xlink="http://www.w3.org/1999/xlink">
    <!-- Generator: Sketch 59.1 (86144) - https://sketch.com -->
    <title>pan_10</title>
    <desc>Created with Sketch.</desc>
    <g id="Icons" stroke="none" stroke-width="1" fill="none" fill-rule="evenodd">
        <g id="pan_10" fill="#878787" fill-rule="nonzero">
            <path d="M4.64355469,10.8105469 L2.52685547,10.8105469 L2.52685547,2.65136719 L0,3.43505859 L0,1.71386719 L4.41650391,0.131835938 L4.64355469,0.131835938 L4.64355469,10.8105469 Z M15.2856445,6.40136719 C15.2856445,7.87598394 14.9804718,9.00390234 14.3701172,9.78515625 C13.7597626,10.5664102 12.8662168,10.9570312 11.6894531,10.9570312 C10.5273379,10.9570312 9.63867495,10.5737343 9.0234375,9.80712891 C8.40820005,9.04052351 8.09326179,7.94190168 8.07861328,6.51123047 L8.07861328,4.54833984 C8.07861328,3.05907458 8.38744808,1.92871479 9.00512695,1.15722656 C9.62280582,0.38573833 10.5126895,0 11.6748047,0 C12.8369199,0 13.7255829,0.382076257 14.3408203,1.14624023 C14.9560578,1.91040421 15.270996,3.00780535 15.2856445,4.43847656 L15.2856445,6.40136719 Z M13.1689453,4.24804688 C13.1689453,3.36425339 13.0480969,2.72094928 12.8063965,2.31811523 C12.5646961,1.91528119 12.1875026,1.71386719 11.6748047,1.71386719 C11.1767553,1.71386719 10.8093274,1.90551566 10.5725098,2.28881836 C10.3356922,2.67212106 10.209961,3.2714803 10.1953125,4.08691406 L10.1953125,6.6796875 C10.1953125,7.54883247 10.3137195,8.19457797 10.5505371,8.61694336 C10.7873547,9.03930875 11.1669896,9.25048828 11.6894531,9.25048828 C12.2070338,9.25048828 12.5805653,9.04785359 12.8100586,8.64257812 C13.0395519,8.23730266 13.1591796,7.61719167 13.1689453,6.78222656 L13.1689453,4.24804688 Z"></path>
        </g>
    </g>
</svg>