<?xml version="1.0" encoding="UTF-8"?>
<svg width="8px" height="11px" viewBox="0 0 8 11" version="1.1" xmlns="http://www.w3.org/2000/svg" xmlns:xlink="http://www.w3.org/1999/xlink">
    <!-- Generator: Sketch 59.1 (86144) - https://sketch.com -->
    <title>pan_5</title>
    <desc>Created with Sketch.</desc>
    <g id="Icons" stroke="none" stroke-width="1" fill="none" fill-rule="evenodd">
        <g id="pan_5" fill="#878787" fill-rule="nonzero">
            <path d="M0.270996094,5.41992187 L0.886230469,0 L6.86279297,0 L6.86279297,1.76513672 L2.62207031,1.76513672 L2.35839844,4.05761719 C2.86133064,3.78906116 3.39599326,3.65478516 3.96240234,3.65478516 C4.97803242,3.65478516 5.7739229,3.96972341 6.35009766,4.59960938 C6.92627241,5.22949534 7.21435547,6.11083418 7.21435547,7.24365234 C7.21435547,7.93213235 7.06909325,8.54858126 6.77856445,9.09301758 C6.48803566,9.63745389 6.07178005,10.059813 5.52978516,10.3601074 C4.98779026,10.6604019 4.34814822,10.8105469 3.61083984,10.8105469 C2.96630537,10.8105469 2.36816682,10.6799329 1.81640625,10.4187012 C1.26464568,10.1574694 0.828859021,9.79004143 0.509033203,9.31640625 C0.189207385,8.84277107 0.0195313477,8.30322568 0,7.69775391 L2.09472656,7.69775391 C2.13867209,8.14209207 2.29369984,8.4875476 2.55981445,8.73413086 C2.82592906,8.98071412 3.17382598,9.10400391 3.60351562,9.10400391 C4.08203364,9.10400391 4.4506823,8.93188649 4.70947266,8.58764648 C4.96826301,8.24340648 5.09765625,7.75635081 5.09765625,7.12646484 C5.09765625,6.52099307 4.94873196,6.05713052 4.65087891,5.73486328 C4.35302585,5.41259604 3.9306668,5.25146484 3.38378906,5.25146484 C2.88085686,5.25146484 2.47314609,5.38329946 2.16064453,5.64697266 L1.95556641,5.83740234 L0.270996094,5.41992187 Z"></path>
        </g>
    </g>
</svg>