<?xml version="1.0" encoding="UTF-8"?>
<svg width="8px" height="11px" viewBox="0 0 8 11" version="1.1" xmlns="http://www.w3.org/2000/svg" xmlns:xlink="http://www.w3.org/1999/xlink">
    <!-- Generator: Sketch 59.1 (86144) - https://sketch.com -->
    <title>pan_2</title>
    <desc>Created with Sketch.</desc>
    <g id="Icons" stroke="none" stroke-width="1" fill="none" fill-rule="evenodd">
        <g id="pan_2" fill="#878787" fill-rule="nonzero">
            <path d="M7.52197266,10.8105469 L0.212402344,10.8105469 L0.212402344,9.36035156 L3.66210938,5.68359375 C4.13574456,5.16601304 4.48608285,4.7143574 4.71313477,4.32861328 C4.94018668,3.94286917 5.05371094,3.57666189 5.05371094,3.22998047 C5.05371094,2.75634529 4.93408323,2.38403456 4.69482422,2.11303711 C4.45556521,1.84203966 4.11377175,1.70654297 3.66943359,1.70654297 C3.19091558,1.70654297 2.81372208,1.87133624 2.5378418,2.20092773 C2.26196151,2.53051923 2.12402344,2.9638645 2.12402344,3.50097656 L0,3.50097656 C0,2.85155925 0.155027747,2.25830347 0.465087891,1.72119141 C0.775148035,1.18407935 1.21337607,0.762940979 1.77978516,0.457763672 C2.34619424,0.152586365 2.98827766,0 3.70605469,0 C4.80469299,0 5.65795594,0.263669238 6.26586914,0.791015625 C6.87378234,1.31836201 7.17773438,2.06298347 7.17773438,3.02490234 C7.17773438,3.55224873 7.04101699,4.08935273 6.76757812,4.63623047 C6.49413926,5.1831082 6.02539395,5.82030886 5.36132812,6.54785156 L2.93701172,9.10400391 L7.52197266,9.10400391 L7.52197266,10.8105469 Z"></path>
        </g>
    </g>
</svg>