<?xml version="1.0" encoding="UTF-8"?>
<svg width="22px" height="22px" viewBox="0 0 22 22" version="1.1" xmlns="http://www.w3.org/2000/svg" xmlns:xlink="http://www.w3.org/1999/xlink">
    <!-- Generator: Sketch 62 (91390) - https://sketch.com -->
    <title>panner_solid</title>
    <desc>Created with Sketch.</desc>
    <g id="Icons" stroke="none" stroke-width="1" fill="none" fill-rule="evenodd">
        <g id="panner_solid">
            <circle id="Panner-Toggle-Copy" fill="#CBCBCB" cx="11" cy="11" r="11"></circle>
            <path d="M9.79501385,16.2857143 L9.79501385,12.3861852 L12.2031394,12.3861852 C13.3899661,12.3861852 14.3194829,12.0953689 14.9916898,11.5137363 C15.6638966,10.9321036 16,10.1585557 16,9.19309262 C16,8.23704867 15.6638966,7.46585557 14.9916898,6.87951334 C14.3194829,6.29317111 13.3899661,6 12.2031394,6 L12.2031394,6 L8,6 L8,16.2857143 L9.79501385,16.2857143 Z M12.2031394,11.0086342 L9.79501385,11.0086342 L9.79501385,7.37755102 L12.2031394,7.37755102 C12.8679594,7.37755102 13.3678055,7.55180534 13.7026777,7.90031397 C14.03755,8.24882261 14.2049861,8.6844584 14.2049861,9.20722135 C14.2049861,9.7299843 14.03755,10.1609105 13.7026777,10.5 C13.3678055,10.8390895 12.8679594,11.0086342 12.2031394,11.0086342 L12.2031394,11.0086342 Z" id="P-Copy-52" fill="#2E3139"></path>
        </g>
    </g>
</svg>