<?xml version="1.0" encoding="UTF-8"?>
<svg width="15px" height="19px" viewBox="0 0 15 19" version="1.1" xmlns="http://www.w3.org/2000/svg" xmlns:xlink="http://www.w3.org/1999/xlink">
    <!-- Generator: Sketch 62 (91390) - https://sketch.com -->
    <title>pause</title>
    <desc>Created with Sketch.</desc>
    <g id="Icons" stroke="none" stroke-width="1" fill="none" fill-rule="evenodd">
        <g id="pause" fill="#000000" fill-rule="nonzero">
            <path d="M4.82142857,19 L1.60714286,19 C0.719866071,19 0,18.0881696 0,16.9642857 L0,2.03571429 C0,0.911830357 0.719866071,0 1.60714286,0 L4.82142857,0 C5.70870536,0 6.42857143,0.911830357 6.42857143,2.03571429 L6.42857143,16.9642857 C6.42857143,18.0881696 5.70870536,19 4.82142857,19 Z M15,16.9642857 L15,2.03571429 C15,0.911830357 14.2801339,0 13.3928571,0 L10.1785714,0 C9.29129464,0 8.57142857,0.911830357 8.57142857,2.03571429 L8.57142857,16.9642857 C8.57142857,18.0881696 9.29129464,19 10.1785714,19 L13.3928571,19 C14.2801339,19 15,18.0881696 15,16.9642857 Z" id="Shape"></path>
        </g>
    </g>
</svg>