<?xml version="1.0" encoding="UTF-8"?>
<svg width="512px" height="512px" viewBox="0 0 512 512" version="1.1" xmlns="http://www.w3.org/2000/svg" xmlns:xlink="http://www.w3.org/1999/xlink">
    <!-- Generator: Sketch 55.2 (78181) - https://sketchapp.com -->
    <title>pencil-alt</title>
    <desc>Created with Sketch.</desc>
    <g id="Page-1" stroke="none" stroke-width="1" fill="none" fill-rule="evenodd">
        <g id="pencil-alt" fill="#878787" fill-rule="nonzero">
            <path d="M491.609,73.625 L437.748,19.786 C411.37,-6.593 368.673,-6.597 342.288,19.785 L24.91,335.089 L0.329,484.085 C-2.346,500.3 11.697,514.346 27.916,511.672 L176.911,487.09 L492.237,169.712 C518.567,143.381 518.818,100.833 491.609,73.625 Z M200.443,311.557 C204.739,315.853 210.37,318 216,318 C221.63,318 227.261,315.853 231.557,311.557 L350.586,192.527 L379.155,221.096 L210,391.355 L210,350 L162,350 L162,302 L120.644,302 L290.903,132.845 L319.472,161.414 L200.442,280.443 C191.853,289.035 191.853,302.965 200.443,311.557 L200.443,311.557 Z M82.132,458.132 L53.869,429.869 L66.009,356.282 L84.409,338 L126,338 L126,386 L174,386 L174,427.59 L155.718,445.991 L82.132,458.132 L82.132,458.132 Z M461.117,138.599 L461.066,138.65 L461.015,138.701 L412.985,187.045 L324.955,99.015 L373.299,50.985 L373.349,50.935 L373.399,50.885 C382.546,41.739 397.377,41.626 406.635,50.884 L460.489,104.738 C470.367,114.615 470.428,129.287 461.117,138.599 L461.117,138.599 Z" id="Shape"></path>
        </g>
    </g>
</svg>