<?xml version="1.0" encoding="UTF-8"?>
<svg width="22px" height="22px" viewBox="0 0 22 22" version="1.1" xmlns="http://www.w3.org/2000/svg" xmlns:xlink="http://www.w3.org/1999/xlink">
    <title>Shape</title>
    <g id="Page-1" stroke="none" stroke-width="1" fill="none" fill-rule="evenodd">
        <g id="Drawing-a-Path" transform="translate(-898.000000, -685.000000)" fill="#FFFFFF" fill-rule="nonzero" stroke="#000000" stroke-width="0.5">
            <g id="pencil" transform="translate(899.000000, 685.180727)">
                <path d="M19.4491933,6.32833218 L17.6483287,8.12918509 C17.4647264,8.31278614 17.1678377,8.31278614 16.9842354,8.12918509 L12.6480973,3.79307505 C12.464495,3.609474 12.464495,3.31258718 12.6480973,3.12898613 L14.4489618,1.32813322 C15.1794644,0.597635408 16.3670194,0.597635408 17.1014284,1.32813322 L19.4491933,3.67588289 C20.1836022,4.40638071 20.1836022,5.59392796 19.4491933,6.32833218 Z M11.1011507,4.67592268 L0.842863414,14.9341434 L0.0147000868,19.680426 C-0.098586406,20.3210764 0.460033197,20.875786 1.10068785,20.7664067 L5.84700125,19.9343423 L16.1052885,9.67612164 C16.2888908,9.49252058 16.2888908,9.19563377 16.1052885,9.01203271 L11.7691503,4.67592268 C11.5816417,4.49232163 11.2847529,4.49232163 11.1011507,4.67592268 Z M3.43673346,17.3404891 L5.31182024,17.3404891 L5.31182024,18.7585143 L2.79217238,19.1999381 L1.5772724,17.985046 L2.01869908,15.4654145 L3.43673346,15.4654145 L3.43673346,17.3404891 Z" id="Shape"></path>
            </g>
        </g>
    </g>
</svg>