<svg width="13" height="13" viewBox="0 0 13 13" fill="none" xmlns="http://www.w3.org/2000/svg">
<g fill="#ffffff">
<path d="M4.01786 0C4.75725 0 5.35714 0.599609 5.35714 1.33929V4.01786C5.35714 4.75725 4.75725 5.35714 4.01786 5.35714H1.33929C0.599609 5.35714 0 4.75725 0 4.01786V1.33929C0 0.599609 0.599609 0 1.33929 0H4.01786ZM3.57143 1.78571H1.78571V3.57143H3.57143V1.78571ZM4.01786 7.14286C4.75725 7.14286 5.35714 7.74275 5.35714 8.48214V11.1607C5.35714 11.9001 4.75725 12.5 4.01786 12.5H1.33929C0.599609 12.5 0 11.9001 0 11.1607V8.48214C0 7.74275 0.599609 7.14286 1.33929 7.14286H4.01786ZM3.57143 8.92857H1.78571V10.7143H3.57143V8.92857ZM7.14286 1.33929C7.14286 0.599609 7.74275 0 8.48214 0H11.1607C11.9001 0 12.5 0.599609 12.5 1.33929V4.01786C12.5 4.75725 11.9001 5.35714 11.1607 5.35714H8.48214C7.74275 5.35714 7.14286 4.75725 7.14286 4.01786V1.33929ZM8.92857 3.57143H10.7143V1.78571H8.92857V3.57143ZM9.82143 11.6071H10.7143V12.5H9.82143V11.6071ZM12.5 12.5H11.6071V11.6071H12.5V12.5ZM11.6071 7.14286H12.5V10.7143H9.82143V9.82143H8.92857V12.5H7.14286V7.14286H9.82143V8.03571H11.6071V7.14286Z"/>
</g>
</svg>
