<?xml version="1.0" encoding="UTF-8"?>
<svg width="496px" height="496px" viewBox="0 0 496 496" version="1.1" xmlns="http://www.w3.org/2000/svg" xmlns:xlink="http://www.w3.org/1999/xlink">
    <!-- Generator: Sketch 55.2 (78181) - https://sketchapp.com -->
    <title>redo-alt</title>
    <desc>Created with Sketch.</desc>
    <g id="Page-1" stroke="none" stroke-width="1" fill="none" fill-rule="evenodd">
        <g id="redo-alt" fill="#878787" fill-rule="nonzero">
            <path d="M475.515,20.485 L423.35,72.65 C378.475,27.767 316.485,0 248.001,0 C111.34,0 -0.1,111.525 -6.72482293e-05,248.185 C0.1,385.067 111.095,496 248,496 C311.926,496 370.202,471.813 414.178,432.092 C419.291,427.474 419.531,419.531 414.66,414.659 L394.922,394.921 C390.424,390.423 383.169,390.136 378.421,394.369 C343.787,425.246 298.105,444 248,444 C139.679,444 52,356.338 52,248 C52,139.679 139.662,52 248,52 C302.163,52 351.157,73.923 386.614,109.386 L332.486,163.515 C324.926,171.075 330.28,184 340.971,184 L484,184 C490.627,184 496,178.627 496,172 L496,28.971 C496,18.28 483.074,12.926 475.515,20.485 Z" id="Path"></path>
        </g>
    </g>
</svg>