<?xml version="1.0" encoding="UTF-8"?>
<svg width="12px" height="12px" viewBox="0 0 12 12" version="1.1" xmlns="http://www.w3.org/2000/svg" xmlns:xlink="http://www.w3.org/1999/xlink">
    <!-- Generator: Sketch 62 (91390) - https://sketch.com -->
    <title>region_of_interest</title>
    <desc>Created with Sketch.</desc>
    <g id="Icons" stroke="none" stroke-width="1" fill="none" fill-rule="evenodd">
        <g id="Layer-Icons" transform="translate(-187.000000, -424.000000)" fill="#FFFFFF" fill-rule="nonzero">
            <g id="region_of_interest" transform="translate(187.000000, 424.000000)">
                <path d="M11.7567188,2.15882812 L6.2634375,0.0478125 C6.09367817,-0.0159365521 5.90655621,-0.0159365521 5.73679688,0.0478125 L0.24328125,2.15882812 C0.0969505703,2.21373192 0,2.35363018 0,2.50992187 L0,3.375 C0,3.5821875 0.1678125,3.75 0.375,3.75 L11.625,3.75 C11.8321875,3.75 12,3.5821875 12,3.375 L12,2.50992187 C12,2.35359375 11.9029687,2.21367188 11.7567188,2.15882812 Z M1.5,4.5 L1.5,8.25 L1.125,8.25 C0.9178125,8.25 0.75,8.4178125 0.75,8.625 L0.75,9.75 L11.25,9.75 L11.25,8.625 C11.25,8.4178125 11.0821875,8.25 10.875,8.25 L10.5,8.25 L10.5,4.5 L9,4.5 L9,8.25 L6.75,8.25 L6.75,4.5 L5.25,4.5 L5.25,8.25 L3,8.25 L3,4.5 L1.5,4.5 Z M11.625,10.5 L0.375,10.5 C0.1678125,10.5 0,10.6678125 0,10.875 L0,11.625 C0,11.8321875 0.1678125,12 0.375,12 L11.625,12 C11.8321875,12 12,11.8321875 12,11.625 L12,10.875 C12,10.6678125 11.8321875,10.5 11.625,10.5 Z" id="Shape"></path>
            </g>
        </g>
    </g>
</svg>