<?xml version="1.0" encoding="UTF-8"?>
<svg width="13px" height="13px" viewBox="0 0 13 13" version="1.1" xmlns="http://www.w3.org/2000/svg" xmlns:xlink="http://www.w3.org/1999/xlink">
    <title>_minus-circle</title>
    <g id="Page-1" stroke="none" stroke-width="1" fill="none" fill-rule="evenodd">
        <g id="_minus-circle" fill="#FFFFFF" fill-rule="nonzero">
            <path d="M6.5,0 C2.90927419,0 0,2.90927419 0,6.5 C0,10.0907258 2.90927419,13 6.5,13 C10.0907258,13 13,10.0907258 13,6.5 C13,2.90927419 10.0907258,0 6.5,0 Z M3.04032258,7.5483871 C2.86662012,7.5483871 2.72580645,7.40757343 2.72580645,7.23387097 L2.72580645,5.76612903 C2.72580645,5.59242657 2.86662012,5.4516129 3.04032258,5.4516129 L9.95967742,5.4516129 C10.1333799,5.4516129 10.2741935,5.59242657 10.2741935,5.76612903 L10.2741935,7.23387097 C10.2741935,7.40757343 10.1333799,7.5483871 9.95967742,7.5483871 L3.04032258,7.5483871 Z" id="Shape"></path>
        </g>
    </g>
</svg>