<?xml version="1.0" encoding="UTF-8"?>
<svg width="22px" height="22px" viewBox="0 0 22 22" version="1.1" xmlns="http://www.w3.org/2000/svg" xmlns:xlink="http://www.w3.org/1999/xlink">
    <!-- Generator: Sketch 62 (91390) - https://sketch.com -->
    <title>resize_hoverselect</title>
    <desc>Created with Sketch.</desc>
    <g id="Page-1" stroke="none" stroke-width="1" fill="none" fill-rule="evenodd">
        <g id="resize_hoverselect" fill="#F9C062" fill-rule="nonzero">
            <path d="M8.59327994,12.3728516 L3.77983981,12.3728516 C2.86012893,12.3728516 2.40027349,13.4814453 3.04922836,14.1345703 L4.4631764,15.4666016 L0.199843719,19.7333984 C-0.0666145732,19.9998047 -0.0666145732,20.4380859 0.199843719,20.7044922 L1.29146318,21.7958984 C1.55792147,22.0623047 1.99628834,22.0623047 2.26274663,21.7958984 L6.53037703,17.5291016 L7.8669662,18.9470703 C8.51592108,19.5958984 9.62473139,19.1361328 9.62473139,18.2166016 L9.62473139,13.4041016 C9.62473139,12.8326172 9.16487595,12.3728516 8.59327994,12.3728516 Z M13.4067201,9.62285156 L18.2201602,9.62285156 C19.1398711,9.62285156 19.5997265,8.50996094 18.9507716,7.86113281 L17.5325259,6.52910156 L21.8001563,2.26230469 C22.0666146,1.99589844 22.0666146,1.55761719 21.8001563,1.29121094 L20.7085368,0.199804687 C20.4420785,-0.0666015625 20.0037117,-0.0666015625 19.7372534,0.199804687 L15.469623,4.46660156 L14.1330338,3.04863281 C13.4840789,2.39980469 12.3752686,2.85957031 12.3752686,3.77910156 L12.3752686,8.59160156 C12.3752686,9.16308594 12.835124,9.62285156 13.4067201,9.62285156 Z M17.5325259,15.4666016 L18.9507716,14.1302734 C19.5997265,13.4814453 19.1398711,12.3728516 18.2201602,12.3728516 L13.4067201,12.3728516 C12.835124,12.3728516 12.3752686,12.8326172 12.3752686,13.4041016 L12.3752686,18.2166016 C12.3752686,19.1361328 13.4883766,19.5958984 14.1373315,18.9470703 L15.469623,17.5333984 L19.7372534,21.8001953 C20.0037117,22.0666016 20.4420785,22.0666016 20.7085368,21.8001953 L21.8001563,20.7087891 C22.0666146,20.4423828 22.0666146,20.0041016 21.8001563,19.7376953 L17.5325259,15.4666016 Z M7.86266849,3.05292969 L6.53037703,4.46660156 L2.26274663,0.199804687 C1.99628834,-0.0666015625 1.55792147,-0.0666015625 1.29146318,0.199804687 L0.199843719,1.29121094 C-0.0666145732,1.55761719 -0.0666145732,1.99589844 0.199843719,2.26230469 L4.46747412,6.52910156 L3.04922836,7.86542969 C2.40027349,8.51425781 2.86012893,9.62285156 3.77983981,9.62285156 L8.59327994,9.62285156 C9.16487595,9.62285156 9.62473139,9.16308594 9.62473139,8.59160156 L9.62473139,3.77910156 C9.62473139,2.86386719 8.51162336,2.40410156 7.86266849,3.05292969 Z" id="Shape"></path>
        </g>
    </g>
</svg>