<?xml version="1.0" encoding="UTF-8"?>
<svg width="22px" height="22px" viewBox="0 0 22 22" version="1.1" xmlns="http://www.w3.org/2000/svg" xmlns:xlink="http://www.w3.org/1999/xlink">
    <!-- Generator: Sketch 62 (91390) - https://sketch.com -->
    <title>resize_unselected</title>
    <desc>Created with Sketch.</desc>
    <g id="Page-1" stroke="none" stroke-width="1" fill="none" fill-rule="evenodd">
        <g id="resize_unselected" fill="#FFFFFF" fill-rule="nonzero">
            <path d="M13.406015,9.62513426 L18.2180451,9.62513426 C19.1374866,9.62513426 19.5972073,8.51235231 18.9484425,7.86358754 L17.027927,5.94307197 L21.9001074,1.07518797 C22.0332975,0.941997852 22.0332975,0.722878625 21.9001074,0.589688507 L21.4103115,0.0998925886 C21.2771214,-0.0332975295 21.0580021,-0.0332975295 20.924812,0.0998925886 L16.0526316,4.97207304 L14.1364125,3.05585392 C13.9258861,2.8453276 13.6680988,2.75080559 13.4146079,2.75080559 C12.8861439,2.75080559 12.3748657,3.16326531 12.3748657,3.78625134 L12.3748657,8.59828142 C12.3748657,9.16541353 12.8345865,9.62513426 13.406015,9.62513426 Z M13.7497315,4.61117078 L17.3888292,8.25026853 L13.7497315,8.25026853 L13.7497315,4.61117078 Z M17.027927,16.0526316 L18.9484425,14.132116 C19.1589689,13.9215897 19.2534909,13.6638024 19.2534909,13.4103115 C19.2534909,12.8818475 18.8410311,12.3705693 18.2180451,12.3705693 L13.406015,12.3705693 C12.8345865,12.3705693 12.3748657,12.83029 12.3748657,13.4017186 L12.3748657,18.2137487 C12.3748657,19.1331901 13.4876477,19.5929108 14.1364125,18.9441461 L16.056928,17.0236305 L20.924812,21.9001074 C21.0580021,22.0332975 21.2771214,22.0332975 21.4103115,21.9001074 L21.895811,21.4146079 C22.0290011,21.2814178 22.0290011,21.0622986 21.895811,20.9291085 L17.027927,16.0526316 Z M13.7497315,17.3888292 L13.7497315,13.7497315 L17.3888292,13.7497315 L13.7497315,17.3888292 Z M8.59398496,12.3748657 L3.78195489,12.3748657 C2.86251343,12.3748657 2.4027927,13.4876477 3.05155747,14.1364125 L4.97207304,16.056928 L0.0998925886,20.924812 C-0.0332975295,21.0580021 -0.0332975295,21.2771214 0.0998925886,21.4103115 L0.585392052,21.895811 C0.71858217,22.0290011 0.937701396,22.0290011 1.07089151,21.895811 L5.94307197,17.0236305 L7.86358754,18.9441461 C8.07411386,19.1546724 8.33190118,19.2491944 8.58539205,19.2491944 C9.11385607,19.2491944 9.62513426,18.8367347 9.62513426,18.2137487 L9.62513426,13.406015 C9.62513426,12.8345865 9.16541353,12.3748657 8.59398496,12.3748657 Z M8.25026853,17.3888292 L4.61117078,13.7497315 L8.25026853,13.7497315 L8.25026853,17.3888292 Z M7.86358754,3.05585392 L5.94307197,4.9763695 L1.07518797,0.0998925886 C0.941997852,-0.0332975295 0.722878625,-0.0332975295 0.589688507,0.0998925886 L0.0998925886,0.589688507 C-0.0332975295,0.722878625 -0.0332975295,0.941997852 0.0998925886,1.07518797 L4.97207304,5.94736842 L3.05585392,7.86358754 C2.8453276,8.07411386 2.75080559,8.33190118 2.75080559,8.58539205 C2.75080559,9.11385607 3.16326531,9.62513426 3.78625134,9.62513426 L8.59828142,9.62513426 C9.16970999,9.62513426 9.62943072,9.16541353 9.62943072,8.59398496 L9.62943072,3.78195489 C9.62513426,2.86680988 8.51235231,2.40708915 7.86358754,3.05585392 Z M8.25026853,8.25026853 L4.61117078,8.25026853 L8.25026853,4.61117078 L8.25026853,8.25026853 L8.25026853,8.25026853 Z" id="Shape"></path>
        </g>
    </g>
</svg>