<?xml version="1.0" encoding="UTF-8"?>
<svg width="26px" height="19px" viewBox="0 0 26 19" version="1.1" xmlns="http://www.w3.org/2000/svg" xmlns:xlink="http://www.w3.org/1999/xlink">
    <!-- Generator: Sketch 62 (91390) - https://sketch.com -->
    <title>ruler_hoverselect</title>
    <desc>Created with Sketch.</desc>
    <g id="Page-1" stroke="none" stroke-width="1" fill="none" fill-rule="evenodd">
        <g id="ruler_hoverselect" fill="#F9C062" fill-rule="nonzero">
            <path d="M25.8260563,6.02686275 L22.5925011,0.663875669 C22.2350226,0.0701870625 21.4428828,-0.131667064 20.82542,0.208714404 L18.0224639,1.75626271 L20.4476303,5.78147146 C20.5369999,5.93187257 20.4841906,6.117895 20.3298249,6.20496933 L19.7692337,6.51368741 C19.614868,6.60076173 19.4158175,6.54930872 19.3264478,6.39890761 L16.9012814,2.37765678 L14.6589165,3.61648701 L15.7922857,5.492543 C15.8816554,5.64294412 15.828846,5.82896655 15.6744803,5.91604087 L15.1138891,6.22475895 C14.9595234,6.31183328 14.7604729,6.26038027 14.6711033,6.10997915 L13.537734,4.23788108 L11.2953691,5.47671131 L13.7245978,9.50192006 C13.8139674,9.64836325 13.7611581,9.8383436 13.6067924,9.92541793 L13.0462012,10.234136 C12.8918355,10.3212103 12.692785,10.2697573 12.6034153,10.1193562 L10.1782489,6.09414746 L7.93588401,7.33297768 L9.06925323,9.20903368 C9.15862285,9.35943479 9.10581353,9.54545722 8.95144783,9.63253155 L8.3908566,9.94124963 C8.2364909,10.028324 8.03744039,9.97687094 7.94807077,9.82646983 L6.81470155,7.94645591 L4.57233663,9.18528613 L6.99750304,13.2104949 C7.08687265,13.3569381 7.03406333,13.5469184 6.87969763,13.6339928 L6.3191064,13.9427108 C6.1647407,14.0297852 5.96569019,13.9783322 5.87632058,13.827931 L3.45115417,9.81459606 L0.648198023,11.3621444 C0.0307352192,11.7064838 -0.184564311,12.4624472 0.172914154,13.0561358 L3.40646936,18.4230809 C3.76394783,19.0167695 4.55608761,19.2186236 5.17355041,18.8782421 L25.3548347,7.72085424 C25.9722975,7.38047277 26.1835348,6.62055135 25.8260563,6.02686275 Z" id="Path"></path>
        </g>
    </g>
</svg>