<?xml version="1.0" encoding="UTF-8"?>
<svg width="26px" height="20px" viewBox="0 0 26 20" version="1.1" xmlns="http://www.w3.org/2000/svg" xmlns:xlink="http://www.w3.org/1999/xlink">
    <!-- Generator: Sketch 62 (91390) - https://sketch.com -->
    <title>ruler_unselected</title>
    <desc>Created with Sketch.</desc>
    <g id="Page-1" stroke="none" stroke-width="1" fill="none" fill-rule="evenodd">
        <g id="ruler_unselected" fill="#FFFFFF" fill-rule="nonzero">
            <path d="M25.8261805,6.03282034 L22.59223,0.66266252 C22.3525276,0.265449976 21.9178132,0.0434782609 21.4709105,0.0434782609 C21.2515219,0.0434782609 21.0280705,0.0979976296 20.8249329,0.210930608 L0.645244192,11.36793 C0.0277059019,11.7067289 -0.183557197,12.4661058 0.173964971,13.0580304 L3.40791549,18.424294 C3.64761785,18.8215065 4.08233231,19.0434783 4.52923502,19.0434783 C4.74862362,19.0434783 4.97207497,18.9889589 5.17521257,18.8760259 L25.3508385,7.71902653 C25.9724396,7.38412184 26.1837027,6.62474491 25.8261805,6.03282034 Z M4.52923502,17.809004 L1.2952845,12.4388462 L4.09858331,10.8889384 L5.87806865,13.8407728 C5.96744919,13.9887539 6.16652404,14.0393791 6.32090861,13.9537058 L6.88156837,13.6421665 C7.03595294,13.5564932 7.08876872,13.3656754 6.99938818,13.2176943 L5.21990284,10.2658599 L7.46254189,9.02749138 L8.59604968,10.9045154 C8.68543022,11.0524965 8.88450506,11.1031216 9.03888963,11.0174483 L9.5995494,10.7059091 C9.75393397,10.6202358 9.80674974,10.429418 9.7173692,10.2814369 L8.58386142,8.40441288 L10.8265005,7.16604436 L12.6059858,10.1178788 C12.6953664,10.2658599 12.8944412,10.316485 13.0488258,10.2308117 L13.6094855,9.91927248 C13.7638701,9.83359919 13.8166859,9.6427814 13.7273053,9.49480025 L11.9437572,6.55075434 L14.1863963,5.31238582 L15.3199041,7.1894098 C15.4092846,7.33739095 15.6083595,7.38801608 15.762744,7.30234278 L16.3234038,6.99080353 C16.4777884,6.90513024 16.5306042,6.71431245 16.4412236,6.5663313 L15.3077158,4.68930732 L17.5503549,3.45093881 L19.3298402,6.4027732 C19.4192208,6.55075434 19.6182956,6.60137947 19.7726802,6.51570618 L20.3333399,6.20416693 C20.4877245,6.11849363 20.5405403,5.92767584 20.4511597,5.7796947 L18.6716744,2.82786031 L21.4749732,1.27795254 L24.7089237,6.64421612 L4.52923502,17.809004 Z" id="Shape"></path>
        </g>
    </g>
</svg>