<?xml version="1.0" encoding="UTF-8"?>
<svg width="448px" height="448px" viewBox="0 0 448 448" version="1.1" xmlns="http://www.w3.org/2000/svg" xmlns:xlink="http://www.w3.org/1999/xlink">
    <!-- Generator: Sketch 55.2 (78181) - https://sketchapp.com -->
    <title>save</title>
    <desc>Created with Sketch.</desc>
    <g id="Page-1" stroke="none" stroke-width="1" fill="none" fill-rule="evenodd">
        <g id="save" fill="#878787" fill-rule="nonzero">
            <path d="M433.941,97.941 L350.059,14.059 C341.057305,5.05723856 328.848366,0 316.118,0 L48,0 C21.49,0 0,21.49 0,48 L0,400 C0,426.51 21.49,448 48,448 L400,448 C426.51,448 448,426.51 448,400 L448,131.882 C448,119.151634 442.942761,106.942695 433.941,97.941 Z M224,384 C188.654,384 160,355.346 160,320 C160,284.654 188.654,256 224,256 C259.346,256 288,284.654 288,320 C288,355.346 259.346,384 224,384 Z M320,79.48 L320,180 C320,186.627 314.627,192 308,192 L76,192 C69.373,192 64,186.627 64,180 L64,76 C64,69.373 69.373,64 76,64 L304.52,64 C307.703,64 310.755,65.264 313.005,67.515 L316.485,70.995 C318.735843,73.2450725 320,76.2973718 320,79.48 Z" id="Shape"></path>
        </g>
    </g>
</svg>