<?xml version="1.0" encoding="UTF-8"?>
<svg width="12px" height="12px" viewBox="0 0 12 12" version="1.1" xmlns="http://www.w3.org/2000/svg" xmlns:xlink="http://www.w3.org/1999/xlink">
    <!-- Generator: Sketch 62 (91390) - https://sketch.com -->
    <title>Shape</title>
    <desc>Created with Sketch.</desc>
    <g id="Page-1" stroke="none" stroke-width="1" fill="none" fill-rule="evenodd">
        <g id="Standard-Views" transform="translate(-52.000000, -691.000000)" fill="#FFFFFF" fill-rule="nonzero">
            <g id="ruler-combined" transform="translate(52.000000, 691.000000)">
                <path d="M3.75,6.75 L1.1953125,6.75 C1.09171875,6.75 1.0078125,6.66609375 1.0078125,6.5625 L1.0078125,6.1875 C1.0078125,6.08390625 1.09171875,6 1.1953125,6 L3.75,6 L3.75,4.5 L2.4375,4.5 C2.33390625,4.5 2.25,4.41609375 2.25,4.3125 L2.25,3.9375 C2.25,3.83390625 2.33390625,3.75 2.4375,3.75 L3.75,3.75 L3.75,2.25 L1.21875,2.25 C1.11515625,2.25 1.03125,2.16609375 1.03125,2.0625 L1.03125,1.6875 C1.03125,1.58390625 1.11515625,1.5 1.21875,1.5 L3.75,1.5 L3.75,0.75 C3.75,0.335859375 3.41414062,0 3,0 L0.75,0 C0.335859375,0 0,0.335859375 0,0.75 L0,11.25 C0,11.3149219 0.021328125,11.3728125 0.036796875,11.4328125 L3.75,7.71984375 L3.75,6.75 Z M11.25,8.25 L10.5,8.25 L10.5,9.5625 C10.5,9.66609375 10.4160938,9.75 10.3125,9.75 L9.9375,9.75 C9.83390625,9.75 9.75,9.66609375 9.75,9.5625 L9.75,8.25 L8.25,8.25 L8.25,10.875 C8.25,10.9785938 8.16609375,11.0625 8.0625,11.0625 L7.6875,11.0625 C7.58390625,11.0625 7.5,10.9785938 7.5,10.875 L7.5,8.25 L6,8.25 L6,9.5625 C6,9.66609375 5.91609375,9.75 5.8125,9.75 L5.4375,9.75 C5.33390625,9.75 5.25,9.66609375 5.25,9.5625 L5.25,8.25 L4.28039063,8.25 L0.5671875,11.9632031 C0.6271875,11.9786719 0.6853125,12 0.75,12 L11.25,12 C11.6641406,12 12,11.6641406 12,11.25 L12,9 C12,8.58585938 11.6641406,8.25 11.25,8.25 Z" id="Shape"></path>
            </g>
        </g>
    </g>
</svg>