<?xml version="1.0" encoding="UTF-8"?>
<svg width="18px" height="19px" viewBox="0 0 18 19" version="1.1" xmlns="http://www.w3.org/2000/svg" xmlns:xlink="http://www.w3.org/1999/xlink">
    <!-- Generator: Sketch 58 (84663) - https://sketch.com -->
    <title>search</title>
    <desc>Created with Sketch.</desc>
    <g id="Symbols" stroke="none" stroke-width="1" fill="none" fill-rule="evenodd">
        <g id="search" fill="#000000" fill-rule="nonzero">
            <path d="M17.8760803,17.4339607 L13.6083199,13.1662004 C13.5274645,13.085345 13.4220009,13.0431595 13.3095064,13.0431595 L12.8454665,13.0431595 C13.9528343,11.760019 14.6242859,10.0901787 14.6242859,8.26214296 C14.6242859,4.22288707 11.3513989,0.95 7.31214296,0.95 C3.27288707,0.95 0,4.22288707 0,8.26214296 C0,12.3013989 3.27288707,15.5742859 7.31214296,15.5742859 C9.1401787,15.5742859 10.810019,14.9028343 12.0931595,13.7954665 L12.0931595,14.2595064 C12.0931595,14.3720009 12.1388604,14.4774645 12.2162004,14.5583199 L16.4839607,18.8260803 C16.6491871,18.9913066 16.9163615,18.9913066 17.0815878,18.8260803 L17.8760803,18.0315878 C18.0413066,17.8663615 18.0413066,17.5991871 17.8760803,17.4339607 Z M7.31214296,13.8868683 C4.2044822,13.8868683 1.68741761,11.3698037 1.68741761,8.26214296 C1.68741761,5.1544822 4.2044822,2.63741761 7.31214296,2.63741761 C10.4198037,2.63741761 12.9368683,5.1544822 12.9368683,8.26214296 C12.9368683,11.3698037 10.4198037,13.8868683 7.31214296,13.8868683 Z" id="Shape"></path>
        </g>
    </g>
</svg>