<?xml version="1.0" encoding="UTF-8"?>
<svg width="513px" height="513px" viewBox="0 0 513 513" version="1.1" xmlns="http://www.w3.org/2000/svg" xmlns:xlink="http://www.w3.org/1999/xlink">
    <!-- Generator: Sketch 55.2 (78181) - https://sketchapp.com -->
    <title>search-minus</title>
    <desc>Created with Sketch.</desc>
    <g id="Page-1" stroke="none" stroke-width="1" fill="none" fill-rule="evenodd">
        <g id="search-minus" fill="#878787" fill-rule="nonzero">
            <path d="M312,196 L312,220 C312,226.6 306.6,232 300,232 L116,232 C109.4,232 104,226.6 104,220 L104,196 C104,189.4 109.4,184 116,184 L300,184 C306.6,184 312,189.4 312,196 Z M508.5,485.9 L485.9,508.5 C481.2,513.2 473.6,513.2 468.9,508.5 L347.5,387.1 C345.2,384.8 344,381.8 344,378.6 L344,365.4 C307.5,396.9 260,416 208,416 C93.1,416 0,322.9 0,208 C0,93.1 93.1,0 208,0 C322.9,0 416,93.1 416,208 C416,260 396.9,307.5 365.4,344 L378.6,344 C381.8,344 384.8,345.3 387.1,347.5 L508.5,468.9 C513.2,473.6 513.2,481.2 508.5,485.9 Z M368,208 C368,119.6 296.4,48 208,48 C119.6,48 48,119.6 48,208 C48,296.4 119.6,368 208,368 C296.4,368 368,296.4 368,208 Z" id="Shape"></path>
        </g>
    </g>
</svg>