<?xml version="1.0" encoding="UTF-8"?>
<svg width="16px" height="16px" viewBox="0 0 16 16" version="1.1" xmlns="http://www.w3.org/2000/svg" xmlns:xlink="http://www.w3.org/1999/xlink">
    <!-- Generator: Sketch 60 (88103) - https://sketch.com -->
    <title>Shape</title>
    <desc>Created with Sketch.</desc>
    <g id="Symbols" stroke="none" stroke-width="1" fill="none" fill-rule="evenodd">
        <g id="cog" fill="#FFFFFF" fill-rule="nonzero">
            <path d="M14.9084086,9.92257338 L13.562638,9.12902799 C13.6984787,8.38064372 13.6984787,7.61290469 13.562638,6.86452042 L14.9084086,6.07097503 C15.0632038,5.98065279 15.1327037,5.79355673 15.0821584,5.61936384 C14.7314998,4.47098108 14.1344326,3.43227533 13.3541384,2.56776246 C13.2340931,2.4355049 13.0382298,2.40324696 12.8865936,2.4935692 L11.540823,3.28711458 C10.9753466,2.79034227 10.3245749,2.40647275 9.62009878,2.1548608 L9.62009878,0.570995817 C9.62009878,0.390351338 9.49689443,0.232287419 9.32314471,0.193577888 C8.16376017,-0.0709372414 6.97594386,-0.0580340643 5.87342286,0.193577888 C5.69967314,0.232287419 5.57646879,0.390351338 5.57646879,0.570995817 L5.57646879,2.15808659 C4.87515171,2.41292434 4.22438001,2.79679386 3.65574454,3.29034038 L2.31313302,2.49679499 C2.1583378,2.40647275 1.96563356,2.4355049 1.8455883,2.57098826 C1.06529407,3.43227533 0.46822683,4.47098108 0.117568291,5.62258963 C0.0638638299,5.79678252 0.136522806,5.98387859 0.291318017,6.07420083 L1.63708863,6.86774621 C1.50124793,7.61613048 1.50124793,8.38386952 1.63708863,9.13225379 L0.291318017,9.92579917 C0.136522806,10.0161214 0.0670229159,10.2032175 0.117568291,10.3774104 C0.46822683,11.5257931 1.06529407,12.5644989 1.8455883,13.4290117 C1.96563356,13.5612693 2.16149689,13.5935272 2.31313302,13.503205 L3.65890362,12.7096596 C4.22438001,13.2064319 4.87515171,13.5903015 5.57962787,13.8419134 L5.57962787,15.4290042 C5.57962787,15.6096487 5.70283222,15.7677126 5.87658195,15.8064221 C7.03596649,16.0709372 8.2237828,16.0580341 9.32630379,15.8064221 C9.50005352,15.7677126 9.62325787,15.6096487 9.62325787,15.4290042 L9.62325787,13.8419134 C10.3245749,13.5870757 10.9753466,13.2032061 11.5439821,12.7096596 L12.8897527,13.503205 C13.0445479,13.5935272 13.2372522,13.5644951 13.3572974,13.4290117 C14.1375917,12.5677247 14.7346589,11.5290189 15.0853175,10.3774104 C15.1327037,10.1999917 15.0632038,10.0128956 14.9084086,9.92257338 Z M7.59828379,10.5774096 C6.20512689,10.5774096 5.07101504,9.41934947 5.07101504,7.99677421 C5.07101504,6.57419894 6.20512689,5.4161388 7.59828379,5.4161388 C8.99144068,5.4161388 10.1255525,6.57419894 10.1255525,7.99677421 C10.1255525,9.41934947 8.99144068,10.5774096 7.59828379,10.5774096 Z" id="Shape"></path>
        </g>
    </g>
</svg>