<?xml version="1.0" encoding="UTF-8"?>
<svg width="12px" height="13px" viewBox="0 0 12 13" version="1.1" xmlns="http://www.w3.org/2000/svg" xmlns:xlink="http://www.w3.org/1999/xlink">
    <!-- Generator: Sketch 62 (91390) - https://sketch.com -->
    <title>shapes</title>
    <desc>Created with Sketch.</desc>
    <g id="Icons" stroke="none" stroke-width="1" fill="none" fill-rule="evenodd">
        <g id="Layer-Icons" transform="translate(-188.000000, -696.000000)" fill="#FFFFFF" fill-rule="nonzero">
            <g id="shapes" transform="translate(188.000000, 696.000000)">
                <path d="M12,7.54377365 L12,11.293792 C12,11.7079346 11.6641406,12.0437956 11.25,12.0437956 L7.5,12.0437956 C7.08585938,12.0437956 6.75,11.7079346 6.75,11.293792 L6.75,7.54377365 C6.75,7.129631 7.08585938,6.79376999 7.5,6.79376999 L11.25,6.79376999 C11.6641406,6.79376999 12,7.129631 12,7.54377365 Z M3,6.04376632 C1.34320313,6.04376632 0,7.38697601 0,9.04378097 C0,10.7005859 1.34320313,12.0437956 3,12.0437956 C4.65679687,12.0437956 6,10.7005859 6,9.04378097 C6,7.38697601 4.65679687,6.04376632 3,6.04376632 Z M11.2272656,5.29376266 C11.8211719,5.29376266 12.1924219,4.66868148 11.8954687,4.16875717 L9.66820312,0.418738857 C9.37125,-0.0811854586 8.62875,-0.0811854586 8.33179688,0.418738857 L6.10453125,4.16875717 C5.80757813,4.66868148 6.17882813,5.29376266 6.77273438,5.29376266 L11.2272656,5.29376266 L11.2272656,5.29376266 Z" id="Shape"></path>
            </g>
        </g>
    </g>
</svg>