<?xml version="1.0" encoding="UTF-8"?>
<svg width="12px" height="10px" viewBox="0 0 12 10" version="1.1" xmlns="http://www.w3.org/2000/svg" xmlns:xlink="http://www.w3.org/1999/xlink">
    <!-- Generator: Sketch 62 (91390) - https://sketch.com -->
    <title>stamp</title>
    <desc>Created with Sketch.</desc>
    <g id="Icons" stroke="none" stroke-width="1" fill="none" fill-rule="evenodd">
        <g id="Layer-Icons" transform="translate(-187.000000, -548.000000)" fill="#FFFFFF" fill-rule="nonzero">
            <g id="stamp" transform="translate(187.000000, 548.000000)">
                <path d="M10,8 L10,8.33333333 C10,8.885625 9.55229167,9.33333333 9,9.33333333 L1,9.33333333 C0.447708333,9.33333333 0,8.885625 0,8.33333333 L0,3 C0,2.44770833 0.447708333,2 1,2 L1.33333333,2 L1.33333333,6.33333333 C1.33333333,7.25233333 2.081,8 3,8 L10,8 Z M12,6.33333333 L12,1 C12,0.447708333 11.5522917,0 11,0 L3,0 C2.44770833,0 2,0.447708333 2,1 L2,6.33333333 C2,6.885625 2.44770833,7.33333333 3,7.33333333 L11,7.33333333 C11.5522917,7.33333333 12,6.885625 12,6.33333333 Z M5.33333333,2 C5.33333333,2.55229167 4.885625,3 4.33333333,3 C3.78104167,3 3.33333333,2.55229167 3.33333333,2 C3.33333333,1.44770833 3.78104167,1 4.33333333,1 C4.885625,1 5.33333333,1.44770833 5.33333333,2 Z M3.33333333,5 L4.48989583,3.8434375 C4.58752083,3.7458125 4.7458125,3.7458125 4.84345833,3.8434375 L5.66666667,4.66666667 L8.48989583,1.8434375 C8.58752083,1.7458125 8.7458125,1.7458125 8.84345833,1.8434375 L10.6666667,3.66666667 L10.6666667,6 L3.33333333,6 L3.33333333,5 Z" id="Shape"></path>
            </g>
        </g>
    </g>
</svg>