<?xml version="1.0" encoding="UTF-8"?>
<svg width="12px" height="8px" viewBox="0 0 12 8" version="1.1" xmlns="http://www.w3.org/2000/svg" xmlns:xlink="http://www.w3.org/1999/xlink">
    <!-- Generator: Sketch 62 (91390) - https://sketch.com -->
    <title>streets</title>
    <desc>Created with Sketch.</desc>
    <g id="Icons" stroke="none" stroke-width="1" fill="none" fill-rule="evenodd">
        <g id="Layer-Icons" transform="translate(-187.000000, -584.000000)" fill="#FFFFFF" fill-rule="nonzero">
            <g id="streets" transform="translate(187.000000, 584.000000)">
                <path d="M11.9414583,7.055625 L9.02916667,0.388958333 C8.925625,0.151875 8.7,0 8.45166667,0 L6.41854167,0 L6.46958333,0.4825 C6.48,0.580833333 6.40270833,0.666666667 6.30375,0.666666667 L5.69625,0.666666667 C5.59729167,0.666666667 5.52,0.580833333 5.53041667,0.4825 L5.58145833,0 L3.54833333,0 C3.29979167,0 3.07416667,0.151875 2.970625,0.388958333 L0.0583333333,7.055625 C-0.134375,7.49708333 0.173125,8 0.63625,8 L4.73708333,8 L4.951875,5.965 C4.96979167,5.79541667 5.11270833,5.66666667 5.28333333,5.66666667 L6.71666667,5.66666667 C6.88729167,5.66666667 7.03020833,5.79541667 7.048125,5.965 L7.26291667,8 L11.36375,8 C11.826875,8 12.134375,7.49708333 11.9414583,7.055625 Z M5.425,1.4825 C5.43395718,1.39766501 5.5055268,1.33328831 5.59083333,1.33333331 L6.409375,1.33333331 C6.49458333,1.33333331 6.56625,1.39770833 6.57520833,1.4825 L6.67104167,2.39041667 C6.68666667,2.538125 6.57083333,2.66666667 6.4225,2.66666667 L5.57791667,2.66666667 C5.429375,2.66666667 5.31375,2.538125 5.329375,2.39041667 L5.425,1.4825 L5.425,1.4825 Z M6.57583333,5 L5.42395833,5 C5.22604167,5 5.07166667,4.82854167 5.0925,4.63166667 L5.198125,3.63166667 C5.21604167,3.46208333 5.35895833,3.33333333 5.52958333,3.33333333 L6.47020833,3.33333333 C6.64083333,3.33333333 6.78375,3.46208333 6.80166667,3.63166667 L6.90729167,4.63166667 C6.928125,4.82854167 6.77375,5 6.57583333,5 L6.57583333,5 Z" id="Shape"></path>
            </g>
        </g>
    </g>
</svg>