<?xml version="1.0" encoding="UTF-8"?>
<svg width="14px" height="11px" viewBox="0 0 14 11" version="1.1" xmlns="http://www.w3.org/2000/svg" xmlns:xlink="http://www.w3.org/1999/xlink">
    <!-- Generator: Sketch 55.2 (78181) - https://sketchapp.com -->
    <title>tes - neutral</title>
    <desc>Created with Sketch.</desc>
    <g id="Icons" stroke="none" stroke-width="1" fill="none" fill-rule="evenodd">
        <g id="tes---neutral" fill="#7C7C7C" fill-rule="nonzero">
            <path d="M12.6875,11 L1.3125,11 C0.587617187,11 0,10.384401 0,9.625 L0,1.375 C0,0.615598958 0.587617187,0 1.3125,0 L12.6875,0 C13.4123828,0 14,0.615598958 14,1.375 L14,9.625 C14,10.384401 13.4123828,11 12.6875,11 Z M3.0625,1.60416667 C2.2168125,1.60416667 1.53125,2.322375 1.53125,3.20833333 C1.53125,4.09429167 2.2168125,4.8125 3.0625,4.8125 C3.9081875,4.8125 4.59375,4.09429167 4.59375,3.20833333 C4.59375,2.322375 3.9081875,1.60416667 3.0625,1.60416667 Z M1.75,9.16666667 L12.25,9.16666667 L12.25,5.95833333 L9.85701172,3.45139323 C9.72887891,3.31715885 9.52112109,3.31715885 9.39296094,3.45139323 L5.6875,7.33333333 L4.16951172,5.7430599 C4.04137891,5.60882552 3.83362109,5.60882552 3.70546094,5.7430599 L1.75,7.79166667 L1.75,9.16666667 Z" id="Shape"></path>
        </g>
    </g>
</svg>