<?xml version="1.0" encoding="UTF-8"?>
<svg width="12px" height="9px" viewBox="0 0 12 9" version="1.1" xmlns="http://www.w3.org/2000/svg" xmlns:xlink="http://www.w3.org/1999/xlink">
    <!-- Generator: Sketch 62 (91390) - https://sketch.com -->
    <title>tes</title>
    <desc>Created with Sketch.</desc>
    <g id="Icons" stroke="none" stroke-width="1" fill="none" fill-rule="evenodd">
        <g id="Layer-Icons" transform="translate(-188.000000, -625.000000)" fill="#FFFFFF" fill-rule="nonzero">
            <g id="tes" transform="translate(188.000000, 625.000000)">
                <path d="M10.875,9 L1.125,9 C0.503671875,9 0,8.49632812 0,7.875 L0,1.125 C0,0.503671875 0.503671875,0 1.125,0 L10.875,0 C11.4963281,0 12,0.503671875 12,1.125 L12,7.875 C12,8.49632812 11.4963281,9 10.875,9 Z M2.625,1.3125 C1.900125,1.3125 1.3125,1.900125 1.3125,2.625 C1.3125,3.349875 1.900125,3.9375 2.625,3.9375 C3.349875,3.9375 3.9375,3.349875 3.9375,2.625 C3.9375,1.900125 3.349875,1.3125 2.625,1.3125 Z M1.5,7.5 L10.5,7.5 L10.5,4.875 L8.44886719,2.82386719 C8.33903906,2.71403906 8.16096094,2.71403906 8.05110937,2.82386719 L4.875,6 L3.57386719,4.69886719 C3.46403906,4.58903906 3.28596094,4.58903906 3.17610938,4.69886719 L1.5,6.375 L1.5,7.5 Z" id="Shape"></path>
            </g>
        </g>
    </g>
</svg>