<?xml version="1.0" encoding="UTF-8"?>
<svg width="12px" height="12px" viewBox="0 0 12 12" version="1.1" xmlns="http://www.w3.org/2000/svg" xmlns:xlink="http://www.w3.org/1999/xlink">
    <!-- Generator: Sketch 62 (91390) - https://sketch.com -->
    <title>timeslider</title>
    <desc>Created with Sketch.</desc>
    <g id="Icons" stroke="none" stroke-width="1" fill="none" fill-rule="evenodd">
        <g id="Layer-Icons" transform="translate(-187.000000, -507.000000)" fill="#FFFFFF" fill-rule="nonzero">
            <g id="timeslider" transform="translate(187.000000, 507.000000)">
                <path d="M6,0 C2.68548387,0 0,2.68548387 0,6 C0,9.31451613 2.68548387,12 6,12 C9.31451613,12 12,9.31451613 12,6 C12,2.68548387 9.31451613,0 6,0 Z M7.38145161,8.47016129 L5.24758065,6.91935484 C5.17258065,6.86370968 5.12903226,6.7766129 5.12903226,6.68467742 L5.12903226,2.61290323 C5.12903226,2.45322581 5.25967742,2.32258065 5.41935484,2.32258065 L6.58064516,2.32258065 C6.74032258,2.32258065 6.87096774,2.45322581 6.87096774,2.61290323 L6.87096774,5.94435484 L8.40725806,7.06209677 C8.53790323,7.15645161 8.56451613,7.33790323 8.47016129,7.46854839 L7.78790323,8.40725806 C7.69354839,8.53548387 7.51209677,8.56451613 7.38145161,8.47016129 Z" id="Shape"></path>
            </g>
        </g>
    </g>
</svg>