<?xml version="1.0" encoding="UTF-8"?>
<svg width="320px" height="320px" viewBox="0 0 320 320" version="1.1" xmlns="http://www.w3.org/2000/svg" xmlns:xlink="http://www.w3.org/1999/xlink">
    <!-- Generator: Sketch 55.2 (78181) - https://sketchapp.com -->
    <title>times</title>
    <desc>Created with Sketch.</desc>
    <g id="Page-1" stroke="none" stroke-width="1" fill="none" fill-rule="evenodd">
        <g id="times" transform="translate(0.000000, -1.000000)" fill="#878787" fill-rule="nonzero">
            <path d="M207.6,161 L315.32,53.28 C321.55,47.05 321.55,36.94 315.32,30.7 L290.29,5.67 C284.06,-0.56 273.95,-0.56 267.71,5.67 L160,113.4 L52.28,5.68 C46.05,-0.55 35.94,-0.55 29.7,5.68 L4.68,30.7 C-1.55,36.93 -1.55,47.04 4.68,53.28 L112.4,161 L4.68,268.72 C-1.55,274.95 -1.55,285.06 4.68,291.3 L29.71,316.33 C35.94,322.56 46.05,322.56 52.29,316.33 L160,208.6 L267.72,316.32 C273.95,322.55 284.06,322.55 290.3,316.32 L315.33,291.29 C321.56,285.06 321.56,274.95 315.33,268.71 L207.6,161 Z" id="Path"></path>
        </g>
    </g>
</svg>