<?xml version="1.0" encoding="UTF-8"?>
<svg width="13px" height="15px" viewBox="0 0 13 15" version="1.1" xmlns="http://www.w3.org/2000/svg" xmlns:xlink="http://www.w3.org/1999/xlink">
    <title>Shape</title>
    <g id="Page-1" stroke="none" stroke-width="1" fill="none" fill-rule="evenodd">
        <g id="trash-alt" transform="translate(0.000000, -0.969643)" fill="#FFFFFF" fill-rule="nonzero">
            <path d="M0.928571429,14.5633938 C0.928571429,15.3400437 1.55217481,15.9696429 2.32142857,15.9696429 L10.6785714,15.9696429 C11.4478252,15.9696429 12.0714286,15.3400437 12.0714286,14.5633938 L12.0714286,4.71965056 L0.928571429,4.71965056 L0.928571429,14.5633938 Z M8.82142857,7.06339896 C8.82142857,6.80451566 9.02929637,6.59464928 9.28571429,6.59464928 C9.54213221,6.59464928 9.75,6.80451566 9.75,7.06339896 L9.75,13.6258945 C9.75,13.8847778 9.54213221,14.0946493 9.28571429,14.0946493 C9.02929637,14.0946493 8.82142857,13.8847778 8.82142857,13.6258945 L8.82142857,7.06339896 Z M6.03571429,7.06339896 C6.03571429,6.80451566 6.24358208,6.59464928 6.5,6.59464928 C6.75641792,6.59464928 6.96428571,6.80451566 6.96428571,7.06339896 L6.96428571,13.6258945 C6.96428571,13.8847778 6.75641792,14.0946493 6.5,14.0946493 C6.24358208,14.0946493 6.03571429,13.8847778 6.03571429,13.6258945 L6.03571429,7.06339896 Z M3.25,7.06339896 C3.25,6.80451566 3.45786779,6.59464928 3.71428571,6.59464928 C3.97070363,6.59464928 4.17857143,6.80451566 4.17857143,7.06339896 L4.17857143,13.6258945 C4.17857143,13.8847778 3.97070363,14.0946493 3.71428571,14.0946493 C3.45786779,14.0946493 3.25,13.8847778 3.25,13.6258945 L3.25,7.06339896 Z M12.5357143,1.90715249 L9.05357143,1.90715249 L8.78080357,1.3593013 C8.66294547,1.12039797 8.42127435,0.969461712 8.15691964,0.96964797 L4.84017857,0.96964797 C4.57632105,0.968629061 4.33510576,1.11998461 4.21919643,1.3593013 L3.94642857,1.90715249 L0.464285714,1.90715249 C0.207867795,1.90715249 0,2.11701887 0,2.37590217 L0,3.31340153 C0,3.57228483 0.207867795,3.78215121 0.464285714,3.78215121 L12.5357143,3.78215121 C12.7921322,3.78215121 13,3.57228483 13,3.31340153 L13,2.37590217 C13,2.11701887 12.7921322,1.90715249 12.5357143,1.90715249 Z" id="Shape"></path>
        </g>
    </g>
</svg>