<?xml version="1.0" encoding="UTF-8"?>
<svg width="14px" height="14px" viewBox="0 0 14 14" version="1.1" xmlns="http://www.w3.org/2000/svg" xmlns:xlink="http://www.w3.org/1999/xlink">
    <title>twitter-square</title>
    <g id="Launch-&amp;-Sign-In" stroke="none" stroke-width="1" fill="none" fill-rule="evenodd">
        <g id="Sign-In" transform="translate(-798.000000, -723.000000)" fill="#FFFFFF" fill-rule="nonzero">
            <g id="twitter-square" transform="translate(798.000000, 723.000000)">
                <path d="M12.5,0 L1.5,0 C0.671875,0 0,0.671875 0,1.5 L0,12.5 C0,13.328125 0.671875,14 1.5,14 L12.5,14 C13.328125,14 14,13.328125 14,12.5 L14,1.5 C14,0.671875 13.328125,0 12.5,0 Z M10.971875,4.9625 C10.978125,5.05 10.978125,5.140625 10.978125,5.228125 C10.978125,7.9375 8.915625,11.059375 5.146875,11.059375 C3.984375,11.059375 2.90625,10.721875 2,10.140625 C2.165625,10.159375 2.325,10.165625 2.49375,10.165625 C3.453125,10.165625 4.334375,9.840625 5.0375,9.290625 C4.1375,9.271875 3.38125,8.68125 3.121875,7.86875 C3.4375,7.915625 3.721875,7.915625 4.046875,7.83125 C3.109375,7.640625 2.40625,6.815625 2.40625,5.81875 L2.40625,5.79375 C2.678125,5.946875 2.996875,6.040625 3.33125,6.053125 C2.76026505,5.67332398 2.41762731,5.03263835 2.41875,4.346875 C2.41875,3.965625 2.51875,3.615625 2.696875,3.3125 C3.70625,4.55625 5.221875,5.36875 6.921875,5.45625 C6.63125,4.065625 7.671875,2.9375 8.921875,2.9375 C9.5125,2.9375 10.04375,3.184375 10.41875,3.584375 C10.88125,3.496875 11.325,3.325 11.71875,3.090625 C11.565625,3.565625 11.24375,3.965625 10.81875,4.21875 C11.23125,4.175 11.63125,4.059375 12,3.9 C11.721875,4.309375 11.371875,4.671875 10.971875,4.9625 L10.971875,4.9625 Z" id="Shape"></path>
            </g>
        </g>
    </g>
</svg>