<?xml version="1.0" encoding="UTF-8"?>
<svg width="16px" height="16px" viewBox="0 0 16 16" version="1.1" xmlns="http://www.w3.org/2000/svg" xmlns:xlink="http://www.w3.org/1999/xlink">
    <!-- Generator: Sketch 55.2 (78181) - https://sketchapp.com -->
    <title>unchecked_white</title>
    <desc>Created with Sketch.</desc>
    <g id="Page-1" stroke="none" stroke-width="1" fill="none" fill-rule="evenodd">
        <g id="unchecked_white" fill="#7A7A7A" fill-rule="nonzero">
            <path d="M14.2857143,0 L1.71428571,0 C0.767857143,0 0,0.767857143 0,1.71428571 L0,14.2857143 C0,15.2321429 0.767857143,16 1.71428571,16 L14.2857143,16 C15.2321429,16 16,15.2321429 16,14.2857143 L16,1.71428571 C16,0.767857143 15.2321429,0 14.2857143,0 Z M14.8571429,14.2857143 C14.8571429,14.6 14.6,14.8571429 14.2857143,14.8571429 L1.71428571,14.8571429 C1.4,14.8571429 1.14285714,14.6 1.14285714,14.2857143 L1.14285714,1.71428571 C1.14285714,1.4 1.4,1.14285714 1.71428571,1.14285714 L14.2857143,1.14285714 C14.6,1.14285714 14.8571429,1.4 14.8571429,1.71428571 L14.8571429,14.2857143 Z" id="Shape"></path>
        </g>
    </g>
</svg>