<?xml version="1.0" encoding="UTF-8"?>
<svg width="22px" height="14px" viewBox="0 0 22 14" version="1.1" xmlns="http://www.w3.org/2000/svg" xmlns:xlink="http://www.w3.org/1999/xlink">
    <title>VR</title>
    <g id="Symbols" stroke="none" stroke-width="1" fill="none" fill-rule="evenodd">
        <g id="VR" fill="#FFFFFF" fill-rule="nonzero">
            <path d="M20.9,0 L1.1,0 C0.49259375,0 0,0.49259375 0,1.1 L0,12.1 C0,12.7074062 0.49259375,13.2 1.1,13.2 L6.6075625,13.2 C7.47346875,13.2 8.25859375,12.6922812 8.6136875,11.9026875 L9.56725,9.7838125 C9.83846875,9.180875 10.3932813,8.8 11,8.8 C11.6067188,8.8 12.1615313,9.180875 12.43275,9.7838125 L13.3863125,11.9026875 C13.7414063,12.6922812 14.526875,13.2 15.3924375,13.2 L20.9,13.2 C21.5074062,13.2 22,12.7074062 22,12.1 L22,1.1 C22,0.49259375 21.5074062,0 20.9,0 Z M5.5,8.25 C4.28484375,8.25 3.3,7.26515625 3.3,6.05 C3.3,4.83484375 4.28484375,3.85 5.5,3.85 C6.71515625,3.85 7.7,4.83484375 7.7,6.05 C7.7,7.26515625 6.71515625,8.25 5.5,8.25 Z M16.5,8.25 C15.2848438,8.25 14.3,7.26515625 14.3,6.05 C14.3,4.83484375 15.2848438,3.85 16.5,3.85 C17.7151562,3.85 18.7,4.83484375 18.7,6.05 C18.7,7.26515625 17.7151562,8.25 16.5,8.25 Z" id="Shape"></path>
        </g>
    </g>
</svg>