<?xml version="1.0" encoding="UTF-8"?>
<svg width="19px" height="19px" viewBox="0 0 19 19" version="1.1" xmlns="http://www.w3.org/2000/svg" xmlns:xlink="http://www.w3.org/1999/xlink">
    <!-- Generator: Sketch 62 (91390) - https://sketch.com -->
    <title>zoomout_unselected</title>
    <desc>Created with Sketch.</desc>
    <g id="Page-1" stroke="none" stroke-width="1" fill="none" fill-rule="evenodd">
        <g id="zoomout_unselected" fill="#FFFFFF" fill-rule="nonzero">
            <path d="M11.1257343,8.58964399 L3.89694788,8.58964399 C3.65839793,8.58964399 3.4632207,8.39446676 3.4632207,8.15591681 L3.4632207,7.86676535 C3.4632207,7.6282154 3.65839793,7.43303817 3.89694788,7.43303817 L11.1257343,7.43303817 C11.3642842,7.43303817 11.5594615,7.6282154 11.5594615,7.86676535 L11.5594615,8.15591681 C11.5594615,8.39446676 11.3642842,8.58964399 11.1257343,8.58964399 Z M18.3725926,18.4641662 L17.9641662,18.8725926 C17.7942897,19.0424691 17.5195958,19.0424691 17.3497194,18.8725926 L12.6871521,14.2100254 C12.6040211,14.1268944 12.5606484,14.0184626 12.5606484,13.902802 L12.5606484,13.5955786 C11.2269373,14.8027859 9.45949901,15.5365077 7.51856986,15.5365077 C3.39093283,15.5365077 0.0548479101,12.2437955 0.000632012162,8.11615848 C-0.0535838858,3.88731844 3.38731844,0.446416114 7.61615848,0.500632012 C11.7437955,0.55484791 15.0365077,3.89093283 15.0365077,8.01856986 C15.0365077,9.95949901 14.3027859,11.7269373 13.0955786,13.0606484 L13.402802,13.0606484 C13.5184626,13.0606484 13.6268944,13.1076355 13.7100254,13.1871521 L18.3725926,17.8497194 C18.5424691,18.0195958 18.5424691,18.2942897 18.3725926,18.4641662 Z M13.8799019,8.01856986 C13.8799019,4.50176528 11.0353744,1.65723784 7.51856986,1.65723784 C4.00176528,1.65723784 1.15723784,4.50176528 1.15723784,8.01856986 C1.15723784,11.5353744 4.00176528,14.3799019 7.51856986,14.3799019 C11.0353744,14.3799019 13.8799019,11.5353744 13.8799019,8.01856986 Z" id="Shape"></path>
        </g>
    </g>
</svg>