<?xml version="1.0" encoding="UTF-8"?>
<svg width="19px" height="19px" viewBox="0 0 19 19" version="1.1" xmlns="http://www.w3.org/2000/svg" xmlns:xlink="http://www.w3.org/1999/xlink">
    <!-- Generator: Sketch 62 (91390) - https://sketch.com -->
    <title>zoom_unseleceted</title>
    <desc>Created with Sketch.</desc>
    <g id="Page-1" stroke="none" stroke-width="1" fill="none" fill-rule="evenodd">
        <g id="zoom_unseleceted" fill="#FFFFFF" fill-rule="nonzero">
            <path d="M11.5594615,7.37399414 L11.5594615,7.66314559 C11.5594615,7.90169554 11.3642842,8.09687278 11.1257343,8.09687278 L8.08964399,8.09687278 L8.08964399,11.1329631 C8.08964399,11.371513 7.89446676,11.5666902 7.65591681,11.5666902 L7.36676535,11.5666902 C7.1282154,11.5666902 6.93303817,11.371513 6.93303817,11.1329631 L6.93303817,8.09687278 L3.89694788,8.09687278 C3.65839793,8.09687278 3.4632207,7.90169554 3.4632207,7.66314559 L3.4632207,7.37399414 C3.4632207,7.13544419 3.65839793,6.94026695 3.89694788,6.94026695 L6.93303817,6.94026695 L6.93303817,3.90417667 C6.93303817,3.66562672 7.1282154,3.47044948 7.36676535,3.47044948 L7.65591681,3.47044948 C7.89446676,3.47044948 8.08964399,3.66562672 8.08964399,3.90417667 L8.08964399,6.94026695 L11.1257343,6.94026695 C11.3642842,6.94026695 11.5594615,7.13544419 11.5594615,7.37399414 Z M18.3725926,17.9641662 L17.9641662,18.3725926 C17.7942897,18.5424691 17.5195958,18.5424691 17.3497194,18.3725926 L12.6871521,13.7100254 C12.6040211,13.6268944 12.5606484,13.5184626 12.5606484,13.402802 L12.5606484,13.0955786 C11.2269373,14.3027859 9.45949901,15.0365077 7.51856986,15.0365077 C3.39093283,15.0365077 0.0548479101,11.7437955 0.000632012162,7.61615848 C-0.0535838858,3.38731844 3.38731844,-0.0535838858 7.61615848,0.000632012162 C11.7437955,0.0548479101 15.0365077,3.39093283 15.0365077,7.51856986 C15.0365077,9.45949901 14.3027859,11.2269373 13.0955786,12.5606484 L13.402802,12.5606484 C13.5184626,12.5606484 13.6268944,12.6076355 13.7100254,12.6871521 L18.3725926,17.3497194 C18.5424691,17.5195958 18.5424691,17.7942897 18.3725926,17.9641662 Z M13.8799019,7.51856986 C13.8799019,4.00176528 11.0353744,1.15723784 7.51856986,1.15723784 C4.00176528,1.15723784 1.15723784,4.00176528 1.15723784,7.51856986 C1.15723784,11.0353744 4.00176528,13.8799019 7.51856986,13.8799019 C11.0353744,13.8799019 13.8799019,11.0353744 13.8799019,7.51856986 Z" id="Shape"></path>
        </g>
    </g>
</svg>