<svg width="16" height="15" viewBox="0 0 16 15" fill="none" xmlns="http://www.w3.org/2000/svg">
  <g fill="#000000">
    <path d="M14.6667 12.4444H1.33333C0.596944 12.4444 0 11.8475 0 11.1111V3.1111C0 2.37472 0.596944 1.77777 1.33333 1.77777H14.6667C15.4031 1.77777 16 2.37472 16 3.1111V11.1111C16 11.8475 15.4031 12.4444 14.6667 12.4444ZM3.55556 4.99999V3.88888C3.55556 3.7048 3.40631 3.55555 3.22222 3.55555H2.11111C1.92703 3.55555 1.77778 3.7048 1.77778 3.88888V4.99999C1.77778 5.18408 1.92703 5.33333 2.11111 5.33333H3.22222C3.40631 5.33333 3.55556 5.18408 3.55556 4.99999ZM6.22222 4.99999V3.88888C6.22222 3.7048 6.07297 3.55555 5.88889 3.55555H4.77778C4.59369 3.55555 4.44444 3.7048 4.44444 3.88888V4.99999C4.44444 5.18408 4.59369 5.33333 4.77778 5.33333H5.88889C6.07297 5.33333 6.22222 5.18408 6.22222 4.99999ZM8.88889 4.99999V3.88888C8.88889 3.7048 8.73964 3.55555 8.55556 3.55555H7.44444C7.26036 3.55555 7.11111 3.7048 7.11111 3.88888V4.99999C7.11111 5.18408 7.26036 5.33333 7.44444 5.33333H8.55556C8.73964 5.33333 8.88889 5.18408 8.88889 4.99999ZM11.5556 4.99999V3.88888C11.5556 3.7048 11.4063 3.55555 11.2222 3.55555H10.1111C9.92703 3.55555 9.77778 3.7048 9.77778 3.88888V4.99999C9.77778 5.18408 9.92703 5.33333 10.1111 5.33333H11.2222C11.4063 5.33333 11.5556 5.18408 11.5556 4.99999ZM14.2222 4.99999V3.88888C14.2222 3.7048 14.073 3.55555 13.8889 3.55555H12.7778C12.5937 3.55555 12.4444 3.7048 12.4444 3.88888V4.99999C12.4444 5.18408 12.5937 5.33333 12.7778 5.33333H13.8889C14.073 5.33333 14.2222 5.18408 14.2222 4.99999ZM4.88889 7.66666V6.55555C4.88889 6.37147 4.73964 6.22222 4.55556 6.22222H3.44444C3.26036 6.22222 3.11111 6.37147 3.11111 6.55555V7.66666C3.11111 7.85074 3.26036 7.99999 3.44444 7.99999H4.55556C4.73964 7.99999 4.88889 7.85074 4.88889 7.66666ZM7.55556 7.66666V6.55555C7.55556 6.37147 7.40631 6.22222 7.22222 6.22222H6.11111C5.92703 6.22222 5.77778 6.37147 5.77778 6.55555V7.66666C5.77778 7.85074 5.92703 7.99999 6.11111 7.99999H7.22222C7.40631 7.99999 7.55556 7.85074 7.55556 7.66666ZM10.2222 7.66666V6.55555C10.2222 6.37147 10.073 6.22222 9.88889 6.22222H8.77778C8.59369 6.22222 8.44444 6.37147 8.44444 6.55555V7.66666C8.44444 7.85074 8.59369 7.99999 8.77778 7.99999H9.88889C10.073 7.99999 10.2222 7.85074 10.2222 7.66666ZM12.8889 7.66666V6.55555C12.8889 6.37147 12.7396 6.22222 12.5556 6.22222H11.4444C11.2604 6.22222 11.1111 6.37147 11.1111 6.55555V7.66666C11.1111 7.85074 11.2604 7.99999 11.4444 7.99999H12.5556C12.7396 7.99999 12.8889 7.85074 12.8889 7.66666ZM3.55556 10.3333V9.22222C3.55556 9.03813 3.40631 8.88888 3.22222 8.88888H2.11111C1.92703 8.88888 1.77778 9.03813 1.77778 9.22222V10.3333C1.77778 10.5174 1.92703 10.6667 2.11111 10.6667H3.22222C3.40631 10.6667 3.55556 10.5174 3.55556 10.3333ZM11.5556 10.3333V9.22222C11.5556 9.03813 11.4063 8.88888 11.2222 8.88888H4.77778C4.59369 8.88888 4.44444 9.03813 4.44444 9.22222V10.3333C4.44444 10.5174 4.59369 10.6667 4.77778 10.6667H11.2222C11.4063 10.6667 11.5556 10.5174 11.5556 10.3333ZM14.2222 10.3333V9.22222C14.2222 9.03813 14.073 8.88888 13.8889 8.88888H12.7778C12.5937 8.88888 12.4444 9.03813 12.4444 9.22222V10.3333C12.4444 10.5174 12.5937 10.6667 12.7778 10.6667H13.8889C14.073 10.6667 14.2222 10.5174 14.2222 10.3333Z"/>
  </g>
</svg>
